<?xml version="1.0" standalone="no"?>
<!DOCTYPE svg PUBLIC "-//W3C//DTD SVG 1.1//EN" "http://www.w3.org/Graphics/SVG/1.1/DTD/svg11.dtd" >
<svg>
<metadata>
Created by FontForge 20120731 at Sat Oct 11 18:45:06 2014

Copyright (c) 2012 by TypeTogether. All rights reserved.
</metadata>
<defs>
<font id="TabletGothicNarrow-Italic" horiz-adv-x="500" >
  <font-face 
    font-family="Tablet Gothic Narrow"
    font-weight="400"
    font-style="italic"
    font-stretch="condensed"
    units-per-em="1000"
    panose-1="2 0 5 3 0 0 0 2 0 4"
    ascent="755"
    descent="-245"
    x-height="514"
    cap-height="734"
    bbox="-193 -241 912 1097"
    underline-thickness="50"
    underline-position="-50"
    slope="-9"
    unicode-range="U+0020-FB04"
  />
<missing-glyph horiz-adv-x="181" 
 />
    <glyph glyph-name="ij" unicode="ij" horiz-adv-x="436" 
d="M95 514h89l-80 -514h-90zM130 734h90l-18 -107h-89zM351 734h89l-18 -107h-89zM96 -115q13 -4 26.5 -7t29.5 -3q34 0 52 21.5t27 83.5l84 534h89l-85 -538q-14 -92 -51.5 -131.5t-107.5 -39.5q-27 0 -49 4.5t-34 9.5z" />
    <glyph glyph-name="ff" unicode="ff" horiz-adv-x="582" 
d="M397 514l12 80q6 34 18 62t32 48t48.5 31t67.5 11q32 0 56 -5.5t36 -9.5l-19 -66q-14 5 -30 8.5t-35 3.5q-41 0 -60 -22.5t-28 -81.5l-9 -59h116l-10 -69h-117l-70 -445h-89l70 445h-196l-70 -445h-89l70 445h-61l11 69h61l12 76q11 67 50 109.5t116 42.5q32 0 55.5 -5.5
t34.5 -10.5l-19 -65q-14 5 -29.5 8t-33.5 3q-41 0 -60 -22.5t-28 -81.5l-9 -54h196z" />
    <glyph glyph-name="fi" unicode="fi" horiz-adv-x="520" 
d="M486 514l-81 -514h-89l70 445h-196l-70 -445h-89l70 445h-61l11 69h61l13 80q5 33 17.5 61t33 48t50 31.5t68.5 11.5q27 0 47.5 -4t32.5 -8l-16 -67q-13 4 -27.5 7t-32.5 3q-41 0 -60 -23.5t-28 -80.5l-9 -59h285zM432 734h89l-17 -107h-89z" />
    <glyph glyph-name="fl" unicode="fl" horiz-adv-x="519" 
d="M112 514l13 80q11 67 50.5 109.5t117.5 42.5q27 0 48 -4t33 -8l-16 -68q-13 5 -27.5 8t-32.5 3q-41 0 -60 -23.5t-28 -80.5l-9 -59h114l-11 -69h-114l-70 -445h-89l70 445h-61l11 69h61zM405 0h-89l116 734h89z" />
    <glyph glyph-name="ffi" unicode="ffi" horiz-adv-x="804" 
d="M771 514l-81 -514h-89l69 445h-195l-70 -445h-89l70 445h-196l-70 -445h-89l70 445h-61l11 69h61l12 75q5 33 17 60.5t32 48t49 32t68 11.5q31 0 54.5 -5.5t35.5 -10.5l-19 -65q-14 5 -29.5 8t-34.5 3q-41 0 -60 -23t-28 -81l-8 -53h196l12 80q5 33 17.5 61t33 48.5
t50 31.5t69.5 11q26 0 47 -4t33 -8l-16 -68q-13 5 -28 8t-32 3q-41 0 -60 -23t-28 -81l-9 -59h285zM717 734h89l-17 -107h-89z" />
    <glyph glyph-name="ffl" unicode="ffl" horiz-adv-x="804" 
d="M397 514l12 80q5 33 17.5 61t33 48.5t50 31.5t69.5 11q27 0 47.5 -4t32.5 -8l-17 -68q-13 5 -27.5 8t-31.5 3q-41 0 -60 -23t-28 -81l-9 -59h113l-10 -69h-114l-70 -445h-89l70 445h-196l-70 -445h-89l70 445h-61l11 69h61l12 75q6 33 18 60.5t32 48t48.5 32t67.5 11.5
q31 0 54.5 -5.5t35.5 -10.5l-19 -65q-14 4 -29.5 7.5t-34.5 3.5q-41 0 -59.5 -23.5t-27.5 -80.5l-9 -53h196zM690 0h-89l116 734h89z" />
    <glyph glyph-name="t_t" unicode="tt" horiz-adv-x="603" 
d="M144 156q-2 -12 -3 -23t-1 -20q0 -29 13 -41.5t45 -12.5q17 0 32.5 2.5t29.5 6.5l-2 -67q-14 -5 -38 -9t-51 -4q-64 0 -91.5 27t-27.5 81q0 13 1.5 27t3.5 29l46 293h-61l11 69h61l17 107l94 30l-22 -137h194l17 107l94 30l-22 -137h117l-11 -69h-117l-45 -289
q-4 -23 -4 -43q0 -29 13 -41.5t45 -12.5q17 0 33 2.5t31 7.5l-2 -68q-14 -5 -38 -9t-52 -4q-65 0 -93 27t-28 81q0 26 6 56l45 293h-194z" />
    <glyph glyph-name=".notdef" horiz-adv-x="181" 
 />
    <glyph glyph-name=".null" horiz-adv-x="0" 
 />
    <glyph glyph-name="nonmarkingreturn" horiz-adv-x="181" 
 />
    <glyph glyph-name="space" unicode=" " horiz-adv-x="181" 
 />
    <glyph glyph-name="numbersign" unicode="#" horiz-adv-x="627" 
d="M287 0l42 139h-132l-42 -139h-77l42 139h-101l21 67h101l47 155h-106l23 68h104l38 126h77l-38 -126h132l38 126h77l-38 -126h102l-22 -68h-101l-47 -155h107l-21 -67h-107l-42 -139h-77zM396 361h-132l-47 -155h132z" />
    <glyph glyph-name="ampersand" unicode="&#x26;" horiz-adv-x="677" 
d="M118 164q0 -47 28.5 -72t82.5 -25q45 0 90.5 21t87.5 57l-151 211q-27 -16 -52 -36t-44 -43.5t-30.5 -51.5t-11.5 -61zM215 416q-29 41 -38.5 74.5t-9.5 62.5q0 45 15.5 81t43.5 61t65.5 38.5t82.5 13.5q39 0 67 -9.5t46 -26t27 -38.5t9 -47q0 -28 -7.5 -52t-14.5 -39
l-83 11q5 11 10 27.5t5 35.5q0 26 -15.5 44.5t-54.5 18.5q-45 0 -73.5 -27t-28.5 -73q0 -29 10.5 -58.5t36.5 -65.5l164 -234q32 48 50.5 98.5t29.5 110.5l82 -10q-8 -39 -18 -74t-23.5 -67t-31 -63.5t-39.5 -62.5l75 -105l-75 -54l-70 95q-58 -48 -120 -71t-125 -23
q-51 0 -86.5 12t-58.5 33.5t-33.5 50.5t-10.5 62q0 45 15 83.5t41.5 72.5t62.5 62t78 52z" />
    <glyph glyph-name="asterisk" unicode="*" horiz-adv-x="384" 
d="M294 734l-39 -130l128 57l12 -69l-133 -21l75 -97l-64 -42l-44 112l-81 -112l-53 43l104 96l-123 22l33 68l109 -57l4 130h72z" />
    <glyph glyph-name="comma" unicode="," horiz-adv-x="198" 
d="M25 118h102l-17 -102l-80 -145l-42 12l48 117h-30z" />
    <glyph glyph-name="hyphen" unicode="-" horiz-adv-x="325" 
d="M22 249l12 73h258l-12 -73h-258z" />
    <glyph glyph-name="period" unicode="." horiz-adv-x="221" 
d="M31 118h97l-19 -118h-97z" />
    <glyph glyph-name="colon" unicode=":" horiz-adv-x="221" 
d="M31 118h97l-19 -118h-97zM93 516h97l-18 -118h-97z" />
    <glyph glyph-name="semicolon" unicode=";" horiz-adv-x="198" 
d="M93 516h97l-18 -118h-97zM25 118h102l-17 -102l-80 -145l-42 12l48 117h-30z" />
    <glyph glyph-name="question" unicode="?" horiz-adv-x="490" 
d="M375 567q0 57 -23.5 80t-63.5 23q-58 0 -87 -37.5t-42 -106.5l-87 6q6 42 20.5 80.5t41 68.5t67 48t97.5 18q89 0 131 -49.5t42 -132.5q0 -56 -14.5 -103.5t-43 -83.5t-71 -59t-97.5 -32l-20 -95h-85l20 157q64 1 106 19t66 47.5t33.5 68.5t9.5 83zM121 118h97l-18 -118
h-97z" />
    <glyph glyph-name="exclam" unicode="!" horiz-adv-x="276" 
d="M153 734h102l-93 -534h-85zM58 118h97l-18 -118h-97z" />
    <glyph glyph-name="exclamdown" unicode="&#xa1;" horiz-adv-x="276" 
d="M111.01 -212.955h-101.994l92.9941 533.967h84.9951zM206.004 403.007h-96.9941l17.999 117.993h96.9932z" />
    <glyph glyph-name="questiondown" unicode="&#xbf;" horiz-adv-x="490" 
d="M108.022 -45.9658q0 -56.9961 23.499 -79.9951q23.498 -22.998 63.4961 -22.998q57.9961 0 86.9951 37.498q28.998 37.4971 41.9971 106.493l86.9941 -6q-5.99902 -41.9971 -20.498 -80.4951q-14.499 -38.4971 -40.998 -68.4951q-26.498 -29.999 -66.9951 -47.9971
q-40.498 -17.999 -97.4941 -17.999q-88.9951 0 -130.992 49.4971q-41.998 49.4961 -41.998 132.491q0 55.9971 14.5 103.494q14.499 47.4971 42.9971 83.4951q28.498 35.9971 70.9951 58.9961q42.498 22.998 97.4941 31.998l19.999 94.9941h84.9951l-19.999 -156.99
q-63.9961 -1 -105.993 -18.999q-41.998 -17.999 -65.9961 -47.4971q-23.999 -29.498 -33.498 -68.4961q-9.5 -38.9971 -9.5 -82.9951zM362.008 403.007h-96.9941l17.998 117.993h96.9941z" />
    <glyph glyph-name="at" unicode="@" horiz-adv-x="794" 
d="M579 -85q-49 -44 -118 -63t-141 -19q-69 0 -124 18t-94 55t-60 93.5t-21 133.5q0 88 28.5 167t83.5 138t134 93.5t180 34.5q65 0 119 -16.5t93 -49.5t60.5 -82.5t21.5 -116.5q0 -50 -10.5 -104t-35 -98t-65 -72.5t-99.5 -28.5q-41 0 -63 17.5t-32 40.5
q-22 -29 -54.5 -46.5t-76.5 -17.5q-62 0 -88 36.5t-26 93.5q0 46 13 94.5t39.5 88.5t67 66t95.5 26q36 0 57.5 -14.5t32.5 -34.5l18 43h65l-68 -245q-4 -14 -6.5 -27t-2.5 -23q0 -20 11 -31.5t37 -11.5q36 0 59 27.5t36.5 66.5t19 81t5.5 70q0 110 -60 158.5t-172 48.5
q-79 0 -142.5 -29t-108.5 -79.5t-69.5 -118.5t-24.5 -146q0 -64 17 -108.5t48.5 -73t76.5 -41.5t100 -13q65 0 120 19t93 51zM472 265q10 40 -10.5 58t-51.5 18q-38 0 -65.5 -21.5t-45 -54t-25.5 -70.5t-8 -72q0 -35 13.5 -53.5t45.5 -18.5q34 0 67.5 23.5t47.5 73.5z" />
    <glyph glyph-name="A" unicode="A" horiz-adv-x="599" 
d="M426 734l116 -734h-96l-32 201h-267l-92 -201h-97l344 734h124zM348 645l-167 -367h224l-53 367h-4z" />
    <glyph glyph-name="B" unicode="B" horiz-adv-x="580" 
d="M32 0l116 734h203q55 0 93 -11t62 -31.5t34.5 -49t10.5 -62.5q0 -44 -14.5 -78t-38.5 -58t-54.5 -39t-62.5 -22l-1 -3q71 -8 106 -47.5t35 -101.5q0 -63 -21.5 -106.5t-59 -71.5t-89.5 -40.5t-112 -12.5h-207zM179 338l-41 -261h67q47 0 87 6t69.5 22.5t46 46.5t16.5 78
q0 61 -40.5 84.5t-123.5 23.5h-81zM230 658l-39 -245h48q30 0 67.5 5.5t69.5 22.5t54 48t22 81q0 47 -28 67.5t-96 20.5h-98z" />
    <glyph glyph-name="C" unicode="C" horiz-adv-x="592" 
d="M274 67q69 0 111 48.5t60 132.5l90 -8q-27 -134 -97.5 -193t-173.5 -59q-217 0 -217 257q0 52 7.5 109.5t24.5 113t44 106.5t65.5 89.5t90.5 61t118 22.5q92 0 139 -51.5t47 -140.5q0 -36 -7 -74l-92 -8q4 21 5 39t1 33q0 67 -27.5 94.5t-75.5 27.5q-47 0 -83.5 -21.5
t-63.5 -56.5t-45 -80t-29 -92t-15.5 -92.5t-4.5 -81.5q0 -90 30.5 -133t97.5 -43z" />
    <glyph glyph-name="D" unicode="D" horiz-adv-x="608" 
d="M31 0l116 734h121q82 0 140 -16t95 -49t53.5 -83.5t16.5 -119.5q0 -100 -18.5 -185.5t-64 -147.5t-121.5 -97.5t-191 -35.5h-147zM186 78q83 0 138.5 29.5t89.5 81.5t48 124t14 157q0 98 -45.5 142t-154.5 44h-46l-92 -578h48z" />
    <glyph glyph-name="E" unicode="E" horiz-adv-x="515" 
d="M428 339h-248l-42 -261h300l-12 -78h-395l116 734h373l-12 -78h-278l-38 -241h248z" />
    <glyph glyph-name="F" unicode="F" horiz-adv-x="483" 
d="M420 328h-242l-52 -328h-95l116 734h372l-12 -78h-277l-40 -251h242z" />
    <glyph glyph-name="G" unicode="G" horiz-adv-x="626" 
d="M325 362h234l-58 -374h-71l8 97q-35 -51 -81.5 -74t-101.5 -23q-207 0 -207 258q0 52 7.5 109t24.5 112.5t43.5 106t65.5 89t90 61t117 22.5q95 0 140.5 -50t45.5 -139q0 -38 -7 -76l-91 -8q6 40 6 71q0 70 -29 96.5t-75 26.5q-47 0 -83 -21.5t-62.5 -56.5t-44.5 -80
t-29 -93t-15.5 -94.5t-4.5 -83.5q0 -171 127 -171q64 0 114 47.5t66 135.5l6 34h-147z" />
    <glyph glyph-name="H" unicode="H" horiz-adv-x="642" 
d="M510 0h-95l52 325h-289l-51 -325h-95l116 734h95l-52 -328h289l51 328h95z" />
    <glyph glyph-name="I" unicode="I" horiz-adv-x="338" 
d="M176 71h73l-11 -71h-238l11 71h71l93 592h-70l11 71h238l-11 -71h-73z" />
    <glyph glyph-name="J" unicode="J" horiz-adv-x="492" 
d="M97 212q-1 -11 -2 -23t-1 -23q0 -19 3.5 -37t13.5 -31.5t27.5 -21.5t44.5 -8q33 0 54 10.5t34.5 29.5t20.5 46.5t13 60.5l83 519h95l-84 -529q-8 -46 -21 -85.5t-37.5 -69t-64 -46t-100.5 -16.5q-88 0 -130.5 43t-42.5 122q0 12 1 24.5t3 25.5z" />
    <glyph glyph-name="K" unicode="K" horiz-adv-x="578" 
d="M188 391l332 343h107l-296 -307l192 -427h-104l-161 351l-91 -94l-40 -257h-95l116 734h95z" />
    <glyph glyph-name="L" unicode="L" horiz-adv-x="477" 
d="M139 78h270l-12 -78h-365l116 734h95z" />
    <glyph glyph-name="M" unicode="M" horiz-adv-x="796" 
d="M303 0l-82 613h-4l-97 -613h-89l116 734h141l77 -619h4l269 619h143l-116 -734h-89l97 612h-4l-275 -612h-91z" />
    <glyph glyph-name="N" unicode="N" horiz-adv-x="651" 
d="M408 0l-190 605h-4l-95 -605h-88l116 734h122l182 -596h4l94 596h86l-116 -734h-111z" />
    <glyph glyph-name="O" unicode="O" horiz-adv-x="631" 
d="M262 -12q-112 0 -163.5 64t-51.5 191q0 56 7.5 115.5t24.5 115.5t43.5 105.5t65 87t89.5 59t116 21.5q107 0 157.5 -63.5t50.5 -188.5q0 -55 -7 -114t-23 -115.5t-41.5 -107t-63.5 -88.5t-88.5 -60t-115.5 -22zM275 67q43 0 77 19.5t59 52.5t42.5 76.5t28 91.5t15.5 96.5
t5 92.5q0 85 -27 128.5t-92 43.5q-49 0 -85 -22t-62.5 -58t-44 -82t-28 -94t-14.5 -94.5t-4 -82.5q0 -83 29 -125.5t101 -42.5z" />
    <glyph glyph-name="P" unicode="P" horiz-adv-x="562" 
d="M127 0h-95l116 734h198q64 0 105 -15.5t65 -41.5t33.5 -59.5t9.5 -69.5q0 -52 -16.5 -101t-52.5 -86.5t-93.5 -60t-139.5 -22.5h-87zM261 353q45 0 81.5 11t63 34.5t40.5 60t14 88.5q0 51 -28 80.5t-99 29.5h-103l-48 -304h79z" />
    <glyph glyph-name="Q" unicode="Q" horiz-adv-x="631" 
d="M262 -12q-112 0 -163.5 64t-51.5 191q0 56 7.5 115.5t24.5 115.5t43.5 105.5t65 87t89.5 59t116 21.5q107 0 157.5 -63.5t50.5 -188.5q0 -61 -8.5 -126t-28 -125.5t-51.5 -113t-78 -87.5l59 -165l-72 -32l-77 153q-39 -11 -83 -11zM275 67q43 0 77 19.5t59 52.5
t42.5 76.5t28 91.5t15.5 96.5t5 92.5q0 85 -27 128.5t-92 43.5q-49 0 -85 -22t-62.5 -58t-44 -82t-28 -94t-14.5 -94.5t-4 -82.5q0 -83 29 -125.5t101 -42.5z" />
    <glyph glyph-name="R" unicode="R" horiz-adv-x="578" 
d="M286 318h-110l-49 -318h-95l116 734h212q60 0 99 -15t61.5 -40t31.5 -56.5t9 -64.5q0 -40 -10 -76t-31.5 -65.5t-55.5 -51.5t-82 -34l113 -331h-104zM268 394q40 0 75.5 7t61.5 24.5t41.5 48.5t15.5 79q0 51 -29 77.5t-101 26.5h-102l-41 -263h79z" />
    <glyph glyph-name="S" unicode="S" horiz-adv-x="544" 
d="M436 510q6 78 -18.5 118t-91.5 40q-63 0 -102.5 -34t-39.5 -93q0 -28 8.5 -47t24 -32t36.5 -22.5t45 -18.5q33 -12 66.5 -24.5t61.5 -33t45.5 -52t17.5 -80.5q0 -58 -19 -103t-54 -76t-83.5 -47.5t-106.5 -16.5q-233 0 -214 229l95 13q-3 -39 1 -69t18 -50.5t40 -31
t67 -10.5q71 0 113.5 39t42.5 107q0 28 -9.5 47.5t-26 33t-39.5 23.5t-49 18q-35 11 -67.5 24t-57.5 34t-40.5 52.5t-15.5 78.5q0 54 19 95t52.5 69t79.5 42.5t99 14.5q108 0 156.5 -58.5t38.5 -164.5z" />
    <glyph glyph-name="T" unicode="T" horiz-adv-x="509" 
d="M261 656h-195l13 78h484l-13 -78h-194l-104 -656h-95z" />
    <glyph glyph-name="U" unicode="U" horiz-adv-x="643" 
d="M539 734h95l-79 -494q-20 -124 -87 -188t-193 -64q-115 0 -165.5 52.5t-50.5 142.5q0 17 2 34.5t5 35.5l76 481h95l-74 -466q-3 -22 -5 -40.5t-2 -35.5q0 -66 30.5 -95.5t96.5 -29.5q40 0 70 10.5t51.5 34t36 60t22.5 89.5z" />
    <glyph glyph-name="V" unicode="V" horiz-adv-x="579" 
d="M257 88l289 646h97l-341 -734h-122l-111 734h96l88 -646h4z" />
    <glyph glyph-name="W" unicode="W" horiz-adv-x="852" 
d="M508 0l-37 594h-4l-220 -594h-127l-42 734h95l23 -643h4l240 643h102l41 -643h4l225 643h94l-274 -734h-124z" />
    <glyph glyph-name="X" unicode="X" horiz-adv-x="560" 
d="M-43 0l270 385l-146 349h101l111 -284h1l197 284h105l-253 -354l158 -380h-101l-125 307h-1l-210 -307h-107z" />
    <glyph glyph-name="Y" unicode="Y" horiz-adv-x="532" 
d="M264 0h-94l44 279l-150 455h101l109 -364l224 364h103l-294 -457z" />
    <glyph glyph-name="Z" unicode="Z" horiz-adv-x="495" 
d="M105 734h424l-12 -73l-421 -583h329l-12 -78h-436l11 72l420 584h-315z" />
    <glyph glyph-name="a" unicode="a" horiz-adv-x="503" 
d="M425 1q-29 -7 -55 -7q-41 0 -53.5 19.5t-12.5 51.5q-23 -35 -63.5 -56t-95.5 -21q-36 0 -61 10t-41.5 26.5t-24 38.5t-7.5 47q0 59 28.5 94t74.5 53.5t103 25.5t113 11l6 31q2 14 3 26t1 22q0 48 -23.5 66t-60.5 18q-38 0 -60 -10t-33.5 -27t-14.5 -40t-2 -49l-81 -7
q-4 44 5.5 81t34.5 64t64.5 42t95.5 15q46 0 77 -12t50 -32.5t26.5 -48t7.5 -58.5q0 -16 -2.5 -38t-5.5 -42l-32 -201q-3 -19 1 -29t21 -10q9 0 23 3zM321 232q-41 -2 -80 -6.5t-70 -16t-50 -33t-19 -57.5q0 -32 18 -49t59 -17q24 0 46 9t39.5 25t29.5 37.5t17 46.5z" />
    <glyph glyph-name="b" unicode="b" horiz-adv-x="524" 
d="M175 452h3q20 27 59.5 50.5t93.5 23.5q73 0 111 -49.5t38 -137.5q0 -58 -12.5 -120t-41.5 -113.5t-75.5 -84.5t-113.5 -33q-45 0 -78 18t-50 49h-4l-24 -55h-66l116 734h88zM131 168q0 -60 26 -86t72 -26t77 31.5t49 76t25.5 91.5t7.5 78q0 68 -24.5 96t-65.5 28
q-34 0 -59.5 -14.5t-44 -38t-30.5 -54.5t-19.5 -63t-10.5 -63t-3 -56z" />
    <glyph glyph-name="c" unicode="c" horiz-adv-x="478" 
d="M372 333q7 55 -11 88.5t-72 33.5q-48 0 -81 -26.5t-53.5 -67t-29 -89t-8.5 -91.5q0 -66 24 -94.5t75 -28.5q53 0 83 32.5t44 83.5l79 -6q-19 -95 -76 -137.5t-137 -42.5q-94 0 -138.5 50.5t-44.5 144.5q0 61 15 122.5t47.5 110.5t83.5 79.5t123 30.5q43 0 73.5 -11.5
t50 -32t28 -48t8.5 -59.5q0 -8 -0.5 -17.5t-1.5 -18.5z" />
    <glyph glyph-name="d" unicode="d" horiz-adv-x="522" 
d="M373 334q0 26 -4 48.5t-14.5 39t-28.5 26t-46 9.5q-49 0 -80.5 -30.5t-50 -73.5t-25.5 -91t-7 -82q0 -66 21.5 -95.5t68.5 -29.5q49 0 81 29t51 72t26.5 91.5t7.5 86.5zM183 -12q-76 0 -117.5 46t-41.5 146q0 60 13.5 121.5t43.5 111.5t76.5 81.5t112.5 31.5q48 0 77 -20
t44 -48h3l43 276h88l-116 -734h-73v67h-4q-25 -36 -64 -57.5t-85 -21.5z" />
    <glyph glyph-name="e" unicode="e" horiz-adv-x="492" 
d="M421 165q-13 -54 -35.5 -88t-51.5 -54t-61.5 -27.5t-65.5 -7.5q-95 0 -138 54t-43 148q0 58 14 117.5t45 108t80.5 79.5t120.5 31q81 0 122.5 -44t41.5 -126q0 -53 -16 -117h-314q-2 -16 -3.5 -31.5t-1.5 -28.5q0 -24 4.5 -46t16 -38.5t30.5 -26t48 -9.5q47 0 79 26.5
t49 86.5zM360 302q6 30 6 61q0 19 -4 36.5t-13.5 30.5t-26.5 20.5t-43 7.5q-33 0 -58 -13t-43.5 -34.5t-30 -50t-17.5 -58.5h230z" />
    <glyph glyph-name="f" unicode="f" horiz-adv-x="297" 
d="M51 514h61l12 77q5 33 17.5 61.5t32.5 49.5t49.5 32.5t68.5 11.5q30 0 54 -5.5t36 -9.5l-19 -66q-14 5 -30 8t-35 3q-41 0 -60 -23.5t-28 -80.5l-9 -58h116l-10 -69h-117l-70 -445h-89l70 445h-61z" />
    <glyph glyph-name="g" unicode="g" horiz-adv-x="522" 
d="M177 3q-74 0 -112 48.5t-38 142.5q0 59 13.5 118.5t43 107t75 77t109.5 29.5q45 0 76.5 -18t48.5 -50h4l18 56h75l-77 -491q-18 -113 -76 -165.5t-163 -52.5q-35 0 -65.5 6.5t-53.5 22t-37.5 40.5t-16.5 63l84 18q2 -17 7 -32t15.5 -25.5t27.5 -16.5t43 -6q62 0 98 33
t48 114l8 54h-3q-20 -29 -58 -51t-94 -22zM374 336q0 66 -26 93.5t-71 27.5q-46 0 -76.5 -27t-48.5 -66.5t-25.5 -85.5t-7.5 -84q0 -68 24.5 -95.5t65.5 -27.5q49 0 81 28t51 69t26 87t7 81z" />
    <glyph glyph-name="h" unicode="h" horiz-adv-x="525" 
d="M178 448q10 13 23.5 27t32 25t43 18.5t55.5 7.5q48 0 76.5 -16t42.5 -43.5t16 -65.5t-4 -82l-49 -319h-89l49 315q4 26 4.5 51t-6.5 44.5t-23.5 31.5t-47.5 12q-36 0 -62.5 -15t-45 -39t-29.5 -54t-16 -60l-44 -286h-89l116 734h89l-46 -286h4z" />
    <glyph glyph-name="i" unicode="i" horiz-adv-x="218" 
d="M95 514h89l-80 -514h-90zM130 734h90l-18 -107h-89z" />
    <glyph glyph-name="j" unicode="j" horiz-adv-x="218" 
d="M133 734h89l-18 -107h-89zM-122 -115q13 -4 26.5 -7t29.5 -3q34 0 52 21.5t27 83.5l84 534h89l-85 -538q-14 -92 -51.5 -131.5t-107.5 -39.5q-27 0 -49 4.5t-34 9.5z" />
    <glyph glyph-name="k" unicode="k" horiz-adv-x="477" 
d="M152 304l225 210h104l-194 -181l131 -333h-96l-104 269l-85 -78l-29 -191h-89l116 734h89z" />
    <glyph glyph-name="l" unicode="l" horiz-adv-x="217" 
d="M103 0h-89l116 734h89z" />
    <glyph glyph-name="m" unicode="m" horiz-adv-x="800" 
d="M307 0l50 315q2 14 3.5 29.5t1.5 29.5q0 34 -14.5 57t-55.5 23q-32 0 -57 -15t-42.5 -39t-28.5 -53.5t-15 -59.5l-45 -287h-89l80 514h79l-5 -70h4q10 14 23.5 28.5t32 26.5t41.5 19.5t52 7.5q59 0 88 -28.5t37 -71.5q26 45 67.5 72.5t99.5 27.5q35 0 59.5 -10.5
t39.5 -28.5t22 -43.5t7 -55.5q0 -32 -6 -72l-48 -316h-89l49 315q2 15 3.5 30t1.5 29q0 34 -14 57t-55 23q-32 0 -57 -15t-42.5 -38.5t-28.5 -53t-15 -59.5l-45 -288h-89z" />
    <glyph glyph-name="n" unicode="n" horiz-adv-x="525" 
d="M173 443q10 14 23.5 29t33 27t44.5 19.5t57 7.5q38 0 64 -10.5t42.5 -29.5t24 -45.5t7.5 -57.5q0 -14 -2 -31.5t-4 -34.5l-49 -317h-89l49 315q5 28 5 53q0 18 -3.5 33.5t-12.5 27t-24 18.5t-38 7q-36 0 -62.5 -15t-45 -38.5t-29.5 -53.5t-16 -60l-44 -287h-89l80 514h79
l-5 -71h4z" />
    <glyph glyph-name="o" unicode="o" horiz-adv-x="515" 
d="M213 58q50 0 82.5 29.5t51 72.5t26 91.5t7.5 86.5q0 25 -4.5 46.5t-16 37t-30 24.5t-46.5 9q-51 0 -83 -28.5t-51 -71t-26 -91.5t-7 -89q0 -25 4.5 -46.5t16 -37t30 -24.5t46.5 -9zM204 -12q-92 0 -135.5 49.5t-43.5 137.5q0 68 15 131.5t47 112t82.5 78t122.5 29.5
q92 0 135.5 -49.5t43.5 -137.5q0 -68 -15 -131.5t-47 -112.5t-82.5 -78t-122.5 -29z" />
    <glyph glyph-name="p" unicode="p" horiz-adv-x="524" 
d="M74 -183h-88l109 697h78l-4 -67h4q26 37 64.5 58t86.5 21q75 0 115.5 -46t40.5 -149q0 -59 -13.5 -120t-43 -110.5t-76 -81t-112.5 -31.5q-47 0 -78 20t-44 47h-3zM131 179q0 -25 4 -47t15 -39t29 -27t47 -10q48 0 79.5 30t49.5 73.5t25.5 91.5t7.5 84q0 66 -22 95
t-70 29q-33 0 -57.5 -14t-43 -36.5t-31 -52t-20 -60.5t-10.5 -61.5t-3 -55.5z" />
    <glyph glyph-name="q" unicode="q" horiz-adv-x="522" 
d="M291 -183l38 244h-3q-20 -27 -59 -50t-93 -23q-75 0 -112.5 49t-37.5 133q0 60 13 123t42 114.5t75 85t113 33.5q88 0 125 -68h4l19 56h74l-109 -697h-89zM206 56q50 0 82.5 31t51 75t26 92.5t7.5 83.5q0 65 -26 92t-69 27q-47 0 -78.5 -30.5t-50 -74.5t-26 -92.5
t-7.5 -83.5q0 -65 24 -92.5t66 -27.5z" />
    <glyph glyph-name="r" unicode="r" horiz-adv-x="414" 
d="M316 526q45 0 71 -22.5t26 -73.5q0 -17 -3 -37.5t-11 -44.5l-83 -5q11 44 11 66q0 26 -12 35.5t-35 9.5q-32 0 -55 -18t-39.5 -46.5t-26.5 -64t-16 -70.5l-39 -255h-89l80 514h80l-6 -71h4q20 33 55.5 58t87.5 25z" />
    <glyph glyph-name="s" unicode="s" horiz-adv-x="444" 
d="M331 358q3 49 -14 74.5t-68 25.5q-45 0 -75 -18.5t-30 -60.5q0 -19 7 -32t19 -22t28 -15.5t34 -11.5q25 -8 52 -16t48.5 -22.5t35.5 -39t14 -63.5q0 -43 -16.5 -75t-45 -53t-67 -31t-81.5 -10q-87 0 -130 38.5t-38 121.5l82 12q-1 -25 2 -44.5t13 -32.5t28 -19.5t48 -6.5
q54 0 85 21.5t31 66.5q0 23 -10 37.5t-26 23.5t-36.5 15t-41.5 12q-23 6 -44.5 14.5t-38.5 23t-27.5 37t-10.5 57.5q0 42 16.5 72.5t44 50t63 29t73.5 9.5q84 0 122.5 -40t33.5 -116z" />
    <glyph glyph-name="t" unicode="t" horiz-adv-x="325" 
d="M51 514h62l16 107l94 30l-22 -137h116l-10 -69h-117l-47 -299q-3 -20 -3 -36q0 -26 12 -38.5t44 -12.5q18 0 34.5 3t31.5 8l-1 -67q-14 -5 -38.5 -10t-52.5 -5q-64 0 -92 28t-28 81q0 11 1 23.5t3 24.5l47 300h-61z" />
    <glyph glyph-name="u" unicode="u" horiz-adv-x="513" 
d="M321 70q-10 -14 -24 -28.5t-33 -26.5t-43 -19.5t-54 -7.5q-73 0 -103 37.5t-30 99.5q0 14 1 29t3 29l52 331h89l-49 -316q-6 -32 -6 -59q0 -17 3 -31.5t11.5 -25t22.5 -16.5t36 -6q34 0 59.5 15t44 39t29.5 54t16 60l44 286h89l-80 -514h-80l6 70h-4z" />
    <glyph glyph-name="v" unicode="v" horiz-adv-x="436" 
d="M186 99l182 415h95l-248 -514h-94l-84 514h93l52 -415h4z" />
    <glyph glyph-name="w" unicode="w" horiz-adv-x="731" 
d="M380 416l-175 -416h-96l-69 514h92l40 -413h4l173 413h98l44 -413h4l168 413h92l-231 -514h-96l-44 416h-4z" />
    <glyph glyph-name="x" unicode="x" horiz-adv-x="466" 
d="M-37 0l204 270l-117 244h96l81 -187h2l139 187h97l-194 -252l130 -262h-97l-93 200h-2l-147 -200h-99z" />
    <glyph glyph-name="y" unicode="y" horiz-adv-x="431" 
d="M206 -6q-24 -48 -44 -84t-42 -59t-49 -34.5t-65 -11.5q-21 0 -41 4t-31 8l20 64q13 -4 23 -6.5t27 -2.5q38 0 62 29.5t47 82.5l9 20l-85 510h94l50 -405h4l179 405h93z" />
    <glyph glyph-name="z" unicode="z" horiz-adv-x="414" 
d="M68 514h351l-10 -65l-318 -379h259l-11 -70h-363l10 64l317 380h-246z" />
    <glyph glyph-name="bracketleft" unicode="[" horiz-adv-x="293" 
d="M190 -132h-193l145 915h191l-10 -63l-103 -3l-124 -783l103 -3z" />
    <glyph glyph-name="bracketright" unicode="]" horiz-adv-x="293" 
d="M102.012 782.992h192.988l-144.991 -914.944h-190.988l9.99902 62.9961l102.994 3l123.992 782.952l-102.994 3z" />
    <glyph glyph-name="parenleft" unicode="(" horiz-adv-x="304" 
d="M336 772q-45 -65 -81 -131t-61.5 -137.5t-39.5 -148.5t-14 -162q0 -86 14 -162t40 -148l-57 -22q-45 82 -68 168t-23 181q0 91 16 168.5t46 147t73.5 134.5t97.5 130z" />
    <glyph glyph-name="parenright" unicode=")" horiz-adv-x="304" 
d="M-37 -120q92 138 144 281.5t52 304.5q0 81 -14.5 155.5t-40.5 147.5l56 21q45 -81 68.5 -168t23.5 -184q0 -87 -17.5 -165.5t-48 -150.5t-73.5 -137t-94 -125z" />
    <glyph glyph-name="braceleft" unicode="{" horiz-adv-x="354" 
d="M176 629q7 43 20 71.5t35 46t55.5 25.5t80.5 10l1 -40q-51 -12 -72 -29.5t-27 -52.5l-32 -198q-4 -26 -10.5 -48t-18.5 -39.5t-32.5 -31t-52.5 -21.5v-2q28 -5 44.5 -15t24 -26t7.5 -37t-4 -48l-31 -204q-3 -17 -1.5 -29t9.5 -21.5t23.5 -17t41.5 -14.5l-13 -37
q-39 1 -69 7.5t-49.5 22t-27 41.5t-1.5 65l31 195q3 16 0.5 32.5t-11 29t-25 21t-41.5 8.5l8 50q52 7 76 34t31 65z" />
    <glyph glyph-name="braceright" unicode="}" horiz-adv-x="354" 
d="M178 24q-7 -43 -20 -71.5t-35 -46t-55.5 -25.5t-80.5 -10l-1 40q51 12 72 29.5t27 52.5l32 198q4 26 10.5 48t18.5 39.5t32.5 31t52.5 21.5v2q-28 5 -44.5 15t-24 26t-7.5 37t4 48l31 204q3 17 1.5 29t-9.5 21.5t-23.5 17t-41.5 14.5l13 37q39 -1 69 -7.5t49.5 -22
t27 -41.5t1.5 -65l-31 -195q-3 -16 -0.5 -32.5t11 -29t25 -21t41.5 -8.5l-8 -50q-52 -7 -76 -34t-31 -65z" />
    <glyph glyph-name="backslash" unicode="\" horiz-adv-x="308" 
d="M250 -81l-75 -13l-99 857l76 12z" />
    <glyph glyph-name="slash" unicode="/" horiz-adv-x="353" 
d="M372 778l67 -30l-464 -849l-66 32z" />
    <glyph glyph-name="brokenbar" unicode="&#xa6;" horiz-adv-x="242" 
d="M63 205h80l-71 -445h-80zM231 760l-71 -445h-80l71 445h80z" />
    <glyph glyph-name="bar" unicode="|" horiz-adv-x="242" 
d="M231 760l-159 -1000h-80l159 1000h80z" />
    <glyph glyph-name="asciicircum" unicode="^" horiz-adv-x="454" 
d="M338 755l95 -371l-70 -25l-73 293h-2l-179 -293l-68 24l230 372h67z" />
    <glyph glyph-name="underscore" unicode="_" horiz-adv-x="416" 
d="M358 -53l-12 -69h-415l11 69h416z" />
    <glyph glyph-name="asciitilde" unicode="~" 
d="M44 246q21 45 53.5 72t72.5 27q22 0 44.5 -7.5t43.5 -17.5q19 -8 37.5 -15.5t34.5 -7.5q23 0 41 16t31 38l44 -26q-21 -41 -52.5 -68.5t-69.5 -27.5q-13 0 -36 6t-55 20q-26 11 -42 16.5t-29 5.5q-23 0 -41 -16t-34 -43z" />
    <glyph glyph-name="uni00A0" unicode="&#xa0;" horiz-adv-x="181" 
 />
    <glyph glyph-name="zero" unicode="0" horiz-adv-x="596" 
d="M242 -12q-104 0 -150.5 60.5t-46.5 176.5q0 33 3 70t10 77q13 76 37 144.5t62.5 119.5t92 81t124.5 30q102 0 147.5 -61t45.5 -176q0 -66 -12 -145q-12 -77 -35.5 -145.5t-61 -120t-91 -81.5t-125.5 -30zM254 64q45 0 79 24t59 65.5t41.5 97t26.5 117.5q7 40 10 75t3 65
q0 78 -24.5 120t-86.5 42q-45 0 -79.5 -24t-60 -65t-42.5 -95t-27 -115q-14 -82 -14 -144q0 -77 25 -120t90 -43z" />
    <glyph glyph-name="one" unicode="1" horiz-adv-x="332" 
d="M68 637q40 15 85.5 40t88.5 57h64l-116 -734h-93l98 616q-17 -13 -51 -29t-69 -29z" />
    <glyph glyph-name="two" unicode="2" horiz-adv-x="497" 
d="M405 78l-12 -78h-384q2 26 6 50t11 47q12 40 34 74t50 64.5t59.5 58t63.5 53.5q32 27 62 53.5t53 55t36.5 59.5t13.5 67q0 48 -24.5 67.5t-64.5 19.5q-37 0 -62 -13.5t-40 -36.5t-22 -54.5t-7 -67.5l-88 -6q-3 52 9.5 99t41 81.5t73.5 55t107 20.5q46 0 78.5 -11.5
t53.5 -32.5t30.5 -50t9.5 -63q0 -47 -16 -87t-42.5 -75t-60 -65.5t-68.5 -59.5q-33 -27 -64.5 -53.5t-57.5 -53.5t-43.5 -56t-22.5 -62h287z" />
    <glyph glyph-name="three" unicode="3" horiz-adv-x="516" 
d="M336 385q61 -13 89 -52.5t28 -96.5q0 -60 -18.5 -106t-51.5 -77.5t-78 -48t-99 -16.5q-53 0 -88.5 13t-57 36t-31 55.5t-9.5 71.5q0 25 3 52l91 6q-1 -13 -1.5 -24.5t-0.5 -21.5q0 -55 22 -83t79 -28q34 0 61.5 13t46 36.5t28.5 54.5t10 67q0 61 -40 85t-116 21l4 74
q40 0 76 9t62.5 28.5t42 51t15.5 76.5q0 44 -25 66t-71 22q-68 0 -99 -42.5t-33 -127.5l-88 -6q-2 51 10.5 97.5t41 81t72.5 55t106 20.5q92 0 136.5 -42.5t44.5 -116.5q0 -41 -12.5 -75t-34.5 -59.5t-51.5 -42.5t-63.5 -26z" />
    <glyph glyph-name="four" unicode="4" horiz-adv-x="515" 
d="M301 238l58 365h-4l-250 -365h196zM392 238h86l-13 -79h-86l-24 -159h-91l24 159h-290l10 63l356 512h107z" />
    <glyph glyph-name="five" unicode="5" horiz-adv-x="522" 
d="M276 406q-43 0 -78 -22t-58 -54l-70 7l87 397h353l-13 -78h-276l-57 -234q26 26 63.5 43.5t83.5 17.5q69 0 112.5 -45t43.5 -145q0 -61 -16 -116t-48 -97t-80.5 -67t-113.5 -25q-52 0 -87 14t-56 39t-29.5 59.5t-8.5 74.5q0 9 0.5 19t1.5 21l90 7q-1 -10 -1.5 -19
t-0.5 -17q0 -64 22 -92.5t73 -28.5q44 0 74.5 21.5t49 54t27 71.5t8.5 74q0 68 -27 94t-69 26z" />
    <glyph glyph-name="six" unicode="6" horiz-adv-x="550" 
d="M366 670q-38 0 -68 -16.5t-54 -51t-44 -88.5t-36 -129q36 41 81.5 57t85.5 16q75 0 118.5 -46t43.5 -140q0 -53 -15.5 -104t-47.5 -91t-80 -64.5t-114 -24.5q-97 0 -140.5 54.5t-43.5 162.5q0 26 2.5 56.5t7.5 64.5q32 211 108 316t207 105q42 0 71.5 -11t47.5 -30
t26.5 -45.5t8.5 -56.5q0 -34 -9 -68l-88 -7q8 38 8 62q0 39 -18 59t-58 20zM296 387q-39 0 -69 -15.5t-49.5 -42t-29.5 -63t-10 -78.5q0 -25 5 -47.5t17 -39.5t33 -27t53 -10q40 0 69.5 18.5t48 48t27.5 66.5t9 75q0 60 -26 87.5t-78 27.5z" />
    <glyph glyph-name="seven" unicode="7" horiz-adv-x="436" 
d="M70 0q17 101 45.5 190.5t68 170.5t88.5 154t106 141h-295l13 78h392l-10 -60q-70 -81 -120.5 -161.5t-86.5 -163t-60.5 -169.5t-42.5 -180h-98z" />
    <glyph glyph-name="eight" unicode="8" horiz-adv-x="558" 
d="M228 -12q-59 0 -98 15t-62 40t-33 58t-10 69q0 84 45.5 144.5t118.5 86.5q-42 16 -60.5 51.5t-18.5 79.5q0 51 18.5 91t51 67.5t75.5 42t92 14.5q50 0 84 -12t55 -33t30 -49.5t9 -60.5q0 -69 -37 -118t-99 -74q57 -20 82 -60t25 -96q0 -58 -19.5 -105.5t-54.5 -81
t-84.5 -51.5t-109.5 -18zM235 65q39 0 70.5 13.5t53.5 38t33.5 58.5t11.5 76q0 48 -26.5 80t-90.5 32q-38 0 -69 -14t-53 -39t-34 -59t-12 -74q0 -21 5 -41.5t18 -36t35.5 -25t57.5 -9.5zM296 434q33 0 58 12.5t42.5 33.5t26 49t8.5 60q0 37 -21 60.5t-74 23.5
q-33 0 -58 -11.5t-42 -31.5t-25.5 -46.5t-8.5 -57.5q0 -19 4.5 -36t15 -29.5t28.5 -19.5t46 -7z" />
    <glyph glyph-name="nine" unicode="9" horiz-adv-x="550" 
d="M276 348q39 0 68.5 17t49 44.5t29.5 61.5t10 69q0 27 -5 51t-18 41.5t-34 27.5t-52 10q-40 0 -69 -18t-48 -46.5t-28 -65t-9 -72.5q0 -63 26 -91.5t80 -28.5zM211 65q73 0 118 67.5t77 216.5q-35 -40 -80.5 -56t-88.5 -16q-75 0 -117.5 46.5t-42.5 137.5q0 57 16 108.5
t48 91t80 63t112 23.5q95 0 140 -52.5t45 -164.5q0 -26 -2.5 -56.5t-7.5 -64.5q-29 -209 -102 -315t-206 -106q-45 0 -76.5 12t-52 33.5t-29.5 50.5t-9 64q0 12 1.5 24.5t3.5 26.5l87 7q-1 -11 -1.5 -22t-0.5 -20q0 -54 21 -76.5t67 -22.5z" />
    <glyph glyph-name="dollar" unicode="$" horiz-adv-x="546" 
d="M393 787l-10 -63q82 -11 118 -66.5t27 -150.5l-92 -13q5 63 -9.5 100.5t-56.5 48.5l-37 -234q32 -11 60 -24.5t49 -33t33.5 -46.5t12.5 -65q0 -55 -17.5 -95.5t-47 -69t-69.5 -44.5t-85 -21l-11 -74h-83l11 73q-91 9 -131.5 63t-30.5 161l94 13q-3 -34 -1 -61t10.5 -47
t25.5 -32.5t46 -17.5l40 257q-32 11 -59.5 24t-47.5 32t-31.5 45.5t-11.5 64.5q0 50 16.5 88t45.5 64t67 41.5t82 20.5l10 62h83zM389 222q0 38 -19 60t-52 36l-36 -228q49 10 78 42.5t29 89.5zM187 529q0 -37 17 -57.5t50 -34.5l33 208q-45 -8 -72.5 -35.5t-27.5 -80.5z
" />
    <glyph glyph-name="Euro" unicode="&#x20ac;" horiz-adv-x="557" 
d="M-10 254l22 69h55l6 35q2 11 3.5 21t3.5 21h-48l22 69h42q17 59 43.5 110t62.5 88.5t83.5 58.5t106.5 21q87 0 129 -49t42 -131q0 -31 -6 -65l-86 -8q2 17 3.5 32t1.5 28q0 64 -25 88.5t-70 24.5q-37 0 -67 -15t-53.5 -41t-41 -62.5t-29.5 -79.5h200l-23 -69h-194l-6 -40
q-2 -10 -3 -19l-2 -18h186l-23 -69h-169v-25q0 -81 25 -121.5t87 -40.5q66 0 103 44.5t56 114.5l84 -9q-14 -61 -37.5 -104.5t-55.5 -71t-72.5 -40.5t-87.5 -13q-196 0 -196 236v30h-72z" />
    <glyph glyph-name="cent" unicode="&#xa2;" horiz-adv-x="480" 
d="M362 696l-13 -81q77 -14 103.5 -61t19.5 -123l-81 -5q5 42 -6 74.5t-47 43.5l-62 -388q32 11 53 40t32 71l79 -7q-17 -83 -64.5 -126t-111.5 -52l-13 -82h-83l13 84q-70 12 -103 61.5t-33 130.5q0 58 12.5 114t39 102t68.5 78t101 44l13 82h83zM136 276q0 -51 13 -79.5
t44 -39.5l60 380q-36 -18 -59 -49.5t-35.5 -68t-17.5 -74.5t-5 -69z" />
    <glyph glyph-name="sterling" unicode="&#xa3;" horiz-adv-x="484" 
d="M37 401h77q-11 24 -19.5 52t-8.5 66q0 55 19 97.5t51.5 71.5t76 44t92.5 15q82 0 127.5 -40.5t45.5 -113.5q0 -42 -17 -98l-85 6q8 26 11 47t3 38q0 47 -24 65.5t-69 18.5q-27 0 -52 -8.5t-44 -26t-30.5 -45t-11.5 -65.5q0 -41 10.5 -69.5t22.5 -54.5h183l-11 -72h-146
q3 -18 3 -37q0 -56 -32.5 -105.5t-98.5 -108.5h302l-12 -78h-399l12 77q67 59 103 107t36 97q0 13 -2 25t-5 23h-118z" />
    <glyph glyph-name="yen" unicode="&#xa5;" horiz-adv-x="506" 
d="M71 197l11 71h117l10 68h-116l11 70h84l-122 328h101l102 -310l200 310h103l-227 -328h78l-11 -70h-108l-11 -68h108l-11 -71h-108l-31 -197h-94l31 197h-117z" />
    <glyph glyph-name="florin" unicode="&#x192;" horiz-adv-x="407" 
d="M77 456h97l39 117q14 42 32 74.5t42 54t56 33t74 11.5q26 0 48.5 -5.5t33.5 -10.5l-28 -64q-14 5 -28.5 7.5t-31.5 2.5q-43 0 -67.5 -28t-41.5 -81l-37 -111h122l-24 -72h-122l-121 -361q-13 -38 -30 -68.5t-40.5 -51.5t-54.5 -32t-73 -11q-28 0 -50.5 5t-33.5 10l29 66
q14 -5 28.5 -8t32.5 -3q40 0 64 26t41 77l117 351h-97z" />
    <glyph glyph-name="zero.tf" horiz-adv-x="550" 
d="M217 -12q-94 0 -140 60t-46 178q0 32 3.5 68t9.5 75q12 81 36.5 150t62 119.5t88.5 79.5t116 29q96 0 139 -59.5t43 -176.5q0 -29 -2.5 -61.5t-7.5 -67.5q-11 -86 -34 -158t-59.5 -124.5t-88 -82t-120.5 -29.5zM228 64q42 0 74 24t55.5 66.5t40 100t26.5 125.5
q12 76 12 132q0 80 -22 119t-78 39q-41 0 -72.5 -23t-56 -63.5t-41.5 -95t-27 -118.5q-7 -44 -10.5 -80.5t-3.5 -66.5q0 -79 22.5 -119t80.5 -40z" />
    <glyph glyph-name="one.tf" horiz-adv-x="550" 
d="M80 78h129l85 538q-9 -6 -25 -14.5t-35.5 -18t-41 -18.5t-40.5 -15l-6 78q48 17 100.5 45.5t95.5 60.5h64l-104 -656h119l-12 -78h-341z" />
    <glyph glyph-name="two.tf" horiz-adv-x="550" 
d="M425 78l-12 -78h-384q2 26 6 50t11 47q12 40 34 74t50 64.5t59.5 58t63.5 53.5q32 27 62 53.5t53 55t36.5 59.5t13.5 67q0 48 -24.5 67.5t-64.5 19.5q-37 0 -62 -13.5t-40 -36.5t-22 -54.5t-7 -67.5l-88 -6q-3 52 9.5 99t41 81.5t73.5 55t107 20.5q46 0 78.5 -11.5
t53.5 -32.5t30.5 -50t9.5 -63q0 -47 -16 -87t-42.5 -75t-60 -65.5t-68.5 -59.5q-33 -27 -64.5 -53.5t-57.5 -53.5t-43.5 -56t-22.5 -62h287z" />
    <glyph glyph-name="three.tf" horiz-adv-x="550" 
d="M352 385q61 -13 89 -52.5t28 -96.5q0 -60 -18.5 -106t-51.5 -77.5t-78 -48t-99 -16.5q-53 0 -88.5 13t-57 36t-31 55.5t-9.5 71.5q0 25 3 52l91 6q-1 -13 -1.5 -24.5t-0.5 -21.5q0 -55 22 -83t79 -28q34 0 61.5 13t46 36.5t28.5 54.5t10 67q0 61 -40 85t-116 21l4 74
q40 0 76 9t62.5 28.5t42 51t15.5 76.5q0 44 -25 66t-71 22q-68 0 -99 -42.5t-33 -127.5l-88 -6q-2 51 10.5 97.5t41 81t72.5 55t106 20.5q92 0 136.5 -42.5t44.5 -116.5q0 -41 -12.5 -75t-34.5 -59.5t-51.5 -42.5t-63.5 -26z" />
    <glyph glyph-name="four.tf" horiz-adv-x="550" 
d="M321 238l58 365h-4l-250 -365h196zM412 238h86l-13 -79h-86l-24 -159h-91l24 159h-290l10 63l356 512h107z" />
    <glyph glyph-name="five.tf" horiz-adv-x="550" 
d="M286 406q-43 0 -78 -22t-58 -54l-70 7l87 397h353l-13 -78h-276l-57 -234q26 26 63.5 43.5t83.5 17.5q69 0 112.5 -45t43.5 -145q0 -61 -16 -116t-48 -97t-80.5 -67t-113.5 -25q-52 0 -87 14t-56 39t-29.5 59.5t-8.5 74.5q0 9 0.5 19t1.5 21l90 7q-1 -10 -1.5 -19
t-0.5 -17q0 -64 22 -92.5t73 -28.5q44 0 74.5 21.5t49 54t27 71.5t8.5 74q0 68 -27 94t-69 26z" />
    <glyph glyph-name="six.tf" horiz-adv-x="550" 
d="M364 670q-38 0 -68 -16.5t-54 -51t-44 -88.5t-36 -129q36 41 81.5 57t85.5 16q75 0 118.5 -46t43.5 -140q0 -53 -15.5 -104t-47.5 -91t-80 -64.5t-114 -24.5q-97 0 -140.5 54.5t-43.5 162.5q0 26 2.5 56.5t7.5 64.5q32 211 108 316t207 105q42 0 71.5 -11t47.5 -30
t26.5 -45.5t8.5 -56.5q0 -34 -9 -68l-88 -7q8 38 8 62q0 39 -18 59t-58 20zM294 387q-39 0 -69 -15.5t-49.5 -42t-29.5 -63t-10 -78.5q0 -25 5 -47.5t17 -39.5t33 -27t53 -10q40 0 69.5 18.5t48 48t27.5 66.5t9 75q0 60 -26 87.5t-78 27.5z" />
    <glyph glyph-name="seven.tf" horiz-adv-x="550" 
d="M117 0q18 100 47 190t69 171t89 154t107 141h-305l13 78h402l-10 -60q-70 -81 -121 -161.5t-87.5 -163t-61.5 -169.5t-43 -180h-99z" />
    <glyph glyph-name="eight.tf" horiz-adv-x="550" 
d="M222 -12q-59 0 -98 15t-62 40t-33 58t-10 69q0 84 45.5 144.5t118.5 86.5q-42 16 -60.5 51.5t-18.5 79.5q0 51 18.5 91t51 67.5t75.5 42t92 14.5q50 0 84 -12t55 -33t30 -49.5t9 -60.5q0 -69 -37 -118t-99 -74q57 -20 82 -60t25 -96q0 -58 -19.5 -105.5t-54.5 -81
t-84.5 -51.5t-109.5 -18zM229 65q39 0 70.5 13.5t53.5 38t33.5 58.5t11.5 76q0 48 -26.5 80t-90.5 32q-38 0 -69 -14t-53 -39t-34 -59t-12 -74q0 -21 5 -41.5t18 -36t35.5 -25t57.5 -9.5zM290 434q33 0 58 12.5t42.5 33.5t26 49t8.5 60q0 37 -21 60.5t-74 23.5
q-33 0 -58 -11.5t-42 -31.5t-25.5 -46.5t-8.5 -57.5q0 -19 4.5 -36t15 -29.5t28.5 -19.5t46 -7z" />
    <glyph glyph-name="nine.tf" horiz-adv-x="550" 
d="M269 348q39 0 68.5 17t49 44.5t29.5 61.5t10 69q0 27 -5 51t-18 41.5t-34 27.5t-52 10q-40 0 -69 -18t-48 -46.5t-28 -65t-9 -72.5q0 -63 26 -91.5t80 -28.5zM204 65q73 0 118 67.5t77 216.5q-35 -40 -80.5 -56t-88.5 -16q-75 0 -117.5 46.5t-42.5 137.5q0 57 16 108.5
t48 91t80 63t112 23.5q95 0 140 -52.5t45 -164.5q0 -26 -2.5 -56.5t-7.5 -64.5q-29 -209 -102 -315t-206 -106q-45 0 -76.5 12t-52 33.5t-29.5 50.5t-9 64q0 12 1.5 24.5t3.5 26.5l87 7q-1 -11 -1.5 -22t-0.5 -20q0 -54 21 -76.5t67 -22.5z" />
    <glyph glyph-name="dollar.tf" horiz-adv-x="550" 
d="M394 787l-10 -63q82 -11 118 -66.5t27 -150.5l-92 -13q5 63 -9.5 100.5t-56.5 48.5l-37 -234q32 -11 60 -24.5t49 -33t33.5 -46.5t12.5 -65q0 -55 -17.5 -95.5t-47 -69t-69.5 -44.5t-85 -21l-11 -74h-83l11 73q-91 9 -131.5 63t-30.5 161l94 13q-3 -34 -1 -61t10.5 -47
t25.5 -32.5t46 -17.5l40 257q-32 11 -59.5 24t-47.5 32t-31.5 45.5t-11.5 64.5q0 50 16.5 88t45.5 64t67 41.5t82 20.5l10 62h83zM390 222q0 38 -19 60t-52 36l-36 -228q49 10 78 42.5t29 89.5zM188 529q0 -37 17 -57.5t50 -34.5l33 208q-45 -8 -72.5 -35.5t-27.5 -80.5z
" />
    <glyph glyph-name="Euro.tf" horiz-adv-x="550" 
d="M-5 254l23 69h54l6 36q2 11 3.5 20.5t3.5 20.5h-48l23 69h41q17 62 43.5 113t62.5 88t82.5 57t103.5 20q85 0 126 -48t41 -129q0 -31 -6 -67l-86 -7q2 18 3.5 33.5t1.5 28.5q0 62 -24 85.5t-67 23.5q-71 0 -116.5 -54t-70.5 -144h196l-23 -69h-189l-12 -77h182l-23 -69
h-165v-28q0 -80 24 -119.5t84 -39.5q64 0 99.5 43.5t55.5 113.5l84 -8q-27 -120 -92 -174t-157 -54q-192 0 -192 236v30h-72z" />
    <glyph glyph-name="cent.tf" horiz-adv-x="550" 
d="M381 694l-13 -81q77 -14 103.5 -61t19.5 -123l-81 -5q5 42 -6 74.5t-47 43.5l-62 -388q32 11 53 40t32 71l79 -7q-17 -83 -64.5 -126t-111.5 -52l-13 -82h-83l13 84q-70 12 -103 61.5t-33 130.5q0 58 12.5 114t39 102t68.5 78t101 44l13 82h83zM155 274q0 -51 13 -79.5
t44 -39.5l60 380q-36 -18 -59 -49.5t-35.5 -68t-17.5 -74.5t-5 -69z" />
    <glyph glyph-name="sterling.tf" horiz-adv-x="550" 
d="M69 401h77q-11 24 -19.5 52t-8.5 66q0 55 19 97.5t51.5 71.5t76 44t92.5 15q82 0 127.5 -40.5t45.5 -113.5q0 -42 -17 -98l-85 6q8 26 11 47t3 38q0 47 -24 65.5t-69 18.5q-27 0 -52 -8.5t-44 -26t-30.5 -45t-11.5 -65.5q0 -41 10.5 -69.5t22.5 -54.5h183l-11 -72h-146
q3 -18 3 -37q0 -56 -32.5 -105.5t-98.5 -108.5h302l-12 -78h-399l12 77q67 59 103 107t36 97q0 13 -2 25t-5 23h-118z" />
    <glyph glyph-name="yen.tf" horiz-adv-x="550" 
d="M90 197l11 70h117l11 70h-117l11 69h84l-122 328h103l100 -310l202 310h101l-227 -328h78l-11 -69h-108l-11 -70h109l-12 -70h-108l-31 -197h-94l31 197h-117z" />
    <glyph glyph-name="florin.tf" horiz-adv-x="550" 
d="M143 456h97l39 117q14 42 32 74.5t42 54t56 33t74 11.5q26 0 48.5 -5.5t33.5 -10.5l-28 -64q-14 5 -28.5 7.5t-31.5 2.5q-43 0 -67.5 -28t-41.5 -81l-37 -111h122l-24 -72h-122l-121 -361q-13 -38 -30 -68.5t-40.5 -51.5t-54.5 -32t-73 -11q-28 0 -50.5 5t-33.5 10l29 66
q14 -5 28.5 -8t32.5 -3q40 0 64 26t41 77l117 351h-97z" />
    <glyph glyph-name="zero.slash" horiz-adv-x="550" 
d="M217 -12q-94 0 -140 60t-46 178q0 32 3.5 68t9.5 75q12 81 36.5 150t62 119.5t88.5 79.5t116 29q96 0 139 -59.5t43 -176.5q0 -29 -2.5 -61.5t-7.5 -67.5q-11 -86 -34 -158t-59.5 -124.5t-88 -82t-120.5 -29.5zM228 64q38 0 68 20t53 56t39.5 85t27.5 108h-283
q-4 -32 -6 -59.5t-2 -50.5q0 -79 22.5 -119t80.5 -40zM336 670q-38 0 -68 -19.5t-53 -54.5t-40 -83t-29 -104h282q4 29 6 54.5t2 48.5q0 80 -22 119t-78 39z" />
    <glyph glyph-name="perthousand.tf" horiz-adv-x="550" 
d="M357 -10q-52 0 -77.5 29.5t-25.5 80.5q0 36 8.5 71t27 63t47 45t69.5 17q51 0 76 -29t25 -80q0 -35 -8 -70.5t-26 -63.5t-46.5 -45.5t-69.5 -17.5zM364 41q23 0 38.5 14.5t24.5 36t13 47t4 46.5q0 60 -46 60q-24 0 -40 -15t-25 -36.5t-12.5 -46.5t-3.5 -45q0 -61 47 -61z
M89 -10q-52 0 -77.5 29.5t-25.5 80.5q0 36 8.5 71t27 63t47 45t69.5 17q51 0 76 -29t25 -80q0 -35 -8 -70.5t-26 -63.5t-46.5 -45.5t-69.5 -17.5zM96 41q23 0 38.5 14.5t24.5 36t13 47t4 46.5q0 60 -46 60q-24 0 -40 -15t-25 -36.5t-12.5 -46.5t-3.5 -45q0 -61 47 -61z
M531 392l-9 -56h-496l9 56h496zM159 432q-52 0 -77.5 29.5t-25.5 80.5q0 36 8.5 71t27 63t47 45t69.5 17q51 0 76 -29t25 -80q0 -35 -8 -70.5t-26 -63.5t-46.5 -45.5t-69.5 -17.5zM166 483q23 0 38.5 14.5t24.5 36t13 47t4 46.5q0 60 -46 60q-24 0 -40 -15t-25 -36.5
t-12.5 -46.5t-3.5 -45q0 -61 47 -61z" />
    <glyph glyph-name="percent.tf" horiz-adv-x="550" 
d="M494 392l-9 -56h-422l9 56h422zM219 -10q-52 0 -77.5 29.5t-25.5 80.5q0 36 8.5 71t27 63t47 45t69.5 17q51 0 76 -29t25 -80q0 -35 -8 -70.5t-26 -63.5t-46.5 -45.5t-69.5 -17.5zM226 41q23 0 38.5 14.5t24.5 36t13 47t4 46.5q0 60 -46 60q-24 0 -40 -15t-25 -36.5
t-12.5 -46.5t-3.5 -45q0 -61 47 -61zM289 432q-52 0 -77.5 29.5t-25.5 80.5q0 36 8.5 71t27 63t47 45t69.5 17q51 0 76 -29t25 -80q0 -35 -8 -70.5t-26 -63.5t-46.5 -45.5t-69.5 -17.5zM296 483q23 0 38.5 14.5t24.5 36t13 47t4 46.5q0 60 -46 60q-24 0 -40 -15t-25 -36.5
t-12.5 -46.5t-3.5 -45q0 -61 47 -61z" />
    <glyph glyph-name="section" unicode="&#xa7;" horiz-adv-x="595" 
d="M234 384q-36 -20 -63.5 -48t-27.5 -69q0 -30 18.5 -46.5t48 -27.5t65.5 -19.5t71 -22.5q15 9 31.5 20.5t29.5 26t21.5 33t8.5 40.5q0 28 -19 44t-48 26.5t-65.5 19.5t-70.5 23zM176 421q-21 19 -35 47t-14 60q0 54 21.5 93t56 64t79 37t90.5 12q47 0 84.5 -11.5t62.5 -35
t37 -58t8 -79.5l-90 -11q3 57 -22 89t-92 32q-24 0 -48 -6t-43.5 -19.5t-31.5 -35t-12 -51.5q0 -39 22.5 -60.5t56.5 -35t74 -23.5t74 -25t56.5 -40.5t22.5 -69.5q0 -30 -10.5 -56.5t-28 -49t-40 -41t-47.5 -32.5q23 -20 35.5 -44.5t12.5 -57.5q0 -54 -20.5 -94t-55 -66
t-79.5 -38.5t-94 -12.5q-97 0 -150 46t-47 136l91 12q-3 -57 23 -87.5t92 -30.5q27 0 52.5 6.5t45 20.5t31.5 36t12 53q0 38 -23 58.5t-57 33t-74.5 22t-74.5 25t-57 41.5t-23 72q0 59 33.5 99.5t95.5 75.5z" />
    <glyph glyph-name="copyright" unicode="&#xa9;" horiz-adv-x="763" 
d="M719 335q0 -81 -24 -146t-68 -111.5t-105.5 -71.5t-135.5 -25q-84 0 -146 26t-103.5 71.5t-62 107t-20.5 133.5q0 83 26 148.5t71 111t106 69.5t131 24q77 0 138.5 -24t104 -68t65.5 -106.5t23 -138.5zM388 42q62 0 111 20t82.5 57.5t51.5 90.5t18 120q0 68 -19 120.5
t-54 88t-83.5 54t-106.5 18.5t-106.5 -19.5t-83.5 -57t-54.5 -91.5t-19.5 -123q0 -65 17.5 -116.5t51.5 -87.5t83 -55t112 -19zM538 265q-6 -40 -21 -66.5t-35.5 -42t-44.5 -22t-48 -6.5q-44 0 -76 15t-52.5 42t-30 63.5t-9.5 79.5q0 44 11.5 81t33.5 64t54 42t73 15
q27 0 52 -7.5t44 -24t31 -42t14 -62.5l-57 -9q-5 45 -24 67.5t-60 22.5q-46 0 -76 -34t-30 -114q0 -29 5.5 -55t18 -45.5t32 -31t46.5 -11.5q46 0 66.5 24.5t28.5 66.5z" />
    <glyph glyph-name="registered" unicode="&#xae;" horiz-adv-x="432" 
d="M434 553q0 -42 -13.5 -76.5t-37.5 -59.5t-57.5 -38.5t-73.5 -13.5q-46 0 -80 14t-56.5 38t-34 57t-11.5 72q0 43 14 78t39 59.5t58 37.5t71 13q85 0 133.5 -49.5t48.5 -131.5zM390 550q0 71 -38.5 107t-99.5 36q-59 0 -98 -38t-39 -108q0 -66 36 -103.5t101 -37.5
q66 0 102 38.5t36 105.5zM338 457h-41l-42 75h-26v-75h-38v191h69q38 0 50.5 -16.5t12.5 -37.5q0 -38 -33 -51zM242 562q18 0 30 5t12 25q0 16 -9.5 20.5t-26.5 4.5h-19v-55h13z" />
    <glyph glyph-name="trademark" unicode="&#x2122;" horiz-adv-x="760" 
d="M167 681h-105v53h275v-53h-105v-331h-65v331zM541 350l-100 310v-310h-57v384h88l97 -315l98 315h85v-384h-58v310l-98 -310h-55z" />
    <glyph glyph-name="ordfeminine" unicode="&#xaa;" horiz-adv-x="343" 
d="M338 419q-28 -5 -44 -5q-26 0 -36.5 11.5t-11.5 31.5q-16 -21 -42 -33.5t-63 -12.5q-50 0 -68.5 23t-18.5 54q0 33 16 54.5t44 34.5t65.5 20t80.5 10l3 16q1 6 1.5 11.5t0.5 10.5q0 27 -13 37t-35 10q-35 0 -47.5 -18.5t-12.5 -45.5l-68 -6q-1 27 6.5 49.5t24.5 39.5
t44 26.5t64 9.5q32 0 53 -7.5t33.5 -20.5t17.5 -31t5 -38q0 -11 -1 -23.5t-3 -23.5l-18 -116q-2 -11 1 -17t14 -6q3 0 6 0.5t8 1.5zM253 562q-70 -4 -96.5 -19.5t-26.5 -43.5q0 -17 9.5 -27.5t32.5 -10.5q27 0 49.5 17.5t26.5 45.5z" />
    <glyph glyph-name="ordmasculine" unicode="&#xba;" horiz-adv-x="360" 
d="M192 411q-61 0 -91.5 31.5t-30.5 88.5q0 43 10.5 82.5t33 69t56.5 47t82 17.5q58 0 89 -31t31 -92q0 -42 -10.5 -81t-32.5 -68t-56 -46.5t-81 -17.5zM201 467q28 0 46.5 16t29.5 40t15 52t4 52q0 30 -12 47t-43 17q-28 0 -46 -16t-29 -39.5t-15.5 -51t-4.5 -51.5
q0 -32 12 -49t43 -17z" />
    <glyph glyph-name="guillemotleft" unicode="&#xab;" horiz-adv-x="402" 
d="M264 50l-89 201l151 193l51 -24l-117 -176l62 -168zM116 50l-89 201l151 193l51 -24l-117 -176l62 -168z" />
    <glyph glyph-name="guillemotright" unicode="&#xbb;" horiz-adv-x="402" 
d="M252 444l89 -200l-151 -194l-52 25l118 176l-62 168zM105 444l89 -200l-151 -194l-52 25l118 176l-62 168z" />
    <glyph glyph-name="guilsinglleft" unicode="&#x2039;" horiz-adv-x="253" 
d="M116 50l-89 201l151 193l51 -24l-117 -176l62 -168z" />
    <glyph glyph-name="guilsinglright" unicode="&#x203a;" horiz-adv-x="252" 
d="M108 444l89 -200l-151 -194l-52 25l118 176l-62 168z" />
    <glyph glyph-name="quoteleft" unicode="&#x2018;" horiz-adv-x="193" 
d="M170 486h-98l16 97l78 163l37 -11l-52 -129h38z" />
    <glyph glyph-name="quoteright" unicode="&#x2019;" horiz-adv-x="192" 
d="M109 734h98l-16 -97l-78 -163l-37 10l52 130h-39z" />
    <glyph glyph-name="quotesinglbase" unicode="&#x201a;" horiz-adv-x="193" 
d="M20 120h98l-15 -97l-79 -164l-37 11l53 130h-39z" />
    <glyph glyph-name="quotedblleft" unicode="&#x201c;" horiz-adv-x="337" 
d="M170 486h-98l16 97l78 163l37 -11l-52 -129h38zM320 486h-98l16 97l78 163l37 -11l-52 -129h38z" />
    <glyph glyph-name="quotedblright" unicode="&#x201d;" horiz-adv-x="343" 
d="M109 734h98l-16 -97l-78 -163l-37 10l52 130h-39zM259 734h98l-16 -97l-78 -163l-37 10l52 130h-39z" />
    <glyph glyph-name="quotedblbase" unicode="&#x201e;" horiz-adv-x="343" 
d="M21 119h98l-16 -97l-78 -163l-37 10l52 130h-39zM170 119h98l-16 -97l-78 -163l-37 10l52 130h-39z" />
    <glyph glyph-name="dagger" unicode="&#x2020;" horiz-adv-x="401" 
d="M274 533l-51 -249h-55l26 249l-134 10l9 53l138 9l31 129h58l-12 -129l137 -9l-9 -53z" />
    <glyph glyph-name="daggerdbl" unicode="&#x2021;" horiz-adv-x="401" 
d="M256 425l135 -9l-8 -53l-139 -10l-26 -94h-53l3 94l-137 10l8 53l140 9l22 64v74l-136 10l9 53l138 9l26 99h58l-7 -99l137 -9l-9 -53l-139 -10l-24 -74z" />
    <glyph glyph-name="bullet" unicode="&#x2022;" horiz-adv-x="441" 
d="M126 318q0 24 7 45.5t21.5 38.5t35.5 27t49 10q34 0 58 -18t24 -59q0 -25 -7.5 -47t-22.5 -38.5t-36 -26t-48 -9.5q-34 0 -57.5 18t-23.5 59z" />
    <glyph glyph-name="ellipsis" unicode="&#x2026;" horiz-adv-x="664" 
d="M31 118h97l-19 -118h-97zM252 118h97l-18 -118h-97zM473 118h97l-18 -118h-97z" />
    <glyph glyph-name="paragraph" unicode="&#xb6;" horiz-adv-x="605" 
d="M276 240q-58 1 -97 18.5t-63 46t-34 65.5t-10 76q0 63 19 116t55.5 91.5t91.5 59.5t127 21h69l-139 -875h-79zM509 734h80l-139 -874h-80z" />
    <glyph glyph-name="periodcentered" unicode="&#xb7;" horiz-adv-x="221" 
d="M73 390h97l-18 -119h-97z" />
    <glyph glyph-name="uni00AD" unicode="&#xad;" horiz-adv-x="325" 
d="M22 249l12 73h258l-12 -73h-258z" />
    <glyph glyph-name="endash" unicode="&#x2013;" horiz-adv-x="416" 
d="M420 344l-11 -70h-416l11 70h416z" />
    <glyph glyph-name="emdash" unicode="&#x2014;" horiz-adv-x="833" 
d="M837 344l-11 -70h-833l11 70h833z" />
    <glyph glyph-name="hyphen.case" horiz-adv-x="325" 
d="M30 309l12 73h258l-12 -73h-258z" />
    <glyph glyph-name="Agrave" unicode="&#xc0;" horiz-adv-x="599" 
d="M426 734l116 -734h-96l-32 201h-267l-92 -201h-97l344 734h124zM348 645l-167 -367h224l-53 367h-4zM458 808l-30 -44l-165 86l46 68z" />
    <glyph glyph-name="Aacute" unicode="&#xc1;" horiz-adv-x="599" 
d="M426 734l116 -734h-96l-32 201h-267l-92 -201h-97l344 734h124zM348 645l-167 -367h224l-53 367h-4zM500 848l-191 -85l-20 46l179 109z" />
    <glyph glyph-name="Acircumflex" unicode="&#xc2;" horiz-adv-x="599" 
d="M426 734l116 -734h-96l-32 201h-267l-92 -201h-97l344 734h124zM348 645l-167 -367h224l-53 367h-4zM416 914l101 -114l-33 -37l-100 80l-133 -80l-24 37l139 114h50z" />
    <glyph glyph-name="Atilde" unicode="&#xc3;" horiz-adv-x="599" 
d="M426 734l116 -734h-96l-32 201h-267l-92 -201h-97l344 734h124zM348 645l-167 -367h224l-53 367h-4zM229 791q19 54 44.5 73.5t48.5 19.5q18 0 34.5 -4t31 -9t27 -9t23.5 -4t22 7.5t19 28.5l46 -8q-20 -56 -45.5 -75.5t-48.5 -19.5q-19 0 -35.5 4t-31.5 9l-27 9t-22 4
q-12 0 -22 -7.5t-18 -26.5z" />
    <glyph glyph-name="Adieresis" unicode="&#xc4;" horiz-adv-x="599" 
d="M426 734l116 -734h-96l-32 201h-267l-92 -201h-97l344 734h124zM348 645l-167 -367h224l-53 367h-4zM265 881h81l-16 -97h-80zM420 881h81l-15 -97h-81z" />
    <glyph glyph-name="Aring" unicode="&#xc5;" horiz-adv-x="599" 
d="M426 734l116 -734h-96l-32 201h-267l-92 -201h-97l344 734h124zM348 645l-167 -367h224l-53 367h-4zM364 761q-45 0 -63 20t-18 48q0 27 10 47t26 33.5t36.5 20.5t41.5 7q45 0 63.5 -20t18.5 -48q0 -27 -10 -47.5t-26 -34t-37 -20t-42 -6.5zM372 803q20 0 33.5 16
t13.5 44q0 15 -6.5 23.5t-23.5 8.5q-21 0 -34.5 -15.5t-13.5 -44.5q0 -15 7 -23.5t24 -8.5z" />
    <glyph glyph-name="Aringacute" unicode="&#x1fa;" horiz-adv-x="599" 
d="M426 734l116 -734h-96l-32 201h-267l-92 -201h-97l344 734h124zM348 645l-167 -367h224l-53 367h-4zM364 761q-45 0 -63 20t-18 48q0 27 10 47t26 33.5t36.5 20.5t41.5 7q45 0 63.5 -20t18.5 -48q0 -27 -10 -47.5t-26 -34t-37 -20t-42 -6.5zM372 803q20 0 33.5 16
t13.5 44q0 15 -6.5 23.5t-23.5 8.5q-21 0 -34.5 -15.5t-13.5 -44.5q0 -15 7 -23.5t24 -8.5zM516 1027l-191 -85l-20 46l179 109z" />
    <glyph glyph-name="AE" unicode="&#xc6;" horiz-adv-x="845" 
d="M465 656h-96l-123 -251h179zM212 329l-159 -329h-95l363 734h529l-12 -78h-278l-41 -251h248l-12 -76h-248l-39 -251h300l-12 -78h-395l52 329h-201z" />
    <glyph glyph-name="AEacute" unicode="&#x1fc;" horiz-adv-x="845" 
d="M715 848l-191 -85l-20 46l179 109zM455 656h-96l-123 -251h179zM202 329l-159 -329h-95l363 734h529l-12 -78h-278l-41 -251h248l-12 -76h-248l-39 -251h300l-12 -78h-395l52 329h-201z" />
    <glyph glyph-name="Ccedilla" unicode="&#xc7;" horiz-adv-x="592" 
d="M232 -10q-185 16 -185 255q0 52 7.5 109.5t24.5 113t44 106.5t65.5 89.5t90.5 61t118 22.5q92 0 139 -51.5t47 -140.5q0 -36 -7 -74l-92 -8q4 21 5 39t1 33q0 67 -27.5 94.5t-75.5 27.5q-47 0 -83.5 -21.5t-63.5 -56.5t-45 -80t-29 -92t-15.5 -92.5t-4.5 -81.5
q0 -90 30.5 -133t97.5 -43q69 0 111 48.5t60 132.5l90 -8q-26 -128 -91.5 -187.5t-162.5 -63.5l-24 -39q13 5 28 5q32 0 48.5 -18.5t16.5 -48.5q0 -26 -10.5 -45.5t-27.5 -32.5t-38.5 -19.5t-43.5 -6.5q-26 0 -50.5 10.5t-40.5 41.5l42 31q17 -31 50 -31q21 0 34.5 11
t13.5 34q0 32 -32 32q-16 0 -29 -10l-27 14z" />
    <glyph glyph-name="Egrave" unicode="&#xc8;" horiz-adv-x="515" 
d="M431 808l-30 -44l-165 86l46 68zM428 339h-248l-42 -261h300l-12 -78h-395l116 734h373l-12 -78h-278l-38 -241h248z" />
    <glyph glyph-name="Eacute" unicode="&#xc9;" horiz-adv-x="515" 
d="M473 848l-191 -85l-20 46l179 109zM428 339h-248l-42 -261h300l-12 -78h-395l116 734h373l-12 -78h-278l-38 -241h248z" />
    <glyph glyph-name="Ecircumflex" unicode="&#xca;" horiz-adv-x="515" 
d="M428 339h-248l-42 -261h300l-12 -78h-395l116 734h373l-12 -78h-278l-38 -241h248zM385 914l101 -114l-33 -37l-100 80l-133 -80l-24 37l139 114h50z" />
    <glyph glyph-name="Edieresis" unicode="&#xcb;" horiz-adv-x="515" 
d="M237 881h81l-16 -97h-80zM392 881h81l-15 -97h-81zM428 339h-248l-42 -261h300l-12 -78h-395l116 734h373l-12 -78h-278l-38 -241h248z" />
    <glyph glyph-name="Igrave" unicode="&#xcc;" horiz-adv-x="338" 
d="M176 71h73l-11 -71h-238l11 71h71l93 592h-70l11 71h238l-11 -71h-73zM331 808l-30 -44l-165 86l46 68z" />
    <glyph glyph-name="Iacute" unicode="&#xcd;" horiz-adv-x="338" 
d="M176 71h73l-11 -71h-238l11 71h71l93 592h-70l11 71h238l-11 -71h-73zM369 848l-191 -85l-20 46l179 109z" />
    <glyph glyph-name="Icircumflex" unicode="&#xce;" horiz-adv-x="338" 
d="M176 71h73l-11 -71h-238l11 71h71l93 592h-70l11 71h238l-11 -71h-73zM288 914l101 -114l-33 -37l-100 80l-133 -80l-24 37l139 114h50z" />
    <glyph glyph-name="Idieresis" unicode="&#xcf;" horiz-adv-x="338" 
d="M176 71h73l-11 -71h-238l11 71h71l93 592h-70l11 71h238l-11 -71h-73zM141 881h81l-16 -97h-80zM296 881h81l-15 -97h-81z" />
    <glyph glyph-name="Eth" unicode="&#xd0;" horiz-adv-x="608" 
d="M31 0l52 331h-66l12 75h66l52 328h121q82 0 140 -16t95 -49t53.5 -83.5t16.5 -119.5q0 -100 -18.5 -185.5t-64 -147.5t-121.5 -97.5t-191 -35.5h-147zM186 78q83 0 138.5 29.5t89.5 81.5t48 124t14 157q0 98 -45.5 142t-154.5 44h-46l-40 -250h176l-11 -75h-177l-40 -253
h48z" />
    <glyph glyph-name="Ntilde" unicode="&#xd1;" horiz-adv-x="651" 
d="M257 791q19 54 44.5 73.5t48.5 19.5q18 0 34.5 -4t31 -9t27 -9t23.5 -4t22 7.5t19 28.5l46 -8q-20 -56 -45.5 -75.5t-48.5 -19.5q-19 0 -35.5 4t-31.5 9l-27 9t-22 4q-12 0 -22 -7.5t-18 -26.5zM408 0l-190 605h-4l-95 -605h-88l116 734h122l182 -596h4l94 596h86
l-116 -734h-111z" />
    <glyph glyph-name="Ograve" unicode="&#xd2;" horiz-adv-x="631" 
d="M485 808l-30 -44l-165 86l46 68zM262 -12q-112 0 -163.5 64t-51.5 191q0 56 7.5 115.5t24.5 115.5t43.5 105.5t65 87t89.5 59t116 21.5q107 0 157.5 -63.5t50.5 -188.5q0 -55 -7 -114t-23 -115.5t-41.5 -107t-63.5 -88.5t-88.5 -60t-115.5 -22zM275 67q43 0 77 19.5
t59 52.5t42.5 76.5t28 91.5t15.5 96.5t5 92.5q0 85 -27 128.5t-92 43.5q-49 0 -85 -22t-62.5 -58t-44 -82t-28 -94t-14.5 -94.5t-4 -82.5q0 -83 29 -125.5t101 -42.5z" />
    <glyph glyph-name="Oacute" unicode="&#xd3;" horiz-adv-x="631" 
d="M522 848l-191 -85l-20 46l179 109zM262 -12q-112 0 -163.5 64t-51.5 191q0 56 7.5 115.5t24.5 115.5t43.5 105.5t65 87t89.5 59t116 21.5q107 0 157.5 -63.5t50.5 -188.5q0 -55 -7 -114t-23 -115.5t-41.5 -107t-63.5 -88.5t-88.5 -60t-115.5 -22zM275 67q43 0 77 19.5
t59 52.5t42.5 76.5t28 91.5t15.5 96.5t5 92.5q0 85 -27 128.5t-92 43.5q-49 0 -85 -22t-62.5 -58t-44 -82t-28 -94t-14.5 -94.5t-4 -82.5q0 -83 29 -125.5t101 -42.5z" />
    <glyph glyph-name="Ocircumflex" unicode="&#xd4;" horiz-adv-x="631" 
d="M262 -12q-112 0 -163.5 64t-51.5 191q0 56 7.5 115.5t24.5 115.5t43.5 105.5t65 87t89.5 59t116 21.5q107 0 157.5 -63.5t50.5 -188.5q0 -55 -7 -114t-23 -115.5t-41.5 -107t-63.5 -88.5t-88.5 -60t-115.5 -22zM275 67q43 0 77 19.5t59 52.5t42.5 76.5t28 91.5t15.5 96.5
t5 92.5q0 85 -27 128.5t-92 43.5q-49 0 -85 -22t-62.5 -58t-44 -82t-28 -94t-14.5 -94.5t-4 -82.5q0 -83 29 -125.5t101 -42.5zM439 914l101 -114l-33 -37l-100 80l-133 -80l-24 37l139 114h50z" />
    <glyph glyph-name="Otilde" unicode="&#xd5;" horiz-adv-x="631" 
d="M252 791q19 54 44.5 73.5t48.5 19.5q18 0 34.5 -4t31 -9t27 -9t23.5 -4t22 7.5t19 28.5l46 -8q-20 -56 -45.5 -75.5t-48.5 -19.5q-19 0 -35.5 4t-31.5 9l-27 9t-22 4q-12 0 -22 -7.5t-18 -26.5zM262 -12q-112 0 -163.5 64t-51.5 191q0 56 7.5 115.5t24.5 115.5
t43.5 105.5t65 87t89.5 59t116 21.5q107 0 157.5 -63.5t50.5 -188.5q0 -55 -7 -114t-23 -115.5t-41.5 -107t-63.5 -88.5t-88.5 -60t-115.5 -22zM275 67q43 0 77 19.5t59 52.5t42.5 76.5t28 91.5t15.5 96.5t5 92.5q0 85 -27 128.5t-92 43.5q-49 0 -85 -22t-62.5 -58t-44 -82
t-28 -94t-14.5 -94.5t-4 -82.5q0 -83 29 -125.5t101 -42.5z" />
    <glyph glyph-name="Odieresis" unicode="&#xd6;" horiz-adv-x="631" 
d="M290 881h81l-16 -97h-80zM445 881h81l-15 -97h-81zM262 -12q-112 0 -163.5 64t-51.5 191q0 56 7.5 115.5t24.5 115.5t43.5 105.5t65 87t89.5 59t116 21.5q107 0 157.5 -63.5t50.5 -188.5q0 -55 -7 -114t-23 -115.5t-41.5 -107t-63.5 -88.5t-88.5 -60t-115.5 -22zM275 67
q43 0 77 19.5t59 52.5t42.5 76.5t28 91.5t15.5 96.5t5 92.5q0 85 -27 128.5t-92 43.5q-49 0 -85 -22t-62.5 -58t-44 -82t-28 -94t-14.5 -94.5t-4 -82.5q0 -83 29 -125.5t101 -42.5z" />
    <glyph glyph-name="Oslash" unicode="&#xd8;" horiz-adv-x="631" 
d="M262 -12q-32 0 -58.5 5.5t-49.5 15.5l-44 -71l-73 36l55 88q-23 32 -34 77t-11 104q0 56 7.5 115.5t24.5 115.5t43.5 105.5t65 87t89.5 59t116 21.5q66 0 110 -25l42 68l74 -32l-57 -92q39 -63 39 -171q0 -55 -7 -114t-23 -115.5t-41.5 -107t-63.5 -88.5t-88.5 -60
t-115.5 -22zM383 668q-49 0 -85 -22t-62.5 -58t-44 -82t-28 -94t-14.5 -94.5t-4 -82.5q0 -45 7 -76l303 487q-26 22 -72 22zM275 67q43 0 77 19.5t59 52.5t42.5 76.5t28 91.5t15.5 96.5t5 92.5q0 18 -1 34.5t-4 31.5l-296 -478q27 -17 74 -17z" />
    <glyph glyph-name="Oslashacute" unicode="&#x1fe;" horiz-adv-x="631" 
d="M262 -12q-32 0 -58.5 5.5t-49.5 15.5l-44 -71l-73 36l55 88q-23 32 -34 77t-11 104q0 56 7.5 115.5t24.5 115.5t43.5 105.5t65 87t89.5 59t116 21.5q66 0 110 -25l42 68l74 -32l-57 -92q39 -63 39 -171q0 -55 -7 -114t-23 -115.5t-41.5 -107t-63.5 -88.5t-88.5 -60
t-115.5 -22zM383 668q-49 0 -85 -22t-62.5 -58t-44 -82t-28 -94t-14.5 -94.5t-4 -82.5q0 -45 7 -76l303 487q-26 22 -72 22zM275 67q43 0 77 19.5t59 52.5t42.5 76.5t28 91.5t15.5 96.5t5 92.5q0 18 -1 34.5t-4 31.5l-296 -478q27 -17 74 -17zM518 854l-191 -85l-20 46
l179 109z" />
    <glyph glyph-name="Ugrave" unicode="&#xd9;" horiz-adv-x="643" 
d="M471 808l-30 -44l-165 86l46 68zM539 734h95l-79 -494q-20 -124 -87 -188t-193 -64q-115 0 -165.5 52.5t-50.5 142.5q0 17 2 34.5t5 35.5l76 481h95l-74 -466q-3 -22 -5 -40.5t-2 -35.5q0 -66 30.5 -95.5t96.5 -29.5q40 0 70 10.5t51.5 34t36 60t22.5 89.5z" />
    <glyph glyph-name="Uacute" unicode="&#xda;" horiz-adv-x="643" 
d="M523 848l-191 -85l-20 46l179 109zM539 734h95l-79 -494q-20 -124 -87 -188t-193 -64q-115 0 -165.5 52.5t-50.5 142.5q0 17 2 34.5t5 35.5l76 481h95l-74 -466q-3 -22 -5 -40.5t-2 -35.5q0 -66 30.5 -95.5t96.5 -29.5q40 0 70 10.5t51.5 34t36 60t22.5 89.5z" />
    <glyph glyph-name="Ucircumflex" unicode="&#xdb;" horiz-adv-x="643" 
d="M539 734h95l-79 -494q-20 -124 -87 -188t-193 -64q-115 0 -165.5 52.5t-50.5 142.5q0 17 2 34.5t5 35.5l76 481h95l-74 -466q-3 -22 -5 -40.5t-2 -35.5q0 -66 30.5 -95.5t96.5 -29.5q40 0 70 10.5t51.5 34t36 60t22.5 89.5zM437 914l101 -114l-33 -37l-100 80l-133 -80
l-24 37l139 114h50z" />
    <glyph glyph-name="Udieresis" unicode="&#xdc;" horiz-adv-x="643" 
d="M287 881h81l-16 -97h-80zM442 881h81l-15 -97h-81zM539 734h95l-79 -494q-20 -124 -87 -188t-193 -64q-115 0 -165.5 52.5t-50.5 142.5q0 17 2 34.5t5 35.5l76 481h95l-74 -466q-3 -22 -5 -40.5t-2 -35.5q0 -66 30.5 -95.5t96.5 -29.5q40 0 70 10.5t51.5 34t36 60
t22.5 89.5z" />
    <glyph glyph-name="Yacute" unicode="&#xdd;" horiz-adv-x="532" 
d="M264 0h-94l44 279l-150 455h101l109 -364l224 364h103l-294 -457zM469 848l-191 -85l-20 46l179 109z" />
    <glyph glyph-name="Thorn" unicode="&#xde;" horiz-adv-x="562" 
d="M127 0h-95l116 734h95l-21 -131h103q64 0 105 -15.5t65 -41t33.5 -59.5t9.5 -71q0 -53 -16.5 -101.5t-52.5 -86t-93.5 -60t-139.5 -22.5h-87zM240 222q45 0 81.5 10.5t63 34t40.5 60t14 88.5t-28 81.5t-99 29.5h-103l-48 -304h79z" />
    <glyph glyph-name="germandbls" unicode="&#xdf;" horiz-adv-x="615" 
d="M555 173q0 -43 -14.5 -77.5t-41 -58.5t-63 -36.5t-80.5 -12.5q-39 0 -70.5 9t-53 28.5t-32 50t-7.5 73.5l81 12q-3 -54 16.5 -79.5t70.5 -25.5q45 0 75.5 26t30.5 80q0 35 -22 53t-55 32q-20 9 -39 18.5t-34 23.5t-24 33t-9 48q0 34 12.5 60t34 43t50.5 26.5t62 10.5
q8 18 13.5 39.5t5.5 42.5q0 41 -26 62.5t-78 21.5q-76 0 -117 -44.5t-57 -143.5l-77 -488h-89l79 503q20 127 88 185.5t182 58.5q45 0 78.5 -10.5t55 -30t32.5 -46.5t11 -59q0 -39 -11 -77t-29 -75q-18 3 -37 3q-18 0 -35 -3.5t-30.5 -11.5t-21.5 -21t-8 -33q0 -26 15 -39.5
t40 -25.5q21 -10 44 -20.5t41.5 -26t30.5 -39t12 -59.5z" />
    <glyph glyph-name="agrave" unicode="&#xe0;" horiz-adv-x="503" 
d="M425 1q-29 -7 -55 -7q-41 0 -53.5 19.5t-12.5 51.5q-23 -35 -63.5 -56t-95.5 -21q-36 0 -61 10t-41.5 26.5t-24 38.5t-7.5 47q0 59 28.5 94t74.5 53.5t103 25.5t113 11l6 31q2 14 3 26t1 22q0 48 -23.5 66t-60.5 18q-38 0 -60 -10t-33.5 -27t-14.5 -40t-2 -49l-81 -7
q-4 44 5.5 81t34.5 64t64.5 42t95.5 15q46 0 77 -12t50 -32.5t26.5 -48t7.5 -58.5q0 -16 -2.5 -38t-5.5 -42l-32 -201q-3 -19 1 -29t21 -10q9 0 23 3zM321 232q-41 -2 -80 -6.5t-70 -16t-50 -33t-19 -57.5q0 -32 18 -49t59 -17q24 0 46 9t39.5 25t29.5 37.5t17 46.5z
M249 754l99 -153l-40 -32l-120 135z" />
    <glyph glyph-name="aacute" unicode="&#xe1;" horiz-adv-x="503" 
d="M425 1q-29 -7 -55 -7q-41 0 -53.5 19.5t-12.5 51.5q-23 -35 -63.5 -56t-95.5 -21q-36 0 -61 10t-41.5 26.5t-24 38.5t-7.5 47q0 59 28.5 94t74.5 53.5t103 25.5t113 11l6 31q2 14 3 26t1 22q0 48 -23.5 66t-60.5 18q-38 0 -60 -10t-33.5 -27t-14.5 -40t-2 -49l-81 -7
q-4 44 5.5 81t34.5 64t64.5 42t95.5 15q46 0 77 -12t50 -32.5t26.5 -48t7.5 -58.5q0 -16 -2.5 -38t-5.5 -42l-32 -201q-3 -19 1 -29t21 -10q9 0 23 3zM321 232q-41 -2 -80 -6.5t-70 -16t-50 -33t-19 -57.5q0 -32 18 -49t59 -17q24 0 46 9t39.5 25t29.5 37.5t17 46.5z
M402 700l-161 -131l-33 33l141 152z" />
    <glyph glyph-name="acircumflex" unicode="&#xe2;" horiz-adv-x="503" 
d="M425 1q-29 -7 -55 -7q-41 0 -53.5 19.5t-12.5 51.5q-23 -35 -63.5 -56t-95.5 -21q-36 0 -61 10t-41.5 26.5t-24 38.5t-7.5 47q0 59 28.5 94t74.5 53.5t103 25.5t113 11l6 31q2 14 3 26t1 22q0 48 -23.5 66t-60.5 18q-38 0 -60 -10t-33.5 -27t-14.5 -40t-2 -49l-81 -7
q-4 44 5.5 81t34.5 64t64.5 42t95.5 15q46 0 77 -12t50 -32.5t26.5 -48t7.5 -58.5q0 -16 -2.5 -38t-5.5 -42l-32 -201q-3 -19 1 -29t21 -10q9 0 23 3zM321 232q-41 -2 -80 -6.5t-70 -16t-50 -33t-19 -57.5q0 -32 18 -49t59 -17q24 0 46 9t39.5 25t29.5 37.5t17 46.5z
M322 743l92 -142l-41 -32l-85 99l-120 -99l-32 32l136 142h50z" />
    <glyph glyph-name="atilde" unicode="&#xe3;" horiz-adv-x="503" 
d="M425 1q-29 -7 -55 -7q-41 0 -53.5 19.5t-12.5 51.5q-23 -35 -63.5 -56t-95.5 -21q-36 0 -61 10t-41.5 26.5t-24 38.5t-7.5 47q0 59 28.5 94t74.5 53.5t103 25.5t113 11l6 31q2 14 3 26t1 22q0 48 -23.5 66t-60.5 18q-38 0 -60 -10t-33.5 -27t-14.5 -40t-2 -49l-81 -7
q-4 44 5.5 81t34.5 64t64.5 42t95.5 15q46 0 77 -12t50 -32.5t26.5 -48t7.5 -58.5q0 -16 -2.5 -38t-5.5 -42l-32 -201q-3 -19 1 -29t21 -10q9 0 23 3zM321 232q-41 -2 -80 -6.5t-70 -16t-50 -33t-19 -57.5q0 -32 18 -49t59 -17q24 0 46 9t39.5 25t29.5 37.5t17 46.5z
M140 617q19 53 44.5 72.5t48.5 19.5q18 0 34 -4t30 -8.5t26 -8.5t23 -4t22 7.5t19 27.5l46 -8q-10 -28 -21.5 -46t-23.5 -28.5t-24.5 -15t-24.5 -4.5q-19 0 -35 4t-30.5 8.5t-26.5 8.5t-22 4q-11 0 -21 -7.5t-18 -26.5z" />
    <glyph glyph-name="adieresis" unicode="&#xe4;" horiz-adv-x="503" 
d="M425 1q-29 -7 -55 -7q-41 0 -53.5 19.5t-12.5 51.5q-23 -35 -63.5 -56t-95.5 -21q-36 0 -61 10t-41.5 26.5t-24 38.5t-7.5 47q0 59 28.5 94t74.5 53.5t103 25.5t113 11l6 31q2 14 3 26t1 22q0 48 -23.5 66t-60.5 18q-38 0 -60 -10t-33.5 -27t-14.5 -40t-2 -49l-81 -7
q-4 44 5.5 81t34.5 64t64.5 42t95.5 15q46 0 77 -12t50 -32.5t26.5 -48t7.5 -58.5q0 -16 -2.5 -38t-5.5 -42l-32 -201q-3 -19 1 -29t21 -10q9 0 23 3zM321 232q-41 -2 -80 -6.5t-70 -16t-50 -33t-19 -57.5q0 -32 18 -49t59 -17q24 0 46 9t39.5 25t29.5 37.5t17 46.5z
M174 709h81l-15 -96h-81zM329 709h80l-15 -96h-81z" />
    <glyph glyph-name="aring" unicode="&#xe5;" horiz-adv-x="503" 
d="M425 1q-29 -7 -55 -7q-41 0 -53.5 19.5t-12.5 51.5q-23 -35 -63.5 -56t-95.5 -21q-36 0 -61 10t-41.5 26.5t-24 38.5t-7.5 47q0 59 28.5 94t74.5 53.5t103 25.5t113 11l6 31q2 14 3 26t1 22q0 48 -23.5 66t-60.5 18q-38 0 -60 -10t-33.5 -27t-14.5 -40t-2 -49l-81 -7
q-4 44 5.5 81t34.5 64t64.5 42t95.5 15q46 0 77 -12t50 -32.5t26.5 -48t7.5 -58.5q0 -16 -2.5 -38t-5.5 -42l-32 -201q-3 -19 1 -29t21 -10q9 0 23 3zM321 232q-41 -2 -80 -6.5t-70 -16t-50 -33t-19 -57.5q0 -32 18 -49t59 -17q24 0 46 9t39.5 25t29.5 37.5t17 46.5z
M268 577q-45 0 -63.5 20t-18.5 48q0 27 10 47t26 33.5t36.5 20t41.5 6.5q45 0 63.5 -20t18.5 -48q0 -27 -10 -47t-26 -33.5t-36.5 -20t-41.5 -6.5zM275 619q20 0 33.5 16t13.5 43q0 16 -6.5 24t-23.5 8q-21 0 -34.5 -15.5t-13.5 -43.5q0 -16 7 -24t24 -8z" />
    <glyph glyph-name="aringacute" unicode="&#x1fb;" horiz-adv-x="503" 
d="M425 1q-29 -7 -55 -7q-41 0 -53.5 19.5t-12.5 51.5q-23 -35 -63.5 -56t-95.5 -21q-36 0 -61 10t-41.5 26.5t-24 38.5t-7.5 47q0 59 28.5 94t74.5 53.5t103 25.5t113 11l6 31q2 14 3 26t1 22q0 48 -23.5 66t-60.5 18q-38 0 -60 -10t-33.5 -27t-14.5 -40t-2 -49l-81 -7
q-4 44 5.5 81t34.5 64t64.5 42t95.5 15q46 0 77 -12t50 -32.5t26.5 -48t7.5 -58.5q0 -16 -2.5 -38t-5.5 -42l-32 -201q-3 -19 1 -29t21 -10q9 0 23 3zM321 232q-41 -2 -80 -6.5t-70 -16t-50 -33t-19 -57.5q0 -32 18 -49t59 -17q24 0 46 9t39.5 25t29.5 37.5t17 46.5z
M269 571q-45 0 -63.5 20t-18.5 48q0 27 10 47t26 33.5t36.5 20t41.5 6.5q45 0 63.5 -20t18.5 -48q0 -27 -10 -47t-26 -33.5t-36.5 -20t-41.5 -6.5zM276 613q20 0 33.5 16t13.5 43q0 16 -6.5 24t-23.5 8q-21 0 -34.5 -15.5t-13.5 -43.5q0 -16 7 -24t24 -8zM422 848l-191 -85
l-20 46l179 109z" />
    <glyph glyph-name="ae" unicode="&#xe6;" horiz-adv-x="779" 
d="M405 445q32 38 76 59.5t102 21.5q78 0 118 -43.5t40 -124.5q0 -55 -16 -119h-314q-2 -15 -3.5 -31t-1.5 -30q0 -25 4.5 -46.5t16 -37.5t30 -25.5t47.5 -9.5q48 0 80 26.5t49 86.5l79 -7q-13 -54 -36 -88t-52 -54t-61.5 -27.5t-64.5 -7.5q-69 0 -107 28t-52 76
q-21 -31 -43.5 -51t-47 -32t-50 -16.5t-51.5 -4.5q-36 0 -62 10t-42.5 26.5t-24 38.5t-7.5 47q0 57 26 91.5t70.5 54t102 27.5t120.5 11l6 34q4 23 4 45q0 48 -23.5 66t-60.5 18q-38 0 -60 -10t-33.5 -27t-14.5 -40t-2 -49l-81 -7q-4 44 6 81t34.5 64t64 42t94.5 15
q60 0 93.5 -22.5t47.5 -58.5zM321 232q-39 -2 -78 -6.5t-70.5 -16t-51 -33t-19.5 -57.5q0 -32 18 -49t59 -17q24 0 46 9t39.5 25t29.5 37.5t17 46.5zM651 302q3 17 5 32t2 29q0 44 -20.5 69.5t-66.5 25.5q-33 0 -58.5 -13t-44 -34.5t-30 -49.5t-17.5 -59h230z" />
    <glyph glyph-name="aeacute" unicode="&#x1fd;" horiz-adv-x="779" 
d="M561 700l-161 -131l-33 33l141 152zM405 445q32 38 76 59.5t102 21.5q78 0 118 -43.5t40 -124.5q0 -55 -16 -119h-314q-2 -15 -3.5 -31t-1.5 -30q0 -25 4.5 -46.5t16 -37.5t30 -25.5t47.5 -9.5q48 0 80 26.5t49 86.5l79 -7q-13 -54 -36 -88t-52 -54t-61.5 -27.5
t-64.5 -7.5q-69 0 -107 28t-52 76q-21 -31 -43.5 -51t-47 -32t-50 -16.5t-51.5 -4.5q-36 0 -62 10t-42.5 26.5t-24 38.5t-7.5 47q0 57 26 91.5t70.5 54t102 27.5t120.5 11l6 34q4 23 4 45q0 48 -23.5 66t-60.5 18q-38 0 -60 -10t-33.5 -27t-14.5 -40t-2 -49l-81 -7
q-4 44 6 81t34.5 64t64 42t94.5 15q60 0 93.5 -22.5t47.5 -58.5zM321 232q-39 -2 -78 -6.5t-70.5 -16t-51 -33t-19.5 -57.5q0 -32 18 -49t59 -17q24 0 46 9t39.5 25t29.5 37.5t17 46.5zM651 302q3 17 5 32t2 29q0 44 -20.5 69.5t-66.5 25.5q-33 0 -58.5 -13t-44 -34.5
t-30 -49.5t-17.5 -59h230z" />
    <glyph glyph-name="ccedilla" unicode="&#xe7;" horiz-adv-x="478" 
d="M172 -10q-75 9 -111 58.5t-36 134.5q0 61 15 122.5t47.5 110.5t83.5 79.5t123 30.5q43 0 73.5 -11.5t50 -32t28 -48t8.5 -59.5q0 -8 -0.5 -17.5t-1.5 -18.5l-81 -6q7 55 -11 88.5t-72 33.5q-48 0 -81 -26.5t-53.5 -67t-29 -89t-8.5 -91.5q0 -66 24 -94.5t75 -28.5
q53 0 83 32.5t44 83.5l79 -6q-18 -91 -71.5 -133.5t-128.5 -45.5l-24 -39q13 5 28 5q32 0 48.5 -18.5t16.5 -48.5q0 -26 -10.5 -45.5t-27.5 -32.5t-38.5 -19.5t-43.5 -6.5q-26 0 -50.5 10.5t-40.5 41.5l42 31q17 -31 50 -31q21 0 34.5 11t13.5 34q0 32 -32 32q-16 0 -29 -10
l-27 14z" />
    <glyph glyph-name="egrave" unicode="&#xe8;" horiz-adv-x="492" 
d="M421 165q-13 -54 -35.5 -88t-51.5 -54t-61.5 -27.5t-65.5 -7.5q-95 0 -138 54t-43 148q0 58 14 117.5t45 108t80.5 79.5t120.5 31q81 0 122.5 -44t41.5 -126q0 -53 -16 -117h-314q-2 -16 -3.5 -31.5t-1.5 -28.5q0 -24 4.5 -46t16 -38.5t30.5 -26t48 -9.5q47 0 79 26.5
t49 86.5zM360 302q6 30 6 61q0 19 -4 36.5t-13.5 30.5t-26.5 20.5t-43 7.5q-33 0 -58 -13t-43.5 -34.5t-30 -50t-17.5 -58.5h230zM268 754l99 -153l-40 -32l-120 135z" />
    <glyph glyph-name="eacute" unicode="&#xe9;" horiz-adv-x="492" 
d="M422 700l-161 -131l-33 33l141 152zM421 165q-13 -54 -35.5 -88t-51.5 -54t-61.5 -27.5t-65.5 -7.5q-95 0 -138 54t-43 148q0 58 14 117.5t45 108t80.5 79.5t120.5 31q81 0 122.5 -44t41.5 -126q0 -53 -16 -117h-314q-2 -16 -3.5 -31.5t-1.5 -28.5q0 -24 4.5 -46
t16 -38.5t30.5 -26t48 -9.5q47 0 79 26.5t49 86.5zM360 302q6 30 6 61q0 19 -4 36.5t-13.5 30.5t-26.5 20.5t-43 7.5q-33 0 -58 -13t-43.5 -34.5t-30 -50t-17.5 -58.5h230z" />
    <glyph glyph-name="ecircumflex" unicode="&#xea;" horiz-adv-x="492" 
d="M342 743l92 -142l-41 -32l-85 99l-120 -99l-32 32l136 142h50zM421 165q-13 -54 -35.5 -88t-51.5 -54t-61.5 -27.5t-65.5 -7.5q-95 0 -138 54t-43 148q0 58 14 117.5t45 108t80.5 79.5t120.5 31q81 0 122.5 -44t41.5 -126q0 -53 -16 -117h-314q-2 -16 -3.5 -31.5
t-1.5 -28.5q0 -24 4.5 -46t16 -38.5t30.5 -26t48 -9.5q47 0 79 26.5t49 86.5zM360 302q6 30 6 61q0 19 -4 36.5t-13.5 30.5t-26.5 20.5t-43 7.5q-33 0 -58 -13t-43.5 -34.5t-30 -50t-17.5 -58.5h230z" />
    <glyph glyph-name="edieresis" unicode="&#xeb;" horiz-adv-x="492" 
d="M196 709h81l-15 -96h-81zM351 709h80l-15 -96h-81zM421 165q-13 -54 -35.5 -88t-51.5 -54t-61.5 -27.5t-65.5 -7.5q-95 0 -138 54t-43 148q0 58 14 117.5t45 108t80.5 79.5t120.5 31q81 0 122.5 -44t41.5 -126q0 -53 -16 -117h-314q-2 -16 -3.5 -31.5t-1.5 -28.5
q0 -24 4.5 -46t16 -38.5t30.5 -26t48 -9.5q47 0 79 26.5t49 86.5zM360 302q6 30 6 61q0 19 -4 36.5t-13.5 30.5t-26.5 20.5t-43 7.5q-33 0 -58 -13t-43.5 -34.5t-30 -50t-17.5 -58.5h230z" />
    <glyph glyph-name="igrave" unicode="&#xec;" horiz-adv-x="218" 
d="M95 514h89l-80 -514h-90zM122 754l99 -153l-40 -32l-120 135z" />
    <glyph glyph-name="iacute" unicode="&#xed;" horiz-adv-x="218" 
d="M282 700l-161 -131l-33 33l141 152zM95 514h89l-80 -514h-90z" />
    <glyph glyph-name="icircumflex" unicode="&#xee;" horiz-adv-x="218" 
d="M198 743l92 -142l-41 -32l-85 99l-120 -99l-32 32l136 142h50zM95 514h89l-80 -514h-90z" />
    <glyph glyph-name="idieresis" unicode="&#xef;" horiz-adv-x="218" 
d="M51 709h81l-15 -96h-81zM206 709h80l-15 -96h-81zM95 514h89l-80 -514h-90z" />
    <glyph glyph-name="eth" unicode="&#xf0;" horiz-adv-x="515" 
d="M402 640q71 -107 71 -255q0 -37 -3 -73.5t-11 -73.5q-12 -56 -32.5 -102t-52 -79t-73.5 -51t-97 -18q-94 0 -136.5 54t-42.5 144q0 40 6 79q9 55 28 102.5t49 82.5t71 55t94 20q33 0 62 -13t46 -35l3 2q-8 35 -22.5 67t-33.5 60l-115 -53l-18 56l96 44q-15 17 -30.5 31.5
t-30.5 27.5l86 22q14 -11 26.5 -22.5t23.5 -24.5l109 50l17 -56zM216 58q32 0 57 13.5t43 37.5t30.5 56.5t20.5 69.5q5 27 8 53t3 49q0 53 -22 85.5t-75 32.5q-36 0 -62.5 -15.5t-45.5 -41.5t-31 -62t-18 -76q-3 -20 -5 -40.5t-2 -38.5q0 -56 22 -89.5t77 -33.5z" />
    <glyph glyph-name="ntilde" unicode="&#xf1;" horiz-adv-x="525" 
d="M173 443q10 14 23.5 29t33 27t44.5 19.5t57 7.5q38 0 64 -10.5t42.5 -29.5t24 -45.5t7.5 -57.5q0 -14 -2 -31.5t-4 -34.5l-49 -317h-89l49 315q5 28 5 53q0 18 -3.5 33.5t-12.5 27t-24 18.5t-38 7q-36 0 -62.5 -15t-45 -38.5t-29.5 -53.5t-16 -60l-44 -287h-89l80 514h79
l-5 -71h4zM171 617q19 53 44.5 72.5t48.5 19.5q18 0 34 -4t30 -8.5t26 -8.5t23 -4t22 7.5t19 27.5l46 -8q-10 -28 -21.5 -46t-23.5 -28.5t-24.5 -15t-24.5 -4.5q-19 0 -35 4t-30.5 8.5t-26.5 8.5t-22 4q-11 0 -21 -7.5t-18 -26.5z" />
    <glyph glyph-name="ograve" unicode="&#xf2;" horiz-adv-x="515" 
d="M213 58q50 0 82.5 29.5t51 72.5t26 91.5t7.5 86.5q0 25 -4.5 46.5t-16 37t-30 24.5t-46.5 9q-51 0 -83 -28.5t-51 -71t-26 -91.5t-7 -89q0 -25 4.5 -46.5t16 -37t30 -24.5t46.5 -9zM204 -12q-92 0 -135.5 49.5t-43.5 137.5q0 68 15 131.5t47 112t82.5 78t122.5 29.5
q92 0 135.5 -49.5t43.5 -137.5q0 -68 -15 -131.5t-47 -112.5t-82.5 -78t-122.5 -29zM270 754l99 -153l-40 -32l-120 135z" />
    <glyph glyph-name="oacute" unicode="&#xf3;" horiz-adv-x="515" 
d="M422 700l-161 -131l-33 33l141 152zM213 58q50 0 82.5 29.5t51 72.5t26 91.5t7.5 86.5q0 25 -4.5 46.5t-16 37t-30 24.5t-46.5 9q-51 0 -83 -28.5t-51 -71t-26 -91.5t-7 -89q0 -25 4.5 -46.5t16 -37t30 -24.5t46.5 -9zM204 -12q-92 0 -135.5 49.5t-43.5 137.5
q0 68 15 131.5t47 112t82.5 78t122.5 29.5q92 0 135.5 -49.5t43.5 -137.5q0 -68 -15 -131.5t-47 -112.5t-82.5 -78t-122.5 -29z" />
    <glyph glyph-name="ocircumflex" unicode="&#xf4;" horiz-adv-x="515" 
d="M347 743l92 -142l-41 -32l-85 99l-120 -99l-32 32l136 142h50zM213 58q50 0 82.5 29.5t51 72.5t26 91.5t7.5 86.5q0 25 -4.5 46.5t-16 37t-30 24.5t-46.5 9q-51 0 -83 -28.5t-51 -71t-26 -91.5t-7 -89q0 -25 4.5 -46.5t16 -37t30 -24.5t46.5 -9zM204 -12
q-92 0 -135.5 49.5t-43.5 137.5q0 68 15 131.5t47 112t82.5 78t122.5 29.5q92 0 135.5 -49.5t43.5 -137.5q0 -68 -15 -131.5t-47 -112.5t-82.5 -78t-122.5 -29z" />
    <glyph glyph-name="otilde" unicode="&#xf5;" horiz-adv-x="515" 
d="M213 58q50 0 82.5 29.5t51 72.5t26 91.5t7.5 86.5q0 25 -4.5 46.5t-16 37t-30 24.5t-46.5 9q-51 0 -83 -28.5t-51 -71t-26 -91.5t-7 -89q0 -25 4.5 -46.5t16 -37t30 -24.5t46.5 -9zM204 -12q-92 0 -135.5 49.5t-43.5 137.5q0 68 15 131.5t47 112t82.5 78t122.5 29.5
q92 0 135.5 -49.5t43.5 -137.5q0 -68 -15 -131.5t-47 -112.5t-82.5 -78t-122.5 -29zM162 617q19 53 44.5 72.5t48.5 19.5q18 0 34 -4t30 -8.5t26 -8.5t23 -4t22 7.5t19 27.5l46 -8q-10 -28 -21.5 -46t-23.5 -28.5t-24.5 -15t-24.5 -4.5q-19 0 -35 4t-30.5 8.5t-26.5 8.5
t-22 4q-11 0 -21 -7.5t-18 -26.5z" />
    <glyph glyph-name="odieresis" unicode="&#xf6;" horiz-adv-x="515" 
d="M197 709h81l-15 -96h-81zM352 709h80l-15 -96h-81zM213 58q50 0 82.5 29.5t51 72.5t26 91.5t7.5 86.5q0 25 -4.5 46.5t-16 37t-30 24.5t-46.5 9q-51 0 -83 -28.5t-51 -71t-26 -91.5t-7 -89q0 -25 4.5 -46.5t16 -37t30 -24.5t46.5 -9zM204 -12q-92 0 -135.5 49.5
t-43.5 137.5q0 68 15 131.5t47 112t82.5 78t122.5 29.5q92 0 135.5 -49.5t43.5 -137.5q0 -68 -15 -131.5t-47 -112.5t-82.5 -78t-122.5 -29z" />
    <glyph glyph-name="oslash" unicode="&#xf8;" horiz-adv-x="515" 
d="M204 -12q-50 0 -88 16l-49 -69l-62 37l55 77q-18 23 -26.5 55t-8.5 71q0 68 15 131.5t47 112t82.5 78t122.5 29.5q54 0 94 -20l46 65l63 -35l-55 -77q31 -46 31 -120q0 -68 -15 -131.5t-47 -112.5t-82.5 -78t-122.5 -29zM283 455q-51 0 -83 -28.5t-51 -71t-26 -91.5
t-7 -89q0 -24 3 -43l220 309q-22 14 -56 14zM213 58q50 0 82.5 29.5t51 72.5t26 91.5t7.5 86.5q0 8 -0.5 16.5t-1.5 16.5l-216 -302q22 -11 51 -11z" />
    <glyph glyph-name="oslashacute" unicode="&#x1ff;" horiz-adv-x="515" 
d="M204 -12q-50 0 -88 16l-49 -69l-62 37l55 77q-18 23 -26.5 55t-8.5 71q0 68 15 131.5t47 112t82.5 78t122.5 29.5q54 0 94 -20l46 65l63 -35l-55 -77q31 -46 31 -120q0 -68 -15 -131.5t-47 -112.5t-82.5 -78t-122.5 -29zM283 455q-51 0 -83 -28.5t-51 -71t-26 -91.5
t-7 -89q0 -24 3 -43l220 309q-22 14 -56 14zM213 58q50 0 82.5 29.5t51 72.5t26 91.5t7.5 86.5q0 8 -0.5 16.5t-1.5 16.5l-216 -302q22 -11 51 -11zM431 700l-161 -131l-33 33l141 152z" />
    <glyph glyph-name="ugrave" unicode="&#xf9;" horiz-adv-x="513" 
d="M321 70q-10 -14 -24 -28.5t-33 -26.5t-43 -19.5t-54 -7.5q-73 0 -103 37.5t-30 99.5q0 14 1 29t3 29l52 331h89l-49 -316q-6 -32 -6 -59q0 -17 3 -31.5t11.5 -25t22.5 -16.5t36 -6q34 0 59.5 15t44 39t29.5 54t16 60l44 286h89l-80 -514h-80l6 70h-4zM259 754l99 -153
l-40 -32l-120 135z" />
    <glyph glyph-name="uacute" unicode="&#xfa;" horiz-adv-x="513" 
d="M417 700l-161 -131l-33 33l141 152zM321 70q-10 -14 -24 -28.5t-33 -26.5t-43 -19.5t-54 -7.5q-73 0 -103 37.5t-30 99.5q0 14 1 29t3 29l52 331h89l-49 -316q-6 -32 -6 -59q0 -17 3 -31.5t11.5 -25t22.5 -16.5t36 -6q34 0 59.5 15t44 39t29.5 54t16 60l44 286h89
l-80 -514h-80l6 70h-4z" />
    <glyph glyph-name="ucircumflex" unicode="&#xfb;" horiz-adv-x="513" 
d="M339 743l92 -142l-41 -32l-85 99l-120 -99l-32 32l136 142h50zM321 70q-10 -14 -24 -28.5t-33 -26.5t-43 -19.5t-54 -7.5q-73 0 -103 37.5t-30 99.5q0 14 1 29t3 29l52 331h89l-49 -316q-6 -32 -6 -59q0 -17 3 -31.5t11.5 -25t22.5 -16.5t36 -6q34 0 59.5 15t44 39
t29.5 54t16 60l44 286h89l-80 -514h-80l6 70h-4z" />
    <glyph glyph-name="udieresis" unicode="&#xfc;" horiz-adv-x="513" 
d="M189 709h81l-15 -96h-81zM344 709h80l-15 -96h-81zM321 70q-10 -14 -24 -28.5t-33 -26.5t-43 -19.5t-54 -7.5q-73 0 -103 37.5t-30 99.5q0 14 1 29t3 29l52 331h89l-49 -316q-6 -32 -6 -59q0 -17 3 -31.5t11.5 -25t22.5 -16.5t36 -6q34 0 59.5 15t44 39t29.5 54t16 60
l44 286h89l-80 -514h-80l6 70h-4z" />
    <glyph glyph-name="yacute" unicode="&#xfd;" horiz-adv-x="431" 
d="M206 -6q-24 -48 -44 -84t-42 -59t-49 -34.5t-65 -11.5q-21 0 -41 4t-31 8l20 64q13 -4 23 -6.5t27 -2.5q38 0 62 29.5t47 82.5l9 20l-85 510h94l50 -405h4l179 405h93zM385 700l-161 -131l-33 33l141 152z" />
    <glyph glyph-name="thorn" unicode="&#xfe;" horiz-adv-x="524" 
d="M296 459q-34 0 -60.5 -15.5t-46 -42.5t-32 -63t-18.5 -76q-4 -20 -6 -42.5t-2 -40.5q0 -24 4 -46.5t14.5 -39.5t29 -27t46.5 -10q33 0 59 15.5t45.5 43.5t32.5 65.5t19 82.5q3 20 5 40t2 40q0 60 -22 88t-70 28zM219 734l-44 -282h3q10 13 25 26.5t34.5 24t43 17
t50.5 6.5q72 0 110.5 -47t38.5 -139q0 -18 -1.5 -36.5t-3.5 -37.5q-8 -51 -24.5 -100.5t-45 -89t-70.5 -64t-100 -24.5q-48 0 -78 19.5t-44 47.5h-3l-36 -238h-88l145 917h88z" />
    <glyph glyph-name="ydieresis" unicode="&#xff;" horiz-adv-x="431" 
d="M206 -6q-24 -48 -44 -84t-42 -59t-49 -34.5t-65 -11.5q-21 0 -41 4t-31 8l20 64q13 -4 23 -6.5t27 -2.5q38 0 62 29.5t47 82.5l9 20l-85 510h94l50 -405h4l179 405h93zM157 709h81l-15 -96h-81zM312 709h80l-15 -96h-81z" />
    <glyph glyph-name="Amacron" unicode="&#x100;" horiz-adv-x="599" 
d="M426 734l116 -734h-96l-32 201h-267l-92 -201h-97l344 734h124zM348 645l-167 -367h224l-53 367h-4zM251 867h261l-10 -68h-262z" />
    <glyph glyph-name="amacron" unicode="&#x101;" horiz-adv-x="503" 
d="M425 1q-29 -7 -55 -7q-41 0 -53.5 19.5t-12.5 51.5q-23 -35 -63.5 -56t-95.5 -21q-36 0 -61 10t-41.5 26.5t-24 38.5t-7.5 47q0 59 28.5 94t74.5 53.5t103 25.5t113 11l6 31q2 14 3 26t1 22q0 48 -23.5 66t-60.5 18q-38 0 -60 -10t-33.5 -27t-14.5 -40t-2 -49l-81 -7
q-4 44 5.5 81t34.5 64t64.5 42t95.5 15q46 0 77 -12t50 -32.5t26.5 -48t7.5 -58.5q0 -16 -2.5 -38t-5.5 -42l-32 -201q-3 -19 1 -29t21 -10q9 0 23 3zM321 232q-41 -2 -80 -6.5t-70 -16t-50 -33t-19 -57.5q0 -32 18 -49t59 -17q24 0 46 9t39.5 25t29.5 37.5t17 46.5z
M158 688h261l-11 -66h-261z" />
    <glyph glyph-name="Abreve" unicode="&#x102;" horiz-adv-x="599" 
d="M426 734l116 -734h-96l-32 201h-267l-92 -201h-97l344 734h124zM348 645l-167 -367h224l-53 367h-4zM303 907q2 -35 20 -53.5t52 -18.5q65 0 102 73l52 -9q-21 -65 -62.5 -97.5t-101.5 -32.5q-57 0 -87.5 34.5t-27.5 95.5z" />
    <glyph glyph-name="abreve" unicode="&#x103;" horiz-adv-x="503" 
d="M425 1q-29 -7 -55 -7q-41 0 -53.5 19.5t-12.5 51.5q-23 -35 -63.5 -56t-95.5 -21q-36 0 -61 10t-41.5 26.5t-24 38.5t-7.5 47q0 59 28.5 94t74.5 53.5t103 25.5t113 11l6 31q2 14 3 26t1 22q0 48 -23.5 66t-60.5 18q-38 0 -60 -10t-33.5 -27t-14.5 -40t-2 -49l-81 -7
q-4 44 5.5 81t34.5 64t64.5 42t95.5 15q46 0 77 -12t50 -32.5t26.5 -48t7.5 -58.5q0 -16 -2.5 -38t-5.5 -42l-32 -201q-3 -19 1 -29t21 -10q9 0 23 3zM321 232q-41 -2 -80 -6.5t-70 -16t-50 -33t-19 -57.5q0 -32 18 -49t59 -17q24 0 46 9t39.5 25t29.5 37.5t17 46.5z
M213 731q0 -83 66 -83q35 0 58.5 20.5t40.5 62.5l53 -7q-19 -71 -60.5 -106.5t-98.5 -35.5q-59 0 -88.5 36.5t-24.5 105.5z" />
    <glyph glyph-name="Aogonek" unicode="&#x104;" horiz-adv-x="599" 
d="M426 734l116 -734q-43 -26 -67 -55.5t-24 -54.5q0 -22 24 -22q16 0 29 10t24 25l38 -26q-24 -36 -57.5 -54t-68.5 -18q-34 0 -51 14t-17 40q0 37 22 72t52 69l-32 201h-267l-92 -201h-97l344 734h124zM348 645l-167 -367h224l-53 367h-4z" />
    <glyph glyph-name="aogonek" unicode="&#x105;" horiz-adv-x="503" 
d="M425 1q-23 -3 -43.5 -14.5t-36.5 -28t-25 -35t-9 -33.5q0 -22 24 -22q16 0 29 10t24 25l38 -26q-24 -36 -57.5 -54t-68.5 -18q-34 0 -51 14t-17 40q0 21 8 40.5t21.5 37.5t30.5 34.5t36 31.5q-14 8 -19 24t-5 38q-23 -35 -63.5 -56t-95.5 -21q-36 0 -61 10t-41.5 26.5
t-24 38.5t-7.5 47q0 59 28.5 94t74.5 53.5t103 25.5t113 11l6 31q2 14 3 26t1 22q0 48 -23.5 66t-60.5 18q-38 0 -60 -10t-33.5 -27t-14.5 -40t-2 -49l-81 -7q-4 44 5.5 81t34.5 64t64.5 42t95.5 15q46 0 77 -12t50 -32.5t26.5 -48t7.5 -58.5q0 -16 -2.5 -38t-5.5 -42
l-32 -201q-3 -19 1 -29t21 -10q9 0 23 3zM321 232q-41 -2 -80 -6.5t-70 -16t-50 -33t-19 -57.5q0 -32 18 -49t59 -17q24 0 46 9t39.5 25t29.5 37.5t17 46.5z" />
    <glyph glyph-name="Cacute" unicode="&#x106;" horiz-adv-x="592" 
d="M274 67q69 0 111 48.5t60 132.5l90 -8q-27 -134 -97.5 -193t-173.5 -59q-217 0 -217 257q0 52 7.5 109.5t24.5 113t44 106.5t65.5 89.5t90.5 61t118 22.5q92 0 139 -51.5t47 -140.5q0 -36 -7 -74l-92 -8q4 21 5 39t1 33q0 67 -27.5 94.5t-75.5 27.5q-47 0 -83.5 -21.5
t-63.5 -56.5t-45 -80t-29 -92t-15.5 -92.5t-4.5 -81.5q0 -90 30.5 -133t97.5 -43zM530 848l-191 -85l-20 46l179 109z" />
    <glyph glyph-name="cacute" unicode="&#x107;" horiz-adv-x="478" 
d="M422 700l-161 -131l-33 33l141 152zM372 333q7 55 -11 88.5t-72 33.5q-48 0 -81 -26.5t-53.5 -67t-29 -89t-8.5 -91.5q0 -66 24 -94.5t75 -28.5q53 0 83 32.5t44 83.5l79 -6q-19 -95 -76 -137.5t-137 -42.5q-94 0 -138.5 50.5t-44.5 144.5q0 61 15 122.5t47.5 110.5
t83.5 79.5t123 30.5q43 0 73.5 -11.5t50 -32t28 -48t8.5 -59.5q0 -8 -0.5 -17.5t-1.5 -18.5z" />
    <glyph glyph-name="Ccircumflex" unicode="&#x108;" horiz-adv-x="592" 
d="M274 67q69 0 111 48.5t60 132.5l90 -8q-27 -134 -97.5 -193t-173.5 -59q-217 0 -217 257q0 52 7.5 109.5t24.5 113t44 106.5t65.5 89.5t90.5 61t118 22.5q92 0 139 -51.5t47 -140.5q0 -36 -7 -74l-92 -8q4 21 5 39t1 33q0 67 -27.5 94.5t-75.5 27.5q-47 0 -83.5 -21.5
t-63.5 -56.5t-45 -80t-29 -92t-15.5 -92.5t-4.5 -81.5q0 -90 30.5 -133t97.5 -43zM443 914l101 -114l-33 -37l-100 80l-133 -80l-24 37l139 114h50z" />
    <glyph glyph-name="ccircumflex" unicode="&#x109;" horiz-adv-x="478" 
d="M344 743l92 -142l-41 -32l-85 99l-120 -99l-32 32l136 142h50zM372 333q7 55 -11 88.5t-72 33.5q-48 0 -81 -26.5t-53.5 -67t-29 -89t-8.5 -91.5q0 -66 24 -94.5t75 -28.5q53 0 83 32.5t44 83.5l79 -6q-19 -95 -76 -137.5t-137 -42.5q-94 0 -138.5 50.5t-44.5 144.5
q0 61 15 122.5t47.5 110.5t83.5 79.5t123 30.5q43 0 73.5 -11.5t50 -32t28 -48t8.5 -59.5q0 -8 -0.5 -17.5t-1.5 -18.5z" />
    <glyph glyph-name="Cdotaccent" unicode="&#x10a;" horiz-adv-x="592" 
d="M370 898h91l-17 -107h-91zM274 67q69 0 111 48.5t60 132.5l90 -8q-27 -134 -97.5 -193t-173.5 -59q-217 0 -217 257q0 52 7.5 109.5t24.5 113t44 106.5t65.5 89.5t90.5 61t118 22.5q92 0 139 -51.5t47 -140.5q0 -36 -7 -74l-92 -8q4 21 5 39t1 33q0 67 -27.5 94.5
t-75.5 27.5q-47 0 -83.5 -21.5t-63.5 -56.5t-45 -80t-29 -92t-15.5 -92.5t-4.5 -81.5q0 -90 30.5 -133t97.5 -43z" />
    <glyph glyph-name="cdotaccent" unicode="&#x10b;" horiz-adv-x="478" 
d="M372 333q7 55 -11 88.5t-72 33.5q-48 0 -81 -26.5t-53.5 -67t-29 -89t-8.5 -91.5q0 -66 24 -94.5t75 -28.5q53 0 83 32.5t44 83.5l79 -6q-19 -95 -76 -137.5t-137 -42.5q-94 0 -138.5 50.5t-44.5 144.5q0 61 15 122.5t47.5 110.5t83.5 79.5t123 30.5q43 0 73.5 -11.5
t50 -32t28 -48t8.5 -59.5q0 -8 -0.5 -17.5t-1.5 -18.5zM275 734h89l-17 -107h-89z" />
    <glyph glyph-name="Ccaron" unicode="&#x10c;" horiz-adv-x="592" 
d="M274 67q69 0 111 48.5t60 132.5l90 -8q-27 -134 -97.5 -193t-173.5 -59q-217 0 -217 257q0 52 7.5 109.5t24.5 113t44 106.5t65.5 89.5t90.5 61t118 22.5q92 0 139 -51.5t47 -140.5q0 -36 -7 -74l-92 -8q4 21 5 39t1 33q0 67 -27.5 94.5t-75.5 27.5q-47 0 -83.5 -21.5
t-63.5 -56.5t-45 -80t-29 -92t-15.5 -92.5t-4.5 -81.5q0 -90 30.5 -133t97.5 -43zM370 774l-102 114l35 36l99 -78l130 79l26 -39l-138 -112h-50z" />
    <glyph glyph-name="ccaron" unicode="&#x10d;" horiz-adv-x="478" 
d="M271 579l-92 143l40 31l84 -98l119 99l35 -33l-137 -142h-49zM372 333q7 55 -11 88.5t-72 33.5q-48 0 -81 -26.5t-53.5 -67t-29 -89t-8.5 -91.5q0 -66 24 -94.5t75 -28.5q53 0 83 32.5t44 83.5l79 -6q-19 -95 -76 -137.5t-137 -42.5q-94 0 -138.5 50.5t-44.5 144.5
q0 61 15 122.5t47.5 110.5t83.5 79.5t123 30.5q43 0 73.5 -11.5t50 -32t28 -48t8.5 -59.5q0 -8 -0.5 -17.5t-1.5 -18.5z" />
    <glyph glyph-name="Dcaron" unicode="&#x10e;" horiz-adv-x="608" 
d="M307 766l-102 114l35 36l99 -78l130 79l26 -39l-138 -112h-50zM31 0l116 734h121q82 0 140 -16t95 -49t53.5 -83.5t16.5 -119.5q0 -100 -18.5 -185.5t-64 -147.5t-121.5 -97.5t-191 -35.5h-147zM186 78q83 0 138.5 29.5t89.5 81.5t48 124t14 157q0 98 -45.5 142
t-154.5 44h-46l-92 -578h48z" />
    <glyph glyph-name="dcaron" unicode="&#x10f;" horiz-adv-x="564" 
d="M657 734l-58 -192l-49 3l29 189h78zM373 334q0 26 -4 48.5t-14.5 39t-28.5 26t-46 9.5q-49 0 -80.5 -30.5t-50 -73.5t-25.5 -91t-7 -82q0 -66 21.5 -95.5t68.5 -29.5q49 0 81 29t51 72t26.5 91.5t7.5 86.5zM183 -12q-76 0 -117.5 46t-41.5 146q0 60 13.5 121.5
t43.5 111.5t76.5 81.5t112.5 31.5q48 0 77 -20t44 -48h3l43 276h88l-116 -734h-73v67h-4q-25 -36 -64 -57.5t-85 -21.5z" />
    <glyph glyph-name="Dcroat" unicode="&#x110;" horiz-adv-x="608" 
d="M31 0l52 331h-66l12 75h66l52 328h121q82 0 140 -16t95 -49t53.5 -83.5t16.5 -119.5q0 -100 -18.5 -185.5t-64 -147.5t-121.5 -97.5t-191 -35.5h-147zM186 78q83 0 138.5 29.5t89.5 81.5t48 124t14 157q0 98 -45.5 142t-154.5 44h-46l-40 -250h176l-11 -75h-177l-40 -253
h48z" />
    <glyph glyph-name="dcroat" unicode="&#x111;" horiz-adv-x="522" 
d="M183 -12q-76 0 -117.5 46t-41.5 146q0 60 13.5 121.5t43.5 111.5t76.5 81.5t112.5 31.5q48 0 77 -20t44 -48h3l21 135h-182l10 65h182l12 76h88l-12 -76h58l-10 -65h-59l-93 -593h-73v67h-4q-25 -36 -64 -57.5t-85 -21.5zM373 334q0 26 -4 48.5t-14.5 39t-28.5 26
t-46 9.5q-49 0 -80.5 -30.5t-50 -73.5t-25.5 -91t-7 -82q0 -66 21.5 -95.5t68.5 -29.5q49 0 81 29t51 72t26.5 91.5t7.5 86.5z" />
    <glyph glyph-name="Emacron" unicode="&#x112;" horiz-adv-x="515" 
d="M222 867h261l-10 -68h-262zM428 339h-248l-42 -261h300l-12 -78h-395l116 734h373l-12 -78h-278l-38 -241h248z" />
    <glyph glyph-name="emacron" unicode="&#x113;" horiz-adv-x="492" 
d="M421 165q-13 -54 -35.5 -88t-51.5 -54t-61.5 -27.5t-65.5 -7.5q-95 0 -138 54t-43 148q0 58 14 117.5t45 108t80.5 79.5t120.5 31q81 0 122.5 -44t41.5 -126q0 -53 -16 -117h-314q-2 -16 -3.5 -31.5t-1.5 -28.5q0 -24 4.5 -46t16 -38.5t30.5 -26t48 -9.5q47 0 79 26.5
t49 86.5zM360 302q6 30 6 61q0 19 -4 36.5t-13.5 30.5t-26.5 20.5t-43 7.5q-33 0 -58 -13t-43.5 -34.5t-30 -50t-17.5 -58.5h230zM178 688h261l-11 -66h-261z" />
    <glyph glyph-name="Ebreve" unicode="&#x114;" horiz-adv-x="515" 
d="M269 907q2 -35 20 -53.5t52 -18.5q65 0 102 73l52 -9q-21 -65 -62.5 -97.5t-101.5 -32.5q-57 0 -87.5 34.5t-27.5 95.5zM428 339h-248l-42 -261h300l-12 -78h-395l116 734h373l-12 -78h-278l-38 -241h248z" />
    <glyph glyph-name="ebreve" unicode="&#x115;" horiz-adv-x="492" 
d="M421 165q-13 -54 -35.5 -88t-51.5 -54t-61.5 -27.5t-65.5 -7.5q-95 0 -138 54t-43 148q0 58 14 117.5t45 108t80.5 79.5t120.5 31q81 0 122.5 -44t41.5 -126q0 -53 -16 -117h-314q-2 -16 -3.5 -31.5t-1.5 -28.5q0 -24 4.5 -46t16 -38.5t30.5 -26t48 -9.5q47 0 79 26.5
t49 86.5zM360 302q6 30 6 61q0 19 -4 36.5t-13.5 30.5t-26.5 20.5t-43 7.5q-33 0 -58 -13t-43.5 -34.5t-30 -50t-17.5 -58.5h230zM230 731q0 -83 66 -83q35 0 58.5 20.5t40.5 62.5l53 -7q-19 -71 -60.5 -106.5t-98.5 -35.5q-59 0 -88.5 36.5t-24.5 105.5z" />
    <glyph glyph-name="Edotaccent" unicode="&#x116;" horiz-adv-x="515" 
d="M311 897h91l-17 -107h-91zM428 339h-248l-42 -261h300l-12 -78h-395l116 734h373l-12 -78h-278l-38 -241h248z" />
    <glyph glyph-name="edotaccent" unicode="&#x117;" horiz-adv-x="492" 
d="M421 165q-13 -54 -35.5 -88t-51.5 -54t-61.5 -27.5t-65.5 -7.5q-95 0 -138 54t-43 148q0 58 14 117.5t45 108t80.5 79.5t120.5 31q81 0 122.5 -44t41.5 -126q0 -53 -16 -117h-314q-2 -16 -3.5 -31.5t-1.5 -28.5q0 -24 4.5 -46t16 -38.5t30.5 -26t48 -9.5q47 0 79 26.5
t49 86.5zM360 302q6 30 6 61q0 19 -4 36.5t-13.5 30.5t-26.5 20.5t-43 7.5q-33 0 -58 -13t-43.5 -34.5t-30 -50t-17.5 -58.5h230zM270 734h89l-17 -107h-89z" />
    <glyph glyph-name="Eogonek" unicode="&#x118;" horiz-adv-x="515" 
d="M428 339h-248l-42 -261h300l-12 -78h-47q-40 -29 -63.5 -58.5t-24.5 -52.5q0 -12 6.5 -16.5t17.5 -4.5q16 0 29.5 9.5t24.5 24.5l37 -25q-23 -36 -56.5 -54t-69.5 -18q-32 0 -49.5 14t-17.5 40q0 35 28.5 71t76.5 70h-287l116 734h373l-12 -78h-278l-38 -241h248z" />
    <glyph glyph-name="eogonek" unicode="&#x119;" horiz-adv-x="492" 
d="M421 165q-14 -56 -38 -89.5t-52 -56.5q-38 -32 -63 -68.5t-26 -61.5q0 -21 23 -21q16 0 29.5 10t24.5 25l38 -26q-24 -36 -57.5 -54t-68.5 -18q-33 0 -50.5 14t-17.5 40q0 32 24 66t59 66q-20 -3 -39 -3q-95 0 -138 54t-43 148q0 58 14 117.5t45 108t80.5 79.5t120.5 31
q81 0 122.5 -44t41.5 -126q0 -53 -16 -117h-314q-2 -16 -3.5 -31.5t-1.5 -28.5q0 -24 4.5 -46t16 -38.5t30.5 -26t48 -9.5q47 0 79 26.5t49 86.5zM360 302q6 30 6 61q0 19 -4 36.5t-13.5 30.5t-26.5 20.5t-43 7.5q-33 0 -58 -13t-43.5 -34.5t-30 -50t-17.5 -58.5h230z" />
    <glyph glyph-name="Ecaron" unicode="&#x11a;" horiz-adv-x="515" 
d="M309 766l-102 114l35 36l99 -78l130 79l26 -39l-138 -112h-50zM428 339h-248l-42 -261h300l-12 -78h-395l116 734h373l-12 -78h-278l-38 -241h248z" />
    <glyph glyph-name="ecaron" unicode="&#x11b;" horiz-adv-x="492" 
d="M267 579l-92 143l40 31l84 -98l119 99l35 -33l-137 -142h-49zM421 165q-13 -54 -35.5 -88t-51.5 -54t-61.5 -27.5t-65.5 -7.5q-95 0 -138 54t-43 148q0 58 14 117.5t45 108t80.5 79.5t120.5 31q81 0 122.5 -44t41.5 -126q0 -53 -16 -117h-314q-2 -16 -3.5 -31.5
t-1.5 -28.5q0 -24 4.5 -46t16 -38.5t30.5 -26t48 -9.5q47 0 79 26.5t49 86.5zM360 302q6 30 6 61q0 19 -4 36.5t-13.5 30.5t-26.5 20.5t-43 7.5q-33 0 -58 -13t-43.5 -34.5t-30 -50t-17.5 -58.5h230z" />
    <glyph glyph-name="Gcircumflex" unicode="&#x11c;" horiz-adv-x="625" 
d="M325 362h234l-58 -374h-71l8 97q-35 -51 -81.5 -74t-101.5 -23q-207 0 -207 258q0 52 7.5 109t24.5 112.5t43.5 106t65.5 89t90 61t117 22.5q95 0 140.5 -50t45.5 -139q0 -38 -7 -76l-91 -8q6 40 6 71q0 70 -29 96.5t-75 26.5q-47 0 -83 -21.5t-62.5 -56.5t-44.5 -80
t-29 -93t-15.5 -94.5t-4.5 -83.5q0 -171 127 -171q64 0 114 47.5t66 135.5l6 34h-147zM440 914l101 -114l-33 -37l-100 80l-133 -80l-24 37l139 114h50z" />
    <glyph glyph-name="gcircumflex" unicode="&#x11d;" horiz-adv-x="522" 
d="M346 743l92 -142l-41 -32l-85 99l-120 -99l-32 32l136 142h50zM177 3q-74 0 -112 48.5t-38 142.5q0 59 13.5 118.5t43 107t75 77t109.5 29.5q45 0 76.5 -18t48.5 -50h4l18 56h75l-77 -491q-18 -113 -76 -165.5t-163 -52.5q-35 0 -65.5 6.5t-53.5 22t-37.5 40.5t-16.5 63
l84 18q2 -17 7 -32t15.5 -25.5t27.5 -16.5t43 -6q62 0 98 33t48 114l8 54h-3q-20 -29 -58 -51t-94 -22zM374 336q0 66 -26 93.5t-71 27.5q-46 0 -76.5 -27t-48.5 -66.5t-25.5 -85.5t-7.5 -84q0 -68 24.5 -95.5t65.5 -27.5q49 0 81 28t51 69t26 87t7 81z" />
    <glyph glyph-name="Gbreve" unicode="&#x11e;" horiz-adv-x="625" 
d="M331 912q2 -35 20 -53.5t52 -18.5q65 0 102 73l52 -9q-21 -65 -62.5 -97.5t-101.5 -32.5q-57 0 -87.5 34.5t-27.5 95.5zM325 362h234l-58 -374h-71l8 97q-35 -51 -81.5 -74t-101.5 -23q-207 0 -207 258q0 52 7.5 109t24.5 112.5t43.5 106t65.5 89t90 61t117 22.5
q95 0 140.5 -50t45.5 -139q0 -38 -7 -76l-91 -8q6 40 6 71q0 70 -29 96.5t-75 26.5q-47 0 -83 -21.5t-62.5 -56.5t-44.5 -80t-29 -93t-15.5 -94.5t-4.5 -83.5q0 -171 127 -171q64 0 114 47.5t66 135.5l6 34h-147z" />
    <glyph glyph-name="gbreve" unicode="&#x11f;" horiz-adv-x="522" 
d="M177 3q-74 0 -112 48.5t-38 142.5q0 59 13.5 118.5t43 107t75 77t109.5 29.5q45 0 76.5 -18t48.5 -50h4l18 56h75l-77 -491q-18 -113 -76 -165.5t-163 -52.5q-35 0 -65.5 6.5t-53.5 22t-37.5 40.5t-16.5 63l84 18q2 -17 7 -32t15.5 -25.5t27.5 -16.5t43 -6q62 0 98 33
t48 114l8 54h-3q-20 -29 -58 -51t-94 -22zM374 336q0 66 -26 93.5t-71 27.5q-46 0 -76.5 -27t-48.5 -66.5t-25.5 -85.5t-7.5 -84q0 -68 24.5 -95.5t65.5 -27.5q49 0 81 28t51 69t26 87t7 81zM237 731q0 -83 66 -83q35 0 58.5 20.5t40.5 62.5l53 -7q-19 -71 -60.5 -106.5
t-98.5 -35.5q-59 0 -88.5 36.5t-24.5 105.5z" />
    <glyph glyph-name="Gdotaccent" unicode="&#x120;" horiz-adv-x="625" 
d="M365 897h91l-17 -107h-91zM325 362h234l-58 -374h-71l8 97q-35 -51 -81.5 -74t-101.5 -23q-207 0 -207 258q0 52 7.5 109t24.5 112.5t43.5 106t65.5 89t90 61t117 22.5q95 0 140.5 -50t45.5 -139q0 -38 -7 -76l-91 -8q6 40 6 71q0 70 -29 96.5t-75 26.5q-47 0 -83 -21.5
t-62.5 -56.5t-44.5 -80t-29 -93t-15.5 -94.5t-4.5 -83.5q0 -171 127 -171q64 0 114 47.5t66 135.5l6 34h-147z" />
    <glyph glyph-name="gdotaccent" unicode="&#x121;" horiz-adv-x="522" 
d="M177 3q-74 0 -112 48.5t-38 142.5q0 59 13.5 118.5t43 107t75 77t109.5 29.5q45 0 76.5 -18t48.5 -50h4l18 56h75l-77 -491q-18 -113 -76 -165.5t-163 -52.5q-35 0 -65.5 6.5t-53.5 22t-37.5 40.5t-16.5 63l84 18q2 -17 7 -32t15.5 -25.5t27.5 -16.5t43 -6q62 0 98 33
t48 114l8 54h-3q-20 -29 -58 -51t-94 -22zM374 336q0 66 -26 93.5t-71 27.5q-46 0 -76.5 -27t-48.5 -66.5t-25.5 -85.5t-7.5 -84q0 -68 24.5 -95.5t65.5 -27.5q49 0 81 28t51 69t26 87t7 81zM276 734h89l-17 -107h-89z" />
    <glyph glyph-name="Gcommaaccent" unicode="&#x122;" horiz-adv-x="625" 
d="M325 362h234l-58 -374h-71l8 97q-35 -51 -81.5 -74t-101.5 -23q-207 0 -207 258q0 52 7.5 109t24.5 112.5t43.5 106t65.5 89t90 61t117 22.5q95 0 140.5 -50t45.5 -139q0 -38 -7 -76l-91 -8q6 40 6 71q0 70 -29 96.5t-75 26.5q-47 0 -83 -21.5t-62.5 -56.5t-44.5 -80
t-29 -93t-15.5 -94.5t-4.5 -83.5q0 -171 127 -171q64 0 114 47.5t66 135.5l6 34h-147zM213 -46h90l-14 -85l-59 -110l-40 10l36 86h-29z" />
    <glyph glyph-name="gcommaaccent" unicode="&#x123;" horiz-adv-x="522" 
d="M341 581h-90l13 85l59 110l40 -11l-36 -86h29zM177 3q-74 0 -112 48.5t-38 142.5q0 59 13.5 118.5t43 107t75 77t109.5 29.5q45 0 76.5 -18t48.5 -50h4l18 56h75l-77 -491q-18 -113 -76 -165.5t-163 -52.5q-35 0 -65.5 6.5t-53.5 22t-37.5 40.5t-16.5 63l84 18
q2 -17 7 -32t15.5 -25.5t27.5 -16.5t43 -6q62 0 98 33t48 114l8 54h-3q-20 -29 -58 -51t-94 -22zM374 336q0 66 -26 93.5t-71 27.5q-46 0 -76.5 -27t-48.5 -66.5t-25.5 -85.5t-7.5 -84q0 -68 24.5 -95.5t65.5 -27.5q49 0 81 28t51 69t26 87t7 81z" />
    <glyph glyph-name="Hcircumflex" unicode="&#x124;" horiz-adv-x="642" 
d="M510 0h-95l52 325h-289l-51 -325h-95l116 734h95l-52 -328h289l51 328h95zM438 914l101 -114l-33 -37l-100 80l-133 -80l-24 37l139 114h50z" />
    <glyph glyph-name="hcircumflex" unicode="&#x125;" horiz-adv-x="525" 
d="M178 448q10 13 23.5 27t32 25t43 18.5t55.5 7.5q48 0 76.5 -16t42.5 -43.5t16 -65.5t-4 -82l-49 -319h-89l49 315q4 26 4.5 51t-6.5 44.5t-23.5 31.5t-47.5 12q-36 0 -62.5 -15t-45 -39t-29.5 -54t-16 -60l-44 -286h-89l116 734h89l-46 -286h4zM227 906l101 -114l-33 -37
l-100 80l-133 -80l-24 37l139 114h50z" />
    <glyph glyph-name="Hbar" unicode="&#x126;" horiz-adv-x="643" 
d="M606 602h64l-11 -71h-64l-84 -531h-95l52 325h-289l-51 -325h-95l84 531h-60l11 71h60l21 132h95l-21 -132h288l21 132h95zM481 406l19 125h-288l-20 -125h289z" />
    <glyph glyph-name="hbar" unicode="&#x127;" horiz-adv-x="525" 
d="M178 448q10 13 23.5 27t32 25t43 18.5t55.5 7.5q48 0 76.5 -16t42.5 -43.5t16 -65.5t-4 -82l-49 -319h-89l49 315q4 26 4.5 51t-6.5 44.5t-23.5 31.5t-47.5 12q-36 0 -62.5 -15t-45 -39t-29.5 -54t-16 -60l-44 -286h-89l93 593h-60l10 65h61l12 76h89l-12 -76h182
l-10 -65h-183l-23 -145h4z" />
    <glyph glyph-name="Itilde" unicode="&#x128;" horiz-adv-x="338" 
d="M176 71h73l-11 -71h-238l11 71h71l93 592h-70l11 71h238l-11 -71h-73zM100 791q19 54 44.5 73.5t48.5 19.5q18 0 34.5 -4t31 -9t27 -9t23.5 -4t22 7.5t19 28.5l46 -8q-20 -56 -45.5 -75.5t-48.5 -19.5q-19 0 -35.5 4t-31.5 9l-27 9t-22 4q-12 0 -22 -7.5t-18 -26.5z" />
    <glyph glyph-name="itilde" unicode="&#x129;" horiz-adv-x="218" 
d="M95 514h89l-80 -514h-90zM13 617q19 53 44.5 72.5t48.5 19.5q18 0 34 -4t30 -8.5t26 -8.5t23 -4t22 7.5t19 27.5l46 -8q-10 -28 -21.5 -46t-23.5 -28.5t-24.5 -15t-24.5 -4.5q-19 0 -35 4t-30.5 8.5t-26.5 8.5t-22 4q-11 0 -21 -7.5t-18 -26.5z" />
    <glyph glyph-name="Imacron" unicode="&#x12a;" horiz-adv-x="338" 
d="M176 71h73l-11 -71h-238l11 71h71l93 592h-70l11 71h238l-11 -71h-73zM125 867h261l-10 -68h-262z" />
    <glyph glyph-name="imacron" unicode="&#x12b;" horiz-adv-x="218" 
d="M95 514h89l-80 -514h-90zM36 688h261l-11 -66h-261z" />
    <glyph glyph-name="Ibreve" unicode="&#x12c;" horiz-adv-x="338" 
d="M176 71h73l-11 -71h-238l11 71h71l93 592h-70l11 71h238l-11 -71h-73zM177 907q2 -35 20 -53.5t52 -18.5q65 0 102 73l52 -9q-21 -65 -62.5 -97.5t-101.5 -32.5q-57 0 -87.5 34.5t-27.5 95.5z" />
    <glyph glyph-name="ibreve" unicode="&#x12d;" horiz-adv-x="218" 
d="M95 514h89l-80 -514h-90zM92 731q0 -83 66 -83q35 0 58.5 20.5t40.5 62.5l53 -7q-19 -71 -60.5 -106.5t-98.5 -35.5q-59 0 -88.5 36.5t-24.5 105.5z" />
    <glyph glyph-name="Iogonek" unicode="&#x12e;" horiz-adv-x="338" 
d="M176 71h73l-11 -71h-91q-25 -26 -46 -55.5t-21 -54.5q0 -22 24 -22q16 0 29 10t24 25l38 -26q-24 -36 -57.5 -54t-68.5 -18q-34 0 -51 14t-17 40q0 37 28 73.5t65 67.5h-94l11 71h71l93 592h-70l11 71h238l-11 -71h-73z" />
    <glyph glyph-name="iogonek" unicode="&#x12f;" horiz-adv-x="218" 
d="M95 514h89l-80 -514h-17q-25 -26 -46 -55.5t-21 -54.5q0 -22 24 -22q16 0 29 10t24 25l38 -26q-24 -36 -57.5 -54t-68.5 -18q-34 0 -51 14t-17 40q0 37 28.5 73.5t64.5 67.5h-20zM130 734h90l-18 -107h-89z" />
    <glyph glyph-name="Idotaccent" unicode="&#x130;" horiz-adv-x="338" 
d="M176 71h73l-11 -71h-238l11 71h71l93 592h-70l11 71h238l-11 -71h-73zM215 897h91l-17 -107h-91z" />
    <glyph glyph-name="idotaccent" horiz-adv-x="218" 
d="M95 514h89l-80 -514h-90zM130 734h90l-18 -107h-89z" />
    <glyph glyph-name="dotlessi" unicode="&#x131;" horiz-adv-x="218" 
d="M95 514h89l-80 -514h-90z" />
    <glyph glyph-name="IJ" unicode="&#x132;" horiz-adv-x="831" 
d="M176 71h73l-11 -71h-238l11 71h71l93 592h-70l11 71h238l-11 -71h-73zM435 212q-1 -11 -2 -23t-1 -23q0 -19 3.5 -37t13.5 -31.5t27.5 -21.5t44.5 -8q33 0 54 10.5t34.5 29.5t20.5 46.5t13 60.5l83 519h95l-84 -529q-8 -46 -21 -85.5t-37.5 -69t-64 -46t-100.5 -16.5
q-88 0 -130.5 43t-42.5 122q0 12 1 24.5t3 25.5z" />
    <glyph glyph-name="Jcircumflex" unicode="&#x134;" horiz-adv-x="492" 
d="M97 212q-1 -11 -2 -23t-1 -23q0 -19 3.5 -37t13.5 -31.5t27.5 -21.5t44.5 -8q33 0 54 10.5t34.5 29.5t20.5 46.5t13 60.5l83 519h95l-84 -529q-8 -46 -21 -85.5t-37.5 -69t-64 -46t-100.5 -16.5q-88 0 -130.5 43t-42.5 122q0 12 1 24.5t3 25.5zM483 914l101 -114l-33 -37
l-100 80l-133 -80l-24 37l139 114h50z" />
    <glyph glyph-name="jcircumflex" unicode="&#x135;" horiz-adv-x="218" 
d="M-122 -115q13 -4 26.5 -7t29.5 -3q34 0 52 21.5t27 83.5l84 534h89l-85 -538q-14 -92 -51.5 -131.5t-107.5 -39.5q-27 0 -49 4.5t-34 9.5zM197 743l92 -142l-41 -32l-85 99l-120 -99l-32 32l136 142h50z" />
    <glyph glyph-name="Kcommaaccent" unicode="&#x136;" horiz-adv-x="579" 
d="M207 -46h90l-14 -85l-59 -110l-40 10l36 86h-29zM188 391l332 343h107l-296 -307l192 -427h-104l-161 351l-91 -94l-40 -257h-95l116 734h95z" />
    <glyph glyph-name="kcommaaccent" unicode="&#x137;" horiz-adv-x="477" 
d="M150 -46h90l-14 -85l-59 -110l-40 10l36 86h-29zM152 304l225 210h104l-194 -181l131 -333h-96l-104 269l-85 -78l-29 -191h-89l116 734h89z" />
    <glyph glyph-name="kgreenlandic" unicode="&#x138;" horiz-adv-x="477" 
d="M189 302l227 212h103l-193 -181l131 -333h-97l-104 268l-84 -77l-30 -191h-89l81 514h89z" />
    <glyph glyph-name="Lacute" unicode="&#x139;" horiz-adv-x="477" 
d="M336 848l-191 -85l-20 46l179 109zM139 78h270l-12 -78h-365l116 734h95z" />
    <glyph glyph-name="lacute" unicode="&#x13a;" horiz-adv-x="217" 
d="M315 848l-191 -85l-20 46l179 109zM103 0h-89l116 734h89z" />
    <glyph glyph-name="Lcommaaccent" unicode="&#x13b;" horiz-adv-x="477" 
d="M171 -46h90l-14 -85l-59 -110l-40 10l36 86h-29zM139 78h270l-12 -78h-365l116 734h95z" />
    <glyph glyph-name="lcommaaccent" unicode="&#x13c;" horiz-adv-x="217" 
d="M8 -46h90l-14 -85l-59 -110l-40 10l36 86h-29zM103 0h-89l116 734h89z" />
    <glyph glyph-name="Lcaron" unicode="&#x13d;" horiz-adv-x="477" 
d="M414 734l-58 -192l-49 3l29 189h78zM139 78h270l-12 -78h-365l116 734h95z" />
    <glyph glyph-name="lcaron" unicode="&#x13e;" horiz-adv-x="256" 
d="M350 734l-58 -192l-49 3l29 189h78zM103 0h-89l116 734h89z" />
    <glyph glyph-name="Ldot" unicode="&#x13f;" horiz-adv-x="477" 
d="M327.67 464.811h90.2832l-16.8662 -106.739h-90.2832zM139 78h270l-12 -78h-365l116 734h95z" />
    <glyph glyph-name="ldot" unicode="&#x140;" horiz-adv-x="281" 
d="M103 0h-89l116 734h89zM225.528 440.85h88.5166l-16.9082 -106.687h-88.5166z" />
    <glyph glyph-name="Lslash" unicode="&#x141;" horiz-adv-x="477" 
d="M194 428l163 73l5 -73l-180 -80l-43 -270h270l-12 -78h-365l49 309l-83 -37l-6 72l101 45l55 345h95z" />
    <glyph glyph-name="lslash" unicode="&#x142;" horiz-adv-x="259" 
d="M195 447l79 35l6 -74l-98 -43l-57 -365h-89l52 332l-74 -32l-5 73l92 41l51 320h89z" />
    <glyph glyph-name="Nacute" unicode="&#x143;" horiz-adv-x="651" 
d="M518 848l-191 -85l-20 46l179 109zM408 0l-190 605h-4l-95 -605h-88l116 734h122l182 -596h4l94 596h86l-116 -734h-111z" />
    <glyph glyph-name="nacute" unicode="&#x144;" horiz-adv-x="525" 
d="M427 700l-161 -131l-33 33l141 152zM173 443q10 14 23.5 29t33 27t44.5 19.5t57 7.5q38 0 64 -10.5t42.5 -29.5t24 -45.5t7.5 -57.5q0 -14 -2 -31.5t-4 -34.5l-49 -317h-89l49 315q5 28 5 53q0 18 -3.5 33.5t-12.5 27t-24 18.5t-38 7q-36 0 -62.5 -15t-45 -38.5
t-29.5 -53.5t-16 -60l-44 -287h-89l80 514h79l-5 -71h4z" />
    <glyph glyph-name="Ncommaaccent" unicode="&#x145;" horiz-adv-x="651" 
d="M238 -46h90l-14 -85l-59 -110l-40 10l36 86h-29zM409 0l-190 605h-4l-95 -605h-88l116 734h122l182 -596h4l94 596h86l-116 -734h-111z" />
    <glyph glyph-name="ncommaaccent" unicode="&#x146;" horiz-adv-x="525" 
d="M168 -46h90l-14 -85l-59 -110l-40 10l36 86h-29zM173 443q10 14 23.5 29t33 27t44.5 19.5t57 7.5q38 0 64 -10.5t42.5 -29.5t24 -45.5t7.5 -57.5q0 -14 -2 -31.5t-4 -34.5l-49 -317h-89l49 315q5 28 5 53q0 18 -3.5 33.5t-12.5 27t-24 18.5t-38 7q-36 0 -62.5 -15
t-45 -38.5t-29.5 -53.5t-16 -60l-44 -287h-89l80 514h79l-5 -71h4z" />
    <glyph glyph-name="Ncaron" unicode="&#x147;" horiz-adv-x="651" 
d="M365 766l-102 114l35 36l99 -78l130 79l26 -39l-138 -112h-50zM408 0l-190 605h-4l-95 -605h-88l116 734h122l182 -596h4l94 596h86l-116 -734h-111z" />
    <glyph glyph-name="ncaron" unicode="&#x148;" horiz-adv-x="525" 
d="M273 579l-92 143l40 31l84 -98l119 99l35 -33l-137 -142h-49zM173 443q10 14 23.5 29t33 27t44.5 19.5t57 7.5q38 0 64 -10.5t42.5 -29.5t24 -45.5t7.5 -57.5q0 -14 -2 -31.5t-4 -34.5l-49 -317h-89l49 315q5 28 5 53q0 18 -3.5 33.5t-12.5 27t-24 18.5t-38 7
q-36 0 -62.5 -15t-45 -38.5t-29.5 -53.5t-16 -60l-44 -287h-89l80 514h79l-5 -71h4z" />
    <glyph glyph-name="napostrophe" unicode="&#x149;" horiz-adv-x="567" 
d="M53 708h90l-6 -85l-49 -110l-43 10l30 86h-29zM216 443q10 14 23.5 29t33 27t44.5 19.5t57 7.5q38 0 64 -10.5t42.5 -29.5t24 -45.5t7.5 -57.5q0 -14 -2 -31.5t-4 -34.5l-49 -317h-89l49 315q5 28 5 53q0 18 -3.5 33.5t-12.5 27t-24 18.5t-38 7q-36 0 -62.5 -15
t-45 -38.5t-29.5 -53.5t-16 -60l-44 -287h-89l80 514h79l-5 -71h4z" />
    <glyph glyph-name="Eng" unicode="&#x14a;" horiz-adv-x="651" 
d="M217 604h-4l-94 -604h-88l116 734h122l188 -557h4l88 557h86l-115 -727q-7 -44 -21.5 -81t-39 -64t-62 -42t-91.5 -15q-38 0 -72 8t-46 16q1 3 5 13.5t8.5 23t8.5 23t5 13.5q13 -5 35.5 -12t56.5 -7q30 0 50.5 7.5t34 22.5t22 37.5t13.5 52.5z" />
    <glyph glyph-name="eng" unicode="&#x14b;" horiz-adv-x="525" 
d="M410 -24q-14 -92 -51.5 -131.5t-107.5 -39.5q-27 0 -49 4.5t-33 9.5l18 66q13 -4 26.5 -7t29.5 -3q17 0 29.5 5t21.5 17t15.5 32t11.5 51l53 335q5 28 5 53q0 18 -3.5 33.5t-12.5 27t-24 18.5t-38 7q-36 0 -62.5 -15t-45 -39t-29.5 -54.5t-16 -61.5l-44 -284h-89l80 514
h82l-7 -71h4q10 14 23.5 28.5t33 26.5t44.5 20t57 8q38 0 64 -11t42.5 -30t23.5 -45.5t7 -57.5q0 -14 -1 -28.5t-4 -29.5z" />
    <glyph glyph-name="Omacron" unicode="&#x14c;" horiz-adv-x="631" 
d="M281 867h261l-10 -68h-262zM262 -12q-112 0 -163.5 64t-51.5 191q0 56 7.5 115.5t24.5 115.5t43.5 105.5t65 87t89.5 59t116 21.5q107 0 157.5 -63.5t50.5 -188.5q0 -55 -7 -114t-23 -115.5t-41.5 -107t-63.5 -88.5t-88.5 -60t-115.5 -22zM275 67q43 0 77 19.5t59 52.5
t42.5 76.5t28 91.5t15.5 96.5t5 92.5q0 85 -27 128.5t-92 43.5q-49 0 -85 -22t-62.5 -58t-44 -82t-28 -94t-14.5 -94.5t-4 -82.5q0 -83 29 -125.5t101 -42.5z" />
    <glyph glyph-name="omacron" unicode="&#x14d;" horiz-adv-x="515" 
d="M187 688h261l-11 -66h-261zM213 58q50 0 82.5 29.5t51 72.5t26 91.5t7.5 86.5q0 25 -4.5 46.5t-16 37t-30 24.5t-46.5 9q-51 0 -83 -28.5t-51 -71t-26 -91.5t-7 -89q0 -25 4.5 -46.5t16 -37t30 -24.5t46.5 -9zM204 -12q-92 0 -135.5 49.5t-43.5 137.5q0 68 15 131.5
t47 112t82.5 78t122.5 29.5q92 0 135.5 -49.5t43.5 -137.5q0 -68 -15 -131.5t-47 -112.5t-82.5 -78t-122.5 -29z" />
    <glyph glyph-name="Obreve" unicode="&#x14e;" horiz-adv-x="631" 
d="M329 912q2 -35 20 -53.5t52 -18.5q65 0 102 73l52 -9q-21 -65 -62.5 -97.5t-101.5 -32.5q-57 0 -87.5 34.5t-27.5 95.5zM262 -12q-112 0 -163.5 64t-51.5 191q0 56 7.5 115.5t24.5 115.5t43.5 105.5t65 87t89.5 59t116 21.5q107 0 157.5 -63.5t50.5 -188.5q0 -55 -7 -114
t-23 -115.5t-41.5 -107t-63.5 -88.5t-88.5 -60t-115.5 -22zM275 67q43 0 77 19.5t59 52.5t42.5 76.5t28 91.5t15.5 96.5t5 92.5q0 85 -27 128.5t-92 43.5q-49 0 -85 -22t-62.5 -58t-44 -82t-28 -94t-14.5 -94.5t-4 -82.5q0 -83 29 -125.5t101 -42.5z" />
    <glyph glyph-name="obreve" unicode="&#x14f;" horiz-adv-x="515" 
d="M213 58q50 0 82.5 29.5t51 72.5t26 91.5t7.5 86.5q0 25 -4.5 46.5t-16 37t-30 24.5t-46.5 9q-51 0 -83 -28.5t-51 -71t-26 -91.5t-7 -89q0 -25 4.5 -46.5t16 -37t30 -24.5t46.5 -9zM204 -12q-92 0 -135.5 49.5t-43.5 137.5q0 68 15 131.5t47 112t82.5 78t122.5 29.5
q92 0 135.5 -49.5t43.5 -137.5q0 -68 -15 -131.5t-47 -112.5t-82.5 -78t-122.5 -29zM238 731q0 -83 66 -83q35 0 58.5 20.5t40.5 62.5l53 -7q-19 -71 -60.5 -106.5t-98.5 -35.5q-59 0 -88.5 36.5t-24.5 105.5z" />
    <glyph glyph-name="Ohungarumlaut" unicode="&#x150;" horiz-adv-x="631" 
d="M262 -12q-112 0 -163.5 64t-51.5 191q0 56 7.5 115.5t24.5 115.5t43.5 105.5t65 87t89.5 59t116 21.5q107 0 157.5 -63.5t50.5 -188.5q0 -55 -7 -114t-23 -115.5t-41.5 -107t-63.5 -88.5t-88.5 -60t-115.5 -22zM275 67q43 0 77 19.5t59 52.5t42.5 76.5t28 91.5t15.5 96.5
t5 92.5q0 85 -27 128.5t-92 43.5q-49 0 -85 -22t-62.5 -58t-44 -82t-28 -94t-14.5 -94.5t-4 -82.5q0 -83 29 -125.5t101 -42.5zM462 863l-164 -95l-24 39l151 118zM612 859l-167 -93l-23 40l154 114z" />
    <glyph glyph-name="ohungarumlaut" unicode="&#x151;" horiz-adv-x="515" 
d="M383 707l-147 -136l-33 30l127 152zM512 705l-152 -135l-32 32l133 149zM213 58q50 0 82.5 29.5t51 72.5t26 91.5t7.5 86.5q0 25 -4.5 46.5t-16 37t-30 24.5t-46.5 9q-51 0 -83 -28.5t-51 -71t-26 -91.5t-7 -89q0 -25 4.5 -46.5t16 -37t30 -24.5t46.5 -9zM204 -12
q-92 0 -135.5 49.5t-43.5 137.5q0 68 15 131.5t47 112t82.5 78t122.5 29.5q92 0 135.5 -49.5t43.5 -137.5q0 -68 -15 -131.5t-47 -112.5t-82.5 -78t-122.5 -29z" />
    <glyph glyph-name="OE" unicode="&#x152;" horiz-adv-x="854" 
d="M348 0q-22 -5 -44 -8.5t-45 -3.5q-109 0 -160 66t-51 195q0 52 7 109.5t23 112.5t41.5 105t63.5 88t88.5 60.5t115.5 22.5q24 0 48 -3.5t44 -9.5h381l-12 -78h-279l-38 -241h248l-12 -76h-248l-41 -261h300l-12 -78h-418zM277 67q26 0 53.5 4.5t53.5 14.5l88 559
q-18 11 -42.5 17t-50.5 6q-46 0 -81.5 -21.5t-61.5 -56.5t-43.5 -80t-28 -92.5t-15 -93.5t-4.5 -83q0 -84 31 -129t101 -45z" />
    <glyph glyph-name="oe" unicode="&#x153;" horiz-adv-x="827" 
d="M214 58q49 0 81.5 28.5t51 71t26 91t7.5 89.5q0 25 -4.5 46.5t-16 37t-30 24.5t-46.5 9q-50 0 -82 -28t-50.5 -69t-26 -87.5t-7.5 -83.5q0 -59 20.5 -94t76.5 -35zM694 302q3 17 5 32t2 29q0 44 -20 69.5t-67 25.5q-33 0 -58.5 -13t-43.5 -34.5t-29.5 -49.5t-17.5 -59
h229zM627 526q78 0 118 -43.5t40 -124.5q0 -26 -4 -56t-13 -63h-313q-2 -15 -4 -31t-2 -30q0 -25 4.5 -46.5t16 -37.5t30.5 -25.5t48 -9.5q47 0 79.5 26.5t49.5 86.5l78 -7q-13 -54 -36 -88.5t-51.5 -54t-61 -27t-63.5 -7.5q-63 0 -101 24.5t-56 66.5q-32 -42 -76 -66.5
t-106 -24.5q-91 0 -134.5 51t-43.5 144q0 60 14 121t45.5 110.5t82 80.5t123.5 31q60 0 97.5 -23.5t54.5 -65.5q32 41 77.5 65t106.5 24z" />
    <glyph glyph-name="Racute" unicode="&#x154;" horiz-adv-x="578" 
d="M286 318h-110l-49 -318h-95l116 734h212q60 0 99 -15t61.5 -40t31.5 -56.5t9 -64.5q0 -40 -10 -76t-31.5 -65.5t-55.5 -51.5t-82 -34l113 -331h-104zM268 394q40 0 75.5 7t61.5 24.5t41.5 48.5t15.5 79q0 51 -29 77.5t-101 26.5h-102l-41 -263h79zM473 848l-191 -85
l-20 46l179 109z" />
    <glyph glyph-name="racute" unicode="&#x155;" horiz-adv-x="414" 
d="M390 700l-161 -131l-33 33l141 152zM316 526q45 0 71 -22.5t26 -73.5q0 -17 -3 -37.5t-11 -44.5l-83 -5q11 44 11 66q0 26 -12 35.5t-35 9.5q-32 0 -55 -18t-39.5 -46.5t-26.5 -64t-16 -70.5l-39 -255h-89l80 514h80l-6 -71h4q20 33 55.5 58t87.5 25z" />
    <glyph glyph-name="Rcommaaccent" unicode="&#x156;" horiz-adv-x="578" 
d="M286 318h-110l-49 -318h-95l116 734h212q60 0 99 -15t61.5 -40t31.5 -56.5t9 -64.5q0 -40 -10 -76t-31.5 -65.5t-55.5 -51.5t-82 -34l113 -331h-104zM268 394q40 0 75.5 7t61.5 24.5t41.5 48.5t15.5 79q0 51 -29 77.5t-101 26.5h-102l-41 -263h79zM199 -46h90l-14 -85
l-59 -110l-40 10l36 86h-29z" />
    <glyph glyph-name="rcommaaccent" unicode="&#x157;" horiz-adv-x="414" 
d="M8 -46h90l-14 -85l-59 -110l-40 10l36 86h-29zM316 526q45 0 71 -22.5t26 -73.5q0 -17 -3 -37.5t-11 -44.5l-83 -5q11 44 11 66q0 26 -12 35.5t-35 9.5q-32 0 -55 -18t-39.5 -46.5t-26.5 -64t-16 -70.5l-39 -255h-89l80 514h80l-6 -71h4q20 33 55.5 58t87.5 25z" />
    <glyph glyph-name="Rcaron" unicode="&#x158;" horiz-adv-x="578" 
d="M306 766l-102 114l35 36l99 -78l130 79l26 -39l-138 -112h-50zM286 318h-110l-49 -318h-95l116 734h212q60 0 99 -15t61.5 -40t31.5 -56.5t9 -64.5q0 -40 -10 -76t-31.5 -65.5t-55.5 -51.5t-82 -34l113 -331h-104zM268 394q40 0 75.5 7t61.5 24.5t41.5 48.5t15.5 79
q0 51 -29 77.5t-101 26.5h-102l-41 -263h79z" />
    <glyph glyph-name="rcaron" unicode="&#x159;" horiz-adv-x="414" 
d="M234 579l-92 143l40 31l84 -98l119 99l35 -33l-137 -142h-49zM316 526q45 0 71 -22.5t26 -73.5q0 -17 -3 -37.5t-11 -44.5l-83 -5q11 44 11 66q0 26 -12 35.5t-35 9.5q-32 0 -55 -18t-39.5 -46.5t-26.5 -64t-16 -70.5l-39 -255h-89l80 514h80l-6 -71h4q20 33 55.5 58
t87.5 25z" />
    <glyph glyph-name="Sacute" unicode="&#x15a;" horiz-adv-x="544" 
d="M436 510q6 78 -18.5 118t-91.5 40q-63 0 -102.5 -34t-39.5 -93q0 -28 8.5 -47t24 -32t36.5 -22.5t45 -18.5q33 -12 66.5 -24.5t61.5 -33t45.5 -52t17.5 -80.5q0 -58 -19 -103t-54 -76t-83.5 -47.5t-106.5 -16.5q-233 0 -214 229l95 13q-3 -39 1 -69t18 -50.5t40 -31
t67 -10.5q71 0 113.5 39t42.5 107q0 28 -9.5 47.5t-26 33t-39.5 23.5t-49 18q-35 11 -67.5 24t-57.5 34t-40.5 52.5t-15.5 78.5q0 54 19 95t52.5 69t79.5 42.5t99 14.5q108 0 156.5 -58.5t38.5 -164.5zM468 851l-191 -85l-20 46l179 109z" />
    <glyph glyph-name="sacute" unicode="&#x15b;" horiz-adv-x="444" 
d="M389 700l-161 -131l-33 33l141 152zM331 358q3 49 -14 74.5t-68 25.5q-45 0 -75 -18.5t-30 -60.5q0 -19 7 -32t19 -22t28 -15.5t34 -11.5q25 -8 52 -16t48.5 -22.5t35.5 -39t14 -63.5q0 -43 -16.5 -75t-45 -53t-67 -31t-81.5 -10q-87 0 -130 38.5t-38 121.5l82 12
q-1 -25 2 -44.5t13 -32.5t28 -19.5t48 -6.5q54 0 85 21.5t31 66.5q0 23 -10 37.5t-26 23.5t-36.5 15t-41.5 12q-23 6 -44.5 14.5t-38.5 23t-27.5 37t-10.5 57.5q0 42 16.5 72.5t44 50t63 29t73.5 9.5q84 0 122.5 -40t33.5 -116z" />
    <glyph glyph-name="Scircumflex" unicode="&#x15c;" horiz-adv-x="544" 
d="M436 510q6 78 -18.5 118t-91.5 40q-63 0 -102.5 -34t-39.5 -93q0 -28 8.5 -47t24 -32t36.5 -22.5t45 -18.5q33 -12 66.5 -24.5t61.5 -33t45.5 -52t17.5 -80.5q0 -58 -19 -103t-54 -76t-83.5 -47.5t-106.5 -16.5q-233 0 -214 229l95 13q-3 -39 1 -69t18 -50.5t40 -31
t67 -10.5q71 0 113.5 39t42.5 107q0 28 -9.5 47.5t-26 33t-39.5 23.5t-49 18q-35 11 -67.5 24t-57.5 34t-40.5 52.5t-15.5 78.5q0 54 19 95t52.5 69t79.5 42.5t99 14.5q108 0 156.5 -58.5t38.5 -164.5zM395 915l101 -114l-33 -37l-100 80l-133 -80l-24 37l139 114h50z" />
    <glyph glyph-name="scircumflex" unicode="&#x15d;" horiz-adv-x="444" 
d="M312 743l92 -142l-41 -32l-85 99l-120 -99l-32 32l136 142h50zM331 358q3 49 -14 74.5t-68 25.5q-45 0 -75 -18.5t-30 -60.5q0 -19 7 -32t19 -22t28 -15.5t34 -11.5q25 -8 52 -16t48.5 -22.5t35.5 -39t14 -63.5q0 -43 -16.5 -75t-45 -53t-67 -31t-81.5 -10
q-87 0 -130 38.5t-38 121.5l82 12q-1 -25 2 -44.5t13 -32.5t28 -19.5t48 -6.5q54 0 85 21.5t31 66.5q0 23 -10 37.5t-26 23.5t-36.5 15t-41.5 12q-23 6 -44.5 14.5t-38.5 23t-27.5 37t-10.5 57.5q0 42 16.5 72.5t44 50t63 29t73.5 9.5q84 0 122.5 -40t33.5 -116z" />
    <glyph glyph-name="Scedilla" unicode="&#x15e;" horiz-adv-x="544" 
d="M198 -11q-204 13 -186 228l95 13q-3 -39 1 -69t18 -50.5t40 -31t67 -10.5q71 0 113.5 39t42.5 107q0 28 -9.5 47.5t-26 33t-39.5 23.5t-49 18q-35 11 -67.5 24t-57.5 34t-40.5 52.5t-15.5 78.5q0 54 19 95t52.5 69t79.5 42.5t99 14.5q108 0 156.5 -58.5t38.5 -164.5
l-93 -14q6 78 -18.5 118t-91.5 40q-63 0 -102.5 -34t-39.5 -93q0 -28 8.5 -47t24 -32t36.5 -22.5t45 -18.5q33 -12 66.5 -24.5t61.5 -33t45.5 -52t17.5 -80.5q0 -55 -17.5 -98.5t-49.5 -74.5t-76.5 -48.5t-98.5 -20.5l-24 -39q13 5 28 5q32 0 48.5 -18.5t16.5 -48.5
q0 -26 -10.5 -45.5t-27.5 -32.5t-38.5 -19.5t-43.5 -6.5q-26 0 -50.5 10.5t-40.5 41.5l42 31q17 -31 50 -31q21 0 34.5 11t13.5 34q0 32 -32 32q-16 0 -29 -10l-27 14z" />
    <glyph glyph-name="scedilla" unicode="&#x15f;" horiz-adv-x="444" 
d="M144 -11q-73 6 -109 44.5t-31 114.5l82 12q-1 -25 2 -44.5t13 -32.5t28 -19.5t48 -6.5q54 0 85 21.5t31 66.5q0 23 -10 37.5t-26 23.5t-36.5 15t-41.5 12q-23 6 -44.5 14.5t-38.5 23t-27.5 37t-10.5 57.5q0 42 16.5 72.5t44 50t63 29t73.5 9.5q84 0 122.5 -40t33.5 -116
l-80 -12q3 49 -14 74.5t-68 25.5q-45 0 -75 -18.5t-30 -60.5q0 -19 7 -32t19 -22t28 -15.5t34 -11.5q25 -8 52 -16t48.5 -22.5t35.5 -39t14 -63.5q0 -41 -14.5 -71t-40 -51t-60 -32t-73.5 -14l-25 -39q13 5 28 5q32 0 48.5 -18.5t16.5 -48.5q0 -26 -10.5 -45.5t-27.5 -32.5
t-38.5 -19.5t-43.5 -6.5q-26 0 -50.5 10.5t-40.5 41.5l42 31q17 -31 50 -31q21 0 34.5 11t13.5 34q0 32 -32 32q-16 0 -29 -10l-27 14z" />
    <glyph glyph-name="Scaron" unicode="&#x160;" horiz-adv-x="544" 
d="M436 510q6 78 -18.5 118t-91.5 40q-63 0 -102.5 -34t-39.5 -93q0 -28 8.5 -47t24 -32t36.5 -22.5t45 -18.5q33 -12 66.5 -24.5t61.5 -33t45.5 -52t17.5 -80.5q0 -58 -19 -103t-54 -76t-83.5 -47.5t-106.5 -16.5q-233 0 -214 229l95 13q-3 -39 1 -69t18 -50.5t40 -31
t67 -10.5q71 0 113.5 39t42.5 107q0 28 -9.5 47.5t-26 33t-39.5 23.5t-49 18q-35 11 -67.5 24t-57.5 34t-40.5 52.5t-15.5 78.5q0 54 19 95t52.5 69t79.5 42.5t99 14.5q108 0 156.5 -58.5t38.5 -164.5zM314 777l-102 114l35 36l99 -78l130 79l26 -39l-138 -112h-50z" />
    <glyph glyph-name="scaron" unicode="&#x161;" horiz-adv-x="444" 
d="M236 579l-92 143l40 31l84 -98l119 99l35 -33l-137 -142h-49zM331 358q3 49 -14 74.5t-68 25.5q-45 0 -75 -18.5t-30 -60.5q0 -19 7 -32t19 -22t28 -15.5t34 -11.5q25 -8 52 -16t48.5 -22.5t35.5 -39t14 -63.5q0 -43 -16.5 -75t-45 -53t-67 -31t-81.5 -10
q-87 0 -130 38.5t-38 121.5l82 12q-1 -25 2 -44.5t13 -32.5t28 -19.5t48 -6.5q54 0 85 21.5t31 66.5q0 23 -10 37.5t-26 23.5t-36.5 15t-41.5 12q-23 6 -44.5 14.5t-38.5 23t-27.5 37t-10.5 57.5q0 42 16.5 72.5t44 50t63 29t73.5 9.5q84 0 122.5 -40t33.5 -116z" />
    <glyph glyph-name="Scommaaccent" unicode="&#x218;" horiz-adv-x="544" 
d="M436 510q6 78 -18.5 118t-91.5 40q-63 0 -102.5 -34t-39.5 -93q0 -28 8.5 -47t24 -32t36.5 -22.5t45 -18.5q33 -12 66.5 -24.5t61.5 -33t45.5 -52t17.5 -80.5q0 -58 -19 -103t-54 -76t-83.5 -47.5t-106.5 -16.5q-233 0 -214 229l95 13q-3 -39 1 -69t18 -50.5t40 -31
t67 -10.5q71 0 113.5 39t42.5 107q0 28 -9.5 47.5t-26 33t-39.5 23.5t-49 18q-35 11 -67.5 24t-57.5 34t-40.5 52.5t-15.5 78.5q0 54 19 95t52.5 69t79.5 42.5t99 14.5q108 0 156.5 -58.5t38.5 -164.5zM177 -46h90l-14 -85l-59 -110l-40 10l36 86h-29z" />
    <glyph glyph-name="scommaaccent" unicode="&#x219;" horiz-adv-x="444" 
d="M127 -46h90l-14 -85l-59 -110l-40 10l36 86h-29zM331 358q3 49 -14 74.5t-68 25.5q-45 0 -75 -18.5t-30 -60.5q0 -19 7 -32t19 -22t28 -15.5t34 -11.5q25 -8 52 -16t48.5 -22.5t35.5 -39t14 -63.5q0 -43 -16.5 -75t-45 -53t-67 -31t-81.5 -10q-87 0 -130 38.5t-38 121.5
l82 12q-1 -25 2 -44.5t13 -32.5t28 -19.5t48 -6.5q54 0 85 21.5t31 66.5q0 23 -10 37.5t-26 23.5t-36.5 15t-41.5 12q-23 6 -44.5 14.5t-38.5 23t-27.5 37t-10.5 57.5q0 42 16.5 72.5t44 50t63 29t73.5 9.5q84 0 122.5 -40t33.5 -116z" />
    <glyph glyph-name="uni021A" unicode="&#x21a;" horiz-adv-x="509" 
d="M261 656h-195l13 78h484l-13 -78h-194l-104 -656h-95zM150 -46h90l-14 -85l-59 -110l-40 10l36 86h-29z" />
    <glyph glyph-name="uni021B" unicode="&#x21b;" horiz-adv-x="325" 
d="M100 -46h90l-14 -85l-59 -110l-40 10l36 86h-29zM51 514h62l16 107l94 30l-22 -137h116l-10 -69h-117l-47 -299q-3 -20 -3 -36q0 -26 12 -38.5t44 -12.5q18 0 34.5 3t31.5 8l-1 -67q-14 -5 -38.5 -10t-52.5 -5q-64 0 -92 28t-28 81q0 11 1 23.5t3 24.5l47 300h-61z" />
    <glyph glyph-name="Tcaron" unicode="&#x164;" horiz-adv-x="509" 
d="M298 766l-102 114l35 36l99 -78l130 79l26 -39l-138 -112h-50zM261 656h-195l13 78h484l-13 -78h-194l-104 -656h-95z" />
    <glyph glyph-name="tcaron" unicode="&#x165;" horiz-adv-x="325" 
d="M365 754l-58 -192l-49 3l29 189h78zM51 514h62l16 107l94 30l-22 -137h116l-10 -69h-117l-47 -299q-3 -20 -3 -36q0 -26 12 -38.5t44 -12.5q18 0 34.5 3t31.5 8l-1 -67q-14 -5 -38.5 -10t-52.5 -5q-64 0 -92 28t-28 81q0 11 1 23.5t3 24.5l47 300h-61z" />
    <glyph glyph-name="Tbar" unicode="&#x166;" horiz-adv-x="509" 
d="M213 353h-149l12 73h148l37 230h-195l13 78h484l-13 -78h-194l-37 -230h152l-11 -73h-152l-56 -353h-95z" />
    <glyph glyph-name="tbar" unicode="&#x167;" horiz-adv-x="325" 
d="M51 514h62l16 107l94 30l-22 -137h116l-10 -69h-117l-15 -95h116l-11 -65h-115l-22 -139q-3 -20 -3 -36q0 -26 12 -38.5t44 -12.5q18 0 34.5 3t31.5 8l-1 -67q-14 -5 -38.5 -10t-52.5 -5q-64 0 -92 28t-28 81q0 11 1 23.5t3 24.5l22 140h-61l10 65h61l15 95h-61z" />
    <glyph glyph-name="uni0162" unicode="&#x162;" horiz-adv-x="509" 
d="M261 656h-195l13 78h484l-13 -78h-194l-104 -656h-24l-32 -50q13 5 28 5q32 0 48.5 -18.5t16.5 -48.5q0 -26 -10.5 -45.5t-27.5 -32.5t-38.5 -19.5t-43.5 -6.5q-26 0 -50.5 10.5t-40.5 41.5l42 31q17 -31 50 -31q21 0 34.5 11t13.5 34q0 32 -32 32q-16 0 -29 -10l-27 14
l47 83h-20z" />
    <glyph glyph-name="uni0163" unicode="&#x163;" horiz-adv-x="325" 
d="M115 -5q-35 11 -50 36.5t-15 65.5q0 11 1 23.5t3 24.5l47 300h-61l11 69h62l16 107l94 30l-22 -137h116l-10 -69h-117l-47 -299q-3 -20 -3 -36q0 -26 12 -38.5t44 -12.5q18 0 34.5 3t31.5 8l-1 -67q-14 -5 -38.5 -10t-52.5 -5h-9l-24 -38q13 5 28 5q32 0 48.5 -18.5
t16.5 -48.5q0 -26 -10.5 -45.5t-27.5 -32.5t-38.5 -19.5t-43.5 -6.5q-26 0 -50.5 10.5t-40.5 41.5l42 31q17 -31 50 -31q21 0 34.5 11t13.5 34q0 32 -32 32q-16 0 -29 -10l-27 14z" />
    <glyph glyph-name="Utilde" unicode="&#x168;" horiz-adv-x="643" 
d="M251 791q19 54 44.5 73.5t48.5 19.5q18 0 34.5 -4t31 -9t27 -9t23.5 -4t22 7.5t19 28.5l46 -8q-20 -56 -45.5 -75.5t-48.5 -19.5q-19 0 -35.5 4t-31.5 9l-27 9t-22 4q-12 0 -22 -7.5t-18 -26.5zM539 734h95l-79 -494q-20 -124 -87 -188t-193 -64q-115 0 -165.5 52.5
t-50.5 142.5q0 17 2 34.5t5 35.5l76 481h95l-74 -466q-3 -22 -5 -40.5t-2 -35.5q0 -66 30.5 -95.5t96.5 -29.5q40 0 70 10.5t51.5 34t36 60t22.5 89.5z" />
    <glyph glyph-name="utilde" unicode="&#x169;" horiz-adv-x="513" 
d="M321 70q-10 -14 -24 -28.5t-33 -26.5t-43 -19.5t-54 -7.5q-73 0 -103 37.5t-30 99.5q0 14 1 29t3 29l52 331h89l-49 -316q-6 -32 -6 -59q0 -17 3 -31.5t11.5 -25t22.5 -16.5t36 -6q34 0 59.5 15t44 39t29.5 54t16 60l44 286h89l-80 -514h-80l6 70h-4zM162 617
q19 53 44.5 72.5t48.5 19.5q18 0 34 -4t30 -8.5t26 -8.5t23 -4t22 7.5t19 27.5l46 -8q-10 -28 -21.5 -46t-23.5 -28.5t-24.5 -15t-24.5 -4.5q-19 0 -35 4t-30.5 8.5t-26.5 8.5t-22 4q-11 0 -21 -7.5t-18 -26.5z" />
    <glyph glyph-name="Umacron" unicode="&#x16a;" horiz-adv-x="643" 
d="M272 867h261l-10 -68h-262zM539 734h95l-79 -494q-20 -124 -87 -188t-193 -64q-115 0 -165.5 52.5t-50.5 142.5q0 17 2 34.5t5 35.5l76 481h95l-74 -466q-3 -22 -5 -40.5t-2 -35.5q0 -66 30.5 -95.5t96.5 -29.5q40 0 70 10.5t51.5 34t36 60t22.5 89.5z" />
    <glyph glyph-name="umacron" unicode="&#x16b;" horiz-adv-x="513" 
d="M321 70q-10 -14 -24 -28.5t-33 -26.5t-43 -19.5t-54 -7.5q-73 0 -103 37.5t-30 99.5q0 14 1 29t3 29l52 331h89l-49 -316q-6 -32 -6 -59q0 -17 3 -31.5t11.5 -25t22.5 -16.5t36 -6q34 0 59.5 15t44 39t29.5 54t16 60l44 286h89l-80 -514h-80l6 70h-4zM180 688h261
l-11 -66h-261z" />
    <glyph glyph-name="Ubreve" unicode="&#x16c;" horiz-adv-x="643" 
d="M325 907q2 -35 20 -53.5t52 -18.5q65 0 102 73l52 -9q-21 -65 -62.5 -97.5t-101.5 -32.5q-57 0 -87.5 34.5t-27.5 95.5zM539 734h95l-79 -494q-20 -124 -87 -188t-193 -64q-115 0 -165.5 52.5t-50.5 142.5q0 17 2 34.5t5 35.5l76 481h95l-74 -466q-3 -22 -5 -40.5
t-2 -35.5q0 -66 30.5 -95.5t96.5 -29.5q40 0 70 10.5t51.5 34t36 60t22.5 89.5z" />
    <glyph glyph-name="ubreve" unicode="&#x16d;" horiz-adv-x="513" 
d="M321 70q-10 -14 -24 -28.5t-33 -26.5t-43 -19.5t-54 -7.5q-73 0 -103 37.5t-30 99.5q0 14 1 29t3 29l52 331h89l-49 -316q-6 -32 -6 -59q0 -17 3 -31.5t11.5 -25t22.5 -16.5t36 -6q34 0 59.5 15t44 39t29.5 54t16 60l44 286h89l-80 -514h-80l6 70h-4zM234 731
q0 -83 66 -83q35 0 58.5 20.5t40.5 62.5l53 -7q-19 -71 -60.5 -106.5t-98.5 -35.5q-59 0 -88.5 36.5t-24.5 105.5z" />
    <glyph glyph-name="Uring" unicode="&#x16e;" horiz-adv-x="643" 
d="M539 734h95l-79 -494q-20 -124 -87 -188t-193 -64q-115 0 -165.5 52.5t-50.5 142.5q0 17 2 34.5t5 35.5l76 481h95l-74 -466q-3 -22 -5 -40.5t-2 -35.5q0 -66 30.5 -95.5t96.5 -29.5q40 0 70 10.5t51.5 34t36 60t22.5 89.5zM383 761q-45 0 -63 20t-18 48q0 27 10 47
t26 33.5t36.5 20.5t41.5 7q45 0 63.5 -20t18.5 -48q0 -27 -10 -47.5t-26 -34t-37 -20t-42 -6.5zM391 803q20 0 33.5 16t13.5 44q0 15 -6.5 23.5t-23.5 8.5q-21 0 -34.5 -15.5t-13.5 -44.5q0 -15 7 -23.5t24 -8.5z" />
    <glyph glyph-name="uring" unicode="&#x16f;" horiz-adv-x="513" 
d="M289 577q-45 0 -63.5 20t-18.5 48q0 27 10 47t26 33.5t36.5 20t41.5 6.5q45 0 63.5 -20t18.5 -48q0 -27 -10 -47t-26 -33.5t-36.5 -20t-41.5 -6.5zM296 619q20 0 33.5 16t13.5 43q0 16 -6.5 24t-23.5 8q-21 0 -34.5 -15.5t-13.5 -43.5q0 -16 7 -24t24 -8zM321 70
q-10 -14 -24 -28.5t-33 -26.5t-43 -19.5t-54 -7.5q-73 0 -103 37.5t-30 99.5q0 14 1 29t3 29l52 331h89l-49 -316q-6 -32 -6 -59q0 -17 3 -31.5t11.5 -25t22.5 -16.5t36 -6q34 0 59.5 15t44 39t29.5 54t16 60l44 286h89l-80 -514h-80l6 70h-4z" />
    <glyph glyph-name="Uhungarumlaut" unicode="&#x170;" horiz-adv-x="643" 
d="M539 734h95l-79 -494q-20 -124 -87 -188t-193 -64q-115 0 -165.5 52.5t-50.5 142.5q0 17 2 34.5t5 35.5l76 481h95l-74 -466q-3 -22 -5 -40.5t-2 -35.5q0 -66 30.5 -95.5t96.5 -29.5q40 0 70 10.5t51.5 34t36 60t22.5 89.5zM461 863l-164 -95l-24 39l151 118zM611 859
l-167 -93l-23 40l154 114z" />
    <glyph glyph-name="uhungarumlaut" unicode="&#x171;" horiz-adv-x="513" 
d="M321 70q-10 -14 -24 -28.5t-33 -26.5t-43 -19.5t-54 -7.5q-73 0 -103 37.5t-30 99.5q0 14 1 29t3 29l52 331h89l-49 -316q-6 -32 -6 -59q0 -17 3 -31.5t11.5 -25t22.5 -16.5t36 -6q34 0 59.5 15t44 39t29.5 54t16 60l44 286h89l-80 -514h-80l6 70h-4zM370 707l-147 -136
l-33 30l127 152zM499 705l-152 -135l-32 32l133 149z" />
    <glyph glyph-name="Uogonek" unicode="&#x172;" horiz-adv-x="643" 
d="M539 734h95l-79 -494q-14 -86 -49 -139.5t-94 -88.5q-50 -29 -74.5 -64t-24.5 -59q0 -12 6.5 -16.5t17.5 -4.5q16 0 29 9.5t25 24.5l37 -25q-24 -36 -57 -54t-69 -18q-32 0 -50 14t-18 40q1 34 24 68t63 64q-23 -3 -46 -3q-115 0 -165.5 52.5t-50.5 142.5q0 17 2 34.5
t5 35.5l76 481h95l-74 -466q-3 -22 -5 -40.5t-2 -35.5q0 -66 30.5 -95.5t96.5 -29.5q40 0 70 10.5t51.5 34t36 60t22.5 89.5z" />
    <glyph glyph-name="uogonek" unicode="&#x173;" horiz-adv-x="513" 
d="M321 70q-10 -14 -24 -28.5t-33 -26.5t-43 -19.5t-54 -7.5q-73 0 -103 37.5t-30 99.5q0 14 1 29t3 29l52 331h89l-49 -316q-2 -16 -4 -30.5t-2 -28.5q0 -17 3 -31.5t11.5 -25t22.5 -16.5t36 -6q34 0 59.5 15t44 39t29.5 54t16 60l44 286h89l-80 -514q-40 -26 -63.5 -55.5
t-23.5 -54.5q0 -22 24 -22q16 0 29 10t24 25l38 -26q-24 -36 -57.5 -54t-68.5 -18q-34 0 -51 14t-17 40q0 37 25 72t61 69l6 70h-4z" />
    <glyph glyph-name="Wcircumflex" unicode="&#x174;" horiz-adv-x="852" 
d="M508 0l-37 594h-4l-220 -594h-127l-42 734h95l23 -643h4l240 643h102l41 -643h4l225 643h94l-274 -734h-124zM543 914l101 -114l-33 -37l-100 80l-133 -80l-24 37l139 114h50z" />
    <glyph glyph-name="wcircumflex" unicode="&#x175;" horiz-adv-x="731" 
d="M455 743l92 -142l-41 -32l-85 99l-120 -99l-32 32l136 142h50zM380 416l-175 -416h-96l-69 514h92l40 -413h4l173 413h98l44 -413h4l168 413h92l-231 -514h-96l-44 416h-4z" />
    <glyph glyph-name="Wgrave" unicode="&#x1e80;" horiz-adv-x="852" 
d="M588 808l-30 -44l-165 86l46 68zM508 0l-37 594h-4l-220 -594h-127l-42 734h95l23 -643h4l240 643h102l41 -643h4l225 643h94l-274 -734h-124z" />
    <glyph glyph-name="wgrave" unicode="&#x1e81;" horiz-adv-x="731" 
d="M380 416l-175 -416h-96l-69 514h92l40 -413h4l173 413h98l44 -413h4l168 413h92l-231 -514h-96l-44 416h-4zM380 754l99 -153l-40 -32l-120 135z" />
    <glyph glyph-name="Wacute" unicode="&#x1e82;" horiz-adv-x="852" 
d="M630 848l-191 -85l-20 46l179 109zM508 0l-37 594h-4l-220 -594h-127l-42 734h95l23 -643h4l240 643h102l41 -643h4l225 643h94l-274 -734h-124z" />
    <glyph glyph-name="wacute" unicode="&#x1e83;" horiz-adv-x="731" 
d="M528 700l-161 -131l-33 33l141 152zM380 416l-175 -416h-96l-69 514h92l40 -413h4l173 413h98l44 -413h4l168 413h92l-231 -514h-96l-44 416h-4z" />
    <glyph glyph-name="Wdieresis" unicode="&#x1e84;" horiz-adv-x="852" 
d="M396 881h81l-16 -97h-80zM551 881h81l-15 -97h-81zM508 0l-37 594h-4l-220 -594h-127l-42 734h95l23 -643h4l240 643h102l41 -643h4l225 643h94l-274 -734h-124z" />
    <glyph glyph-name="wdieresis" unicode="&#x1e85;" horiz-adv-x="731" 
d="M308 709h81l-15 -96h-81zM463 709h80l-15 -96h-81zM380 416l-175 -416h-96l-69 514h92l40 -413h4l173 413h98l44 -413h4l168 413h92l-231 -514h-96l-44 416h-4z" />
    <glyph glyph-name="Ygrave" unicode="&#x1ef2;" horiz-adv-x="532" 
d="M264 0h-94l44 279l-150 455h101l109 -364l224 364h103l-294 -457zM416 808l-30 -44l-165 86l46 68z" />
    <glyph glyph-name="ygrave" unicode="&#x1ef3;" horiz-adv-x="431" 
d="M206 -6q-24 -48 -44 -84t-42 -59t-49 -34.5t-65 -11.5q-21 0 -41 4t-31 8l20 64q13 -4 23 -6.5t27 -2.5q38 0 62 29.5t47 82.5l9 20l-85 510h94l50 -405h4l179 405h93zM221 754l99 -153l-40 -32l-120 135z" />
    <glyph glyph-name="Ycircumflex" unicode="&#x176;" horiz-adv-x="532" 
d="M264 0h-94l44 279l-150 455h101l109 -364l224 364h103l-294 -457zM383 914l101 -114l-33 -37l-100 80l-133 -80l-24 37l139 114h50z" />
    <glyph glyph-name="ycircumflex" unicode="&#x177;" horiz-adv-x="431" 
d="M206 -6q-24 -48 -44 -84t-42 -59t-49 -34.5t-65 -11.5q-21 0 -41 4t-31 8l20 64q13 -4 23 -6.5t27 -2.5q38 0 62 29.5t47 82.5l9 20l-85 510h94l50 -405h4l179 405h93zM304 743l92 -142l-41 -32l-85 99l-120 -99l-32 32l136 142h50z" />
    <glyph glyph-name="Ydieresis" unicode="&#x178;" horiz-adv-x="532" 
d="M264 0h-94l44 279l-150 455h101l109 -364l224 364h103l-294 -457zM231 881h81l-16 -97h-80zM386 881h81l-15 -97h-81z" />
    <glyph glyph-name="Zacute" unicode="&#x179;" horiz-adv-x="495" 
d="M105 734h424l-12 -73l-421 -583h329l-12 -78h-436l11 72l420 584h-315zM452 848l-191 -85l-20 46l179 109z" />
    <glyph glyph-name="zacute" unicode="&#x17a;" horiz-adv-x="414" 
d="M373 700l-161 -131l-33 33l141 152zM68 514h351l-10 -65l-318 -379h259l-11 -70h-363l10 64l317 380h-246z" />
    <glyph glyph-name="Zdotaccent" unicode="&#x17b;" horiz-adv-x="495" 
d="M288 897h91l-17 -107h-91zM105 734h424l-12 -73l-421 -583h329l-12 -78h-436l11 72l420 584h-315z" />
    <glyph glyph-name="zdotaccent" unicode="&#x17c;" horiz-adv-x="414" 
d="M68 514h351l-10 -65l-318 -379h259l-11 -70h-363l10 64l317 380h-246zM224 734h89l-17 -107h-89z" />
    <glyph glyph-name="Zcaron" unicode="&#x17d;" horiz-adv-x="495" 
d="M291 766l-102 114l35 36l99 -78l130 79l26 -39l-138 -112h-50zM105 734h424l-12 -73l-421 -583h329l-12 -78h-436l11 72l420 584h-315z" />
    <glyph glyph-name="zcaron" unicode="&#x17e;" horiz-adv-x="414" 
d="M220 579l-92 143l40 31l84 -98l119 99l35 -33l-137 -142h-49zM68 514h351l-10 -65l-318 -379h259l-11 -70h-363l10 64l317 380h-246z" />
    <glyph glyph-name="longs" unicode="&#x17f;" horiz-adv-x="297" 
d="M124 591q5 33 17.5 61.5t32.5 49.5t49.5 32.5t68.5 11.5q30 0 54 -5.5t36 -9.5l-19 -66q-14 5 -30 8t-35 3q-41 0 -60 -23.5t-28 -80.5l-90 -572h-89z" />
    <glyph glyph-name="dotlessj" unicode="&#x237;" horiz-adv-x="218" 
d="M-122 -115q13 -4 26.5 -7t29.5 -3q34 0 52 21.5t27 83.5l84 534h89l-85 -538q-14 -92 -51.5 -131.5t-107.5 -39.5q-27 0 -49 4.5t-34 9.5z" />
    <glyph glyph-name="circumflex" unicode="&#x2c6;" 
d="M342 743l92 -142l-41 -32l-85 99l-120 -99l-32 32l136 142h50z" />
    <glyph glyph-name="caron" unicode="&#x2c7;" horiz-adv-x="499" 
d="M267 579l-92 143l40 31l84 -98l119 99l35 -33l-137 -142h-49z" />
    <glyph glyph-name="uni02C9" unicode="&#x2c9;" 
d="M129 688h261l-11 -66h-261z" />
    <glyph glyph-name="breve" unicode="&#x2d8;" 
d="M234 731q0 -83 66 -83q35 0 58.5 20.5t40.5 62.5l53 -7q-19 -71 -60.5 -106.5t-98.5 -35.5q-59 0 -88.5 36.5t-24.5 105.5z" />
    <glyph glyph-name="dieresis" unicode="&#xa8;" 
d="M194 709h81l-15 -96h-81zM349 709h80l-15 -96h-81z" />
    <glyph glyph-name="macron" unicode="&#xaf;" 
d="M178 688h261l-11 -66h-261z" />
    <glyph glyph-name="degree" unicode="&#xb0;" horiz-adv-x="295" 
d="M190 527q-50 0 -77.5 28.5t-27.5 77.5q0 27 9 47.5t24 34.5t35 21t42 7q48 0 76.5 -27t28.5 -78q0 -53 -30 -82t-80 -29zM193 572q23 0 38.5 14.5t15.5 48.5q0 35 -16 49t-37 14q-23 0 -40 -14.5t-17 -48.5q0 -35 15.5 -49t40.5 -14z" />
    <glyph glyph-name="acute" unicode="&#xb4;" 
d="M422 700l-161 -131l-33 33l141 152z" />
    <glyph glyph-name="grave" unicode="`" 
d="M262 754l99 -153l-40 -32l-120 135z" />
    <glyph glyph-name="cedilla" unicode="&#xb8;" 
d="M187 0h51l-32 -50q13 5 28 5q32 0 48.5 -18.5t16.5 -48.5q0 -26 -10.5 -45.5t-27.5 -32.5t-38.5 -19.5t-43.5 -6.5q-26 0 -50.5 10.5t-40.5 41.5l42 31q17 -31 50 -31q21 0 34.5 11t13.5 34q0 32 -32 32q-16 0 -29 -10l-27 14z" />
    <glyph glyph-name="dotaccent" unicode="&#x2d9;" 
d="M271 734h89l-17 -107h-89z" />
    <glyph glyph-name="ring" unicode="&#x2da;" 
d="M289 577q-45 0 -63.5 20t-18.5 48q0 27 10 47t26 33.5t36.5 20t41.5 6.5q45 0 63.5 -20t18.5 -48q0 -27 -10 -47t-26 -33.5t-36.5 -20t-41.5 -6.5zM296 619q20 0 33.5 16t13.5 43q0 16 -6.5 24t-23.5 8q-21 0 -34.5 -15.5t-13.5 -43.5q0 -16 7 -24t24 -8z" />
    <glyph glyph-name="ogonek" unicode="&#x2db;" 
d="M233 5q-13 -13 -25.5 -28t-23 -30t-17 -29.5t-6.5 -27.5q0 -22 24 -22q16 0 29 10t24 25l38 -26q-24 -36 -57.5 -54t-68.5 -18q-34 0 -51 14t-17 40q0 19 8.5 39t23 39t32.5 36.5t38 33.5z" />
    <glyph glyph-name="tilde" unicode="&#x2dc;" 
d="M160 617q19 53 44.5 72.5t48.5 19.5q18 0 34 -4t30 -8.5t26 -8.5t23 -4t22 7.5t19 27.5l46 -8q-10 -28 -21.5 -46t-23.5 -28.5t-24.5 -15t-24.5 -4.5q-19 0 -35 4t-30.5 8.5t-26.5 8.5t-22 4q-11 0 -21 -7.5t-18 -26.5z" />
    <glyph glyph-name="hungarumlaut" unicode="&#x2dd;" 
d="M382 707l-147 -136l-33 30l127 152zM511 705l-152 -135l-32 32l133 149z" />
    <glyph glyph-name="perthousand" unicode="&#x2030;" horiz-adv-x="952" 
d="M728 -12q-63 0 -93.5 35t-30.5 101q0 41 11.5 79t35 67t58 46t81.5 17q61 0 91.5 -33.5t30.5 -96.5q0 -43 -11 -82t-33.5 -68.5t-57 -47t-82.5 -17.5zM735 45q30 0 50.5 14.5t33 37t17.5 49t5 50.5q0 41 -14.5 60.5t-47.5 19.5q-29 0 -49 -14.5t-32 -37t-17.5 -49.5
t-5.5 -51q0 -39 14 -59t46 -20zM396 -12q-63 0 -93.5 35t-30.5 101q0 41 11.5 79t35 67t58 46t81.5 17q61 0 91.5 -33.5t30.5 -96.5q0 -43 -11 -82t-33.5 -68.5t-57 -47t-82.5 -17.5zM403 45q30 0 50.5 14.5t33 37t17.5 49t5 50.5q0 41 -14.5 60.5t-47.5 19.5
q-29 0 -49 -14.5t-32 -37t-17.5 -49.5t-5.5 -51q0 -39 14 -59t46 -20zM640 602l35 -53l-603 -381l-32 56zM180 389q-63 0 -93.5 35t-30.5 101q0 41 11.5 79t35 67t58 46t81.5 17q61 0 91.5 -33.5t30.5 -96.5q0 -43 -11 -82t-33.5 -68.5t-57 -47t-82.5 -17.5zM187 446
q30 0 50.5 14.5t33 37t17.5 49t5 50.5q0 41 -14.5 60.5t-47.5 19.5q-29 0 -49 -14.5t-32 -37t-17.5 -49.5t-5.5 -51q0 -39 14 -59t46 -20z" />
    <glyph glyph-name="percent" unicode="%" horiz-adv-x="784" 
d="M549 -11q-66 0 -100 38.5t-34 110.5q0 45 11 89t35.5 78.5t63 56t93.5 21.5q65 0 98.5 -36t33.5 -107q0 -48 -11.5 -93t-35.5 -80t-62 -56.5t-92 -21.5zM558 47q34 0 57 19t36.5 47.5t19 61.5t5.5 60q0 45 -15.5 67.5t-52.5 22.5q-34 0 -57 -19t-37 -47.5t-20 -61.5
t-6 -60q0 -45 16 -67.5t54 -22.5zM185 340q-66 0 -100 38.5t-34 110.5q0 45 11 89t35.5 78.5t63 56t93.5 21.5q65 0 98.5 -36t33.5 -107q0 -48 -11.5 -93t-35.5 -80t-62 -56.5t-92 -21.5zM194 398q34 0 57 19t36.5 47.5t19 61.5t5.5 60q0 45 -15.5 67.5t-52.5 22.5
q-34 0 -57 -19t-37 -47.5t-20 -61.5t-6 -60q0 -45 16 -67.5t54 -22.5zM641 751l57 -32l-534 -739l-55 35z" />
    <glyph glyph-name="fraction" unicode="&#x2044;" horiz-adv-x="190" 
d="M339 751l57 -32l-533 -739l-56 35z" />
    <glyph glyph-name="zerosuperior" unicode="&#x2070;" horiz-adv-x="427" 
d="M224 383q-72 0 -106 40t-34 118q0 50 11 105t36.5 101t67.5 76t104 30q72 0 104 -40t32 -119q0 -52 -10.5 -107t-35 -100.5t-66 -74.5t-103.5 -29zM233 445q40 0 65 28t39 68.5t18.5 84t4.5 75.5q0 45 -15 68t-52 23q-40 0 -65.5 -28.5t-40 -69t-20 -84.5t-5.5 -75
q0 -45 16.5 -67.5t54.5 -22.5z" />
    <glyph glyph-name="onesuperior" unicode="&#xb9;" horiz-adv-x="248" 
d="M88 781q26 8 61.5 26.5t64.5 38.5h52l-72 -456h-76l58 366q-11 -6 -34.5 -17t-46.5 -19z" />
    <glyph glyph-name="twosuperior" unicode="&#xb2;" horiz-adv-x="353" 
d="M331 452l-10 -62h-263q2 17 5.5 34.5t8.5 33.5q7 23 20.5 43.5t30.5 39t36.5 35t39.5 32.5q21 17 40.5 33t34.5 33t24 35t9 39q0 23 -13.5 34.5t-37.5 11.5q-42 0 -57.5 -26.5t-16.5 -71.5l-72 -4q-2 33 6.5 62.5t28 51t50 34.5t72.5 13q63 0 90.5 -27.5t27.5 -74.5
q0 -29 -10.5 -53.5t-27 -45.5t-38.5 -40t-44 -36q-20 -15 -39 -30t-35 -30t-27 -31t-14 -33h181z" />
    <glyph glyph-name="threesuperior" unicode="&#xb3;" horiz-adv-x="360" 
d="M182 652q54 1 87.5 22.5t33.5 72.5q0 26 -13.5 37t-38.5 11q-75 0 -76 -97l-72 -5q-2 32 6.5 61t27.5 51t49.5 35t73.5 13q61 0 91.5 -27t30.5 -75q0 -51 -30.5 -81.5t-73.5 -41.5q40 -10 58.5 -36.5t18.5 -59.5q0 -35 -12.5 -62.5t-35 -47t-52.5 -29.5t-65 -10
q-71 0 -99.5 31.5t-28.5 81.5q0 8 0.5 14.5t1.5 13.5l75 5q-1 -5 -1 -11v-11q0 -31 12.5 -47.5t47.5 -16.5q32 0 56 24t24 69q0 35 -24 48t-75 11z" />
    <glyph glyph-name="foursuperior" unicode="&#x2074;" horiz-adv-x="353" 
d="M236 541l33 213h-2l-149 -213h118zM310 541h54l-10 -61h-54l-14 -90h-75l15 90h-190l8 48l224 317h90z" />
    <glyph glyph-name="fivesuperior" unicode="&#x2075;" horiz-adv-x="363" 
d="M229 631q-24 0 -44 -12.5t-33 -30.5l-60 6l57 251h240l-9 -62h-178l-33 -129q15 15 39.5 25.5t55.5 10.5q49 0 75 -30t26 -88q0 -88 -46 -138.5t-127 -50.5q-39 0 -64.5 11.5t-39.5 30.5t-17.5 44.5t-0.5 54.5l73 5q-3 -45 10.5 -65.5t47.5 -20.5q25 0 41.5 11.5
t26.5 29.5t14.5 39t4.5 40q0 37 -15 52.5t-44 15.5z" />
    <glyph glyph-name="sixsuperior" unicode="&#x2076;" horiz-adv-x="383" 
d="M284 794q-41 0 -68.5 -38.5t-44.5 -121.5q22 23 50.5 32.5t54.5 9.5q47 0 76 -28t29 -86q0 -38 -11.5 -70.5t-33.5 -56.5t-54 -38t-73 -14q-69 0 -98 39t-29 108q0 15 1.5 31.5t3.5 34.5q35 257 211 257q57 0 81 -26t24 -67q0 -22 -4 -39l-73 -6q5 23 5 36q0 43 -47 43z
M243 621q-44 0 -67.5 -32t-23.5 -78q0 -30 13 -50t50 -20q23 0 40 10t28 26.5t16 36.5t5 41q0 34 -14 50t-47 16z" />
    <glyph glyph-name="sevensuperior" unicode="&#x2077;" horiz-adv-x="306" 
d="M83 390q22 124 72 218.5t121 173.5h-184l10 63h265l-7 -46q-45 -50 -76.5 -98.5t-53.5 -98t-36.5 -102t-26.5 -110.5h-84z" />
    <glyph glyph-name="eightsuperior" unicode="&#x2078;" horiz-adv-x="396" 
d="M207 383q-39 0 -65 9t-42.5 25t-23.5 36.5t-7 44.5q0 54 30 91t78 48q-27 10 -41 32.5t-14 50.5q0 31 12.5 56t34.5 42t51.5 26t64.5 9q63 0 92 -27t29 -69q0 -45 -25 -75t-66 -44q40 -11 57.5 -37t17.5 -58q0 -75 -49.5 -117.5t-133.5 -42.5zM216 441q46 0 72 29t26 74
q0 25 -14 45.5t-55 20.5q-46 0 -72 -29.5t-26 -72.5q0 -30 15.5 -48.5t53.5 -18.5zM252 665q40 0 58 26.5t18 60.5q0 21 -12 34t-42 13q-39 0 -57.5 -25t-18.5 -56q0 -21 10 -37t44 -16z" />
    <glyph glyph-name="ninesuperior" unicode="&#x2079;" horiz-adv-x="382" 
d="M239 615q22 0 39 9t28.5 23.5t17 34t5.5 40.5q0 32 -13 52.5t-50 20.5q-23 0 -39.5 -9.5t-27.5 -25t-16.5 -36.5t-5.5 -43q0 -31 14.5 -48.5t47.5 -17.5zM201 442q40 0 65.5 36t44.5 124q-21 -23 -49 -32.5t-54 -9.5q-48 0 -77.5 29t-29.5 89q0 37 11.5 69t33.5 55.5
t54 37t72 13.5q65 0 96 -38t31 -110q0 -14 -1 -29.5t-3 -32.5q-17 -132 -65.5 -196t-136.5 -64q-64 0 -91.5 30t-27.5 76q0 6 0.5 12.5t1.5 13.5l73 5q-1 -6 -1 -11.5v-10.5q0 -29 12 -42.5t41 -13.5z" />
    <glyph glyph-name="zeroinferior" unicode="&#x2080;" horiz-adv-x="427" 
d="M143 -136q-72 0 -106 40t-34 118q0 50 11 105t36.5 101t67.5 76t104 30q72 0 104 -40t32 -119q0 -52 -10.5 -107t-35 -100.5t-66 -74.5t-103.5 -29zM152 -74q40 0 65 28t39 68.5t18.5 84t4.5 75.5q0 45 -15 68t-52 23q-40 0 -65.5 -28.5t-40 -69t-20 -84.5t-5.5 -75
q0 -45 16.5 -67.5t54.5 -22.5z" />
    <glyph glyph-name="oneinferior" unicode="&#x2081;" horiz-adv-x="248" 
d="M7 262q26 8 61.5 26.5t64.5 38.5h52l-72 -456h-76l58 366q-11 -6 -34.5 -17t-46.5 -19z" />
    <glyph glyph-name="twoinferior" unicode="&#x2082;" horiz-adv-x="353" 
d="M250 -67l-10 -62h-263q2 17 5.5 34.5t8.5 33.5q7 23 20.5 43.5t30.5 39t36.5 35t39.5 32.5q21 17 40.5 33t34.5 33t24 35t9 39q0 23 -13.5 34.5t-37.5 11.5q-42 0 -57.5 -26.5t-16.5 -71.5l-72 -4q-2 33 6.5 62.5t28 51t50 34.5t72.5 13q63 0 90.5 -27.5t27.5 -74.5
q0 -29 -10.5 -53.5t-27 -45.5t-38.5 -40t-44 -36q-20 -15 -39 -30t-35 -30t-27 -31t-14 -33h181z" />
    <glyph glyph-name="threeinferior" unicode="&#x2083;" horiz-adv-x="360" 
d="M101 133q54 1 87.5 22.5t33.5 72.5q0 26 -13.5 37t-38.5 11q-75 0 -76 -97l-72 -5q-2 32 6.5 61t27.5 51t49.5 35t73.5 13q61 0 91.5 -27t30.5 -75q0 -51 -30.5 -81.5t-73.5 -41.5q40 -10 58.5 -36.5t18.5 -59.5q0 -35 -12.5 -62.5t-35 -47t-52.5 -29.5t-65 -10
q-71 0 -99.5 31.5t-28.5 81.5q0 8 0.5 14.5t1.5 13.5l75 5q-1 -5 -1 -11v-11q0 -31 12.5 -47.5t47.5 -16.5q32 0 56 24t24 69q0 35 -24 48t-75 11z" />
    <glyph glyph-name="fourinferior" unicode="&#x2084;" horiz-adv-x="353" 
d="M155 22l33 213h-2l-149 -213h118zM229 22h54l-10 -61h-54l-14 -90h-75l15 90h-190l8 48l224 317h90z" />
    <glyph glyph-name="fiveinferior" unicode="&#x2085;" horiz-adv-x="363" 
d="M148 112q-24 0 -44 -12.5t-33 -30.5l-60 6l57 251h240l-9 -62h-178l-33 -129q15 15 39.5 25.5t55.5 10.5q49 0 75 -30t26 -88q0 -88 -46 -138.5t-127 -50.5q-39 0 -64.5 11.5t-39.5 30.5t-17.5 44.5t-0.5 54.5l73 5q-3 -45 10.5 -65.5t47.5 -20.5q25 0 41.5 11.5
t26.5 29.5t14.5 39t4.5 40q0 37 -15 52.5t-44 15.5z" />
    <glyph glyph-name="sixinferior" unicode="&#x2086;" horiz-adv-x="383" 
d="M203 275q-41 0 -68.5 -38.5t-44.5 -121.5q22 23 50.5 32.5t54.5 9.5q47 0 76 -28t29 -86q0 -38 -11.5 -70.5t-33.5 -56.5t-54 -38t-73 -14q-69 0 -98 39t-29 108q0 15 1.5 31.5t3.5 34.5q35 257 211 257q57 0 81 -26t24 -67q0 -22 -4 -39l-73 -6q5 23 5 36q0 43 -47 43z
M162 102q-44 0 -67.5 -32t-23.5 -78q0 -30 13 -50t50 -20q23 0 40 10t28 26.5t16 36.5t5 41q0 34 -14 50t-47 16z" />
    <glyph glyph-name="seveninferior" unicode="&#x2087;" horiz-adv-x="306" 
d="M2 -129q22 124 72 218.5t121 173.5h-184l10 63h265l-7 -46q-45 -50 -76.5 -98.5t-53.5 -98t-36.5 -102t-26.5 -110.5h-84z" />
    <glyph glyph-name="eightinferior" unicode="&#x2088;" horiz-adv-x="396" 
d="M126 -136q-39 0 -65 9t-42.5 25t-23.5 36.5t-7 44.5q0 54 30 91t78 48q-27 10 -41 32.5t-14 50.5q0 31 12.5 56t34.5 42t51.5 26t64.5 9q63 0 92 -27t29 -69q0 -45 -25 -75t-66 -44q40 -11 57.5 -37t17.5 -58q0 -75 -49.5 -117.5t-133.5 -42.5zM135 -78q46 0 72 29t26 74
q0 25 -14 45.5t-55 20.5q-46 0 -72 -29.5t-26 -72.5q0 -30 15.5 -48.5t53.5 -18.5zM171 146q40 0 58 26.5t18 60.5q0 21 -12 34t-42 13q-39 0 -57.5 -25t-18.5 -56q0 -21 10 -37t44 -16z" />
    <glyph glyph-name="nineinferior" unicode="&#x2089;" horiz-adv-x="382" 
d="M158 96q22 0 39 9t28.5 23.5t17 34t5.5 40.5q0 32 -13 52.5t-50 20.5q-23 0 -39.5 -9.5t-27.5 -25t-16.5 -36.5t-5.5 -43q0 -31 14.5 -48.5t47.5 -17.5zM120 -77q40 0 65.5 36t44.5 124q-21 -23 -49 -32.5t-54 -9.5q-48 0 -77.5 29t-29.5 89q0 37 11.5 69t33.5 55.5
t54 37t72 13.5q65 0 96 -38t31 -110q0 -14 -1 -29.5t-3 -32.5q-17 -132 -65.5 -196t-136.5 -64q-64 0 -91.5 30t-27.5 76q0 6 0.5 12.5t1.5 13.5l73 5q-1 -6 -1 -11.5v-10.5q0 -29 12 -42.5t41 -13.5z" />
    <glyph glyph-name="zero.num" horiz-adv-x="427" 
d="M208 272q-72 0 -106 40t-34 118q0 50 11 105t36.5 101t67.5 76t104 30q72 0 104 -40t32 -119q0 -52 -10.5 -107t-35 -100.5t-66 -74.5t-103.5 -29zM217 334q40 0 65 28t39 68.5t18.5 84t4.5 75.5q0 45 -15 68t-52 23q-40 0 -65.5 -28.5t-40 -69t-20 -84.5t-5.5 -75
q0 -45 16.5 -67.5t54.5 -22.5z" />
    <glyph glyph-name="one.num" horiz-adv-x="248" 
d="M72 670q26 8 61.5 26.5t64.5 38.5h52l-72 -456h-76l58 366q-11 -6 -34.5 -17t-46.5 -19z" />
    <glyph glyph-name="two.num" horiz-adv-x="353" 
d="M315 341l-10 -62h-263q2 17 5.5 34.5t8.5 33.5q7 23 20.5 43.5t30.5 39t36.5 35t39.5 32.5q21 17 40.5 33t34.5 33t24 35t9 39q0 23 -13.5 34.5t-37.5 11.5q-42 0 -57.5 -26.5t-16.5 -71.5l-72 -4q-2 33 6.5 62.5t28 51t50 34.5t72.5 13q63 0 90.5 -27.5t27.5 -74.5
q0 -29 -10.5 -53.5t-27 -45.5t-38.5 -40t-44 -36q-20 -15 -39 -30t-35 -30t-27 -31t-14 -33h181z" />
    <glyph glyph-name="three.num" horiz-adv-x="360" 
d="M166 541q54 1 87.5 22.5t33.5 72.5q0 26 -13.5 37t-38.5 11q-75 0 -76 -97l-72 -5q-2 32 6.5 61t27.5 51t49.5 35t73.5 13q61 0 91.5 -27t30.5 -75q0 -51 -30.5 -81.5t-73.5 -41.5q40 -10 58.5 -36.5t18.5 -59.5q0 -35 -12.5 -62.5t-35 -47t-52.5 -29.5t-65 -10
q-71 0 -99.5 31.5t-28.5 81.5q0 8 0.5 14.5t1.5 13.5l75 5q-1 -5 -1 -11v-11q0 -31 12.5 -47.5t47.5 -16.5q32 0 56 24t24 69q0 35 -24 48t-75 11z" />
    <glyph glyph-name="four.num" horiz-adv-x="353" 
d="M220 430l33 213h-2l-149 -213h118zM294 430h54l-10 -61h-54l-14 -90h-75l15 90h-190l8 48l224 317h90z" />
    <glyph glyph-name="five.num" horiz-adv-x="363" 
d="M213 520q-24 0 -44 -12.5t-33 -30.5l-60 6l57 251h240l-9 -62h-178l-33 -129q15 15 39.5 25.5t55.5 10.5q49 0 75 -30t26 -88q0 -88 -46 -138.5t-127 -50.5q-39 0 -64.5 11.5t-39.5 30.5t-17.5 44.5t-0.5 54.5l73 5q-3 -45 10.5 -65.5t47.5 -20.5q25 0 41.5 11.5
t26.5 29.5t14.5 39t4.5 40q0 37 -15 52.5t-44 15.5z" />
    <glyph glyph-name="six.num" horiz-adv-x="383" 
d="M268 683q-41 0 -68.5 -38.5t-44.5 -121.5q22 23 50.5 32.5t54.5 9.5q47 0 76 -28t29 -86q0 -38 -11.5 -70.5t-33.5 -56.5t-54 -38t-73 -14q-69 0 -98 39t-29 108q0 15 1.5 31.5t3.5 34.5q35 257 211 257q57 0 81 -26t24 -67q0 -22 -4 -39l-73 -6q5 23 5 36q0 43 -47 43z
M227 510q-44 0 -67.5 -32t-23.5 -78q0 -30 13 -50t50 -20q23 0 40 10t28 26.5t16 36.5t5 41q0 34 -14 50t-47 16z" />
    <glyph glyph-name="seven.num" horiz-adv-x="306" 
d="M67 279q22 124 72 218.5t121 173.5h-184l10 63h265l-7 -46q-45 -50 -76.5 -98.5t-53.5 -98t-36.5 -102t-26.5 -110.5h-84z" />
    <glyph glyph-name="eight.num" horiz-adv-x="396" 
d="M191 272q-39 0 -65 9t-42.5 25t-23.5 36.5t-7 44.5q0 54 30 91t78 48q-27 10 -41 32.5t-14 50.5q0 31 12.5 56t34.5 42t51.5 26t64.5 9q63 0 92 -27t29 -69q0 -45 -25 -75t-66 -44q40 -11 57.5 -37t17.5 -58q0 -75 -49.5 -117.5t-133.5 -42.5zM200 330q46 0 72 29t26 74
q0 25 -14 45.5t-55 20.5q-46 0 -72 -29.5t-26 -72.5q0 -30 15.5 -48.5t53.5 -18.5zM236 554q40 0 58 26.5t18 60.5q0 21 -12 34t-42 13q-39 0 -57.5 -25t-18.5 -56q0 -21 10 -37t44 -16z" />
    <glyph glyph-name="nine.num" horiz-adv-x="382" 
d="M223 504q22 0 39 9t28.5 23.5t17 34t5.5 40.5q0 32 -13 52.5t-50 20.5q-23 0 -39.5 -9.5t-27.5 -25t-16.5 -36.5t-5.5 -43q0 -31 14.5 -48.5t47.5 -17.5zM185 331q40 0 65.5 36t44.5 124q-21 -23 -49 -32.5t-54 -9.5q-48 0 -77.5 29t-29.5 89q0 37 11.5 69t33.5 55.5
t54 37t72 13.5q65 0 96 -38t31 -110q0 -14 -1 -29.5t-3 -32.5q-17 -132 -65.5 -196t-136.5 -64q-64 0 -91.5 30t-27.5 76q0 6 0.5 12.5t1.5 13.5l73 5q-1 -6 -1 -11.5v-10.5q0 -29 12 -42.5t41 -13.5z" />
    <glyph glyph-name="zero.denom" horiz-adv-x="427" 
d="M164 -6q-72 0 -106 40t-34 118q0 50 11 105t36.5 101t67.5 76t104 30q72 0 104 -40t32 -119q0 -52 -10.5 -107t-35 -100.5t-66 -74.5t-103.5 -29zM173 56q40 0 65 28t39 68.5t18.5 84t4.5 75.5q0 45 -15 68t-52 23q-40 0 -65.5 -28.5t-40 -69t-20 -84.5t-5.5 -75
q0 -45 16.5 -67.5t54.5 -22.5z" />
    <glyph glyph-name="one.denom" horiz-adv-x="248" 
d="M28 392q26 8 61.5 26.5t64.5 38.5h52l-72 -456h-76l58 366q-11 -6 -34.5 -17t-46.5 -19z" />
    <glyph glyph-name="two.denom" horiz-adv-x="353" 
d="M271 63l-10 -62h-263q2 17 5.5 34.5t8.5 33.5q7 23 20.5 43.5t30.5 39t36.5 35t39.5 32.5q21 17 40.5 33t34.5 33t24 35t9 39q0 23 -13.5 34.5t-37.5 11.5q-42 0 -57.5 -26.5t-16.5 -71.5l-72 -4q-2 33 6.5 62.5t28 51t50 34.5t72.5 13q63 0 90.5 -27.5t27.5 -74.5
q0 -29 -10.5 -53.5t-27 -45.5t-38.5 -40t-44 -36q-20 -15 -39 -30t-35 -30t-27 -31t-14 -33h181z" />
    <glyph glyph-name="three.denom" horiz-adv-x="360" 
d="M122 263q54 1 87.5 22.5t33.5 72.5q0 26 -13.5 37t-38.5 11q-75 0 -76 -97l-72 -5q-2 32 6.5 61t27.5 51t49.5 35t73.5 13q61 0 91.5 -27t30.5 -75q0 -51 -30.5 -81.5t-73.5 -41.5q40 -10 58.5 -36.5t18.5 -59.5q0 -35 -12.5 -62.5t-35 -47t-52.5 -29.5t-65 -10
q-71 0 -99.5 31.5t-28.5 81.5q0 8 0.5 14.5t1.5 13.5l75 5q-1 -5 -1 -11v-11q0 -31 12.5 -47.5t47.5 -16.5q32 0 56 24t24 69q0 35 -24 48t-75 11z" />
    <glyph glyph-name="four.denom" horiz-adv-x="353" 
d="M176 152l33 213h-2l-149 -213h118zM250 152h54l-10 -61h-54l-14 -90h-75l15 90h-190l8 48l224 317h90z" />
    <glyph glyph-name="five.denom" horiz-adv-x="363" 
d="M169 242q-24 0 -44 -12.5t-33 -30.5l-60 6l57 251h240l-9 -62h-178l-33 -129q15 15 39.5 25.5t55.5 10.5q49 0 75 -30t26 -88q0 -88 -46 -138.5t-127 -50.5q-39 0 -64.5 11.5t-39.5 30.5t-17.5 44.5t-0.5 54.5l73 5q-3 -45 10.5 -65.5t47.5 -20.5q25 0 41.5 11.5
t26.5 29.5t14.5 39t4.5 40q0 37 -15 52.5t-44 15.5z" />
    <glyph glyph-name="six.denom" horiz-adv-x="383" 
d="M224 405q-41 0 -68.5 -38.5t-44.5 -121.5q22 23 50.5 32.5t54.5 9.5q47 0 76 -28t29 -86q0 -38 -11.5 -70.5t-33.5 -56.5t-54 -38t-73 -14q-69 0 -98 39t-29 108q0 15 1.5 31.5t3.5 34.5q35 257 211 257q57 0 81 -26t24 -67q0 -22 -4 -39l-73 -6q5 23 5 36q0 43 -47 43z
M183 232q-44 0 -67.5 -32t-23.5 -78q0 -30 13 -50t50 -20q23 0 40 10t28 26.5t16 36.5t5 41q0 34 -14 50t-47 16z" />
    <glyph glyph-name="seven.denom" horiz-adv-x="306" 
d="M23 1q22 124 72 218.5t121 173.5h-184l10 63h265l-7 -46q-45 -50 -76.5 -98.5t-53.5 -98t-36.5 -102t-26.5 -110.5h-84z" />
    <glyph glyph-name="eight.denom" horiz-adv-x="396" 
d="M147 -6q-39 0 -65 9t-42.5 25t-23.5 36.5t-7 44.5q0 54 30 91t78 48q-27 10 -41 32.5t-14 50.5q0 31 12.5 56t34.5 42t51.5 26t64.5 9q63 0 92 -27t29 -69q0 -45 -25 -75t-66 -44q40 -11 57.5 -37t17.5 -58q0 -75 -49.5 -117.5t-133.5 -42.5zM156 52q46 0 72 29t26 74
q0 25 -14 45.5t-55 20.5q-46 0 -72 -29.5t-26 -72.5q0 -30 15.5 -48.5t53.5 -18.5zM192 276q40 0 58 26.5t18 60.5q0 21 -12 34t-42 13q-39 0 -57.5 -25t-18.5 -56q0 -21 10 -37t44 -16z" />
    <glyph glyph-name="nine.denom" horiz-adv-x="382" 
d="M179 226q22 0 39 9t28.5 23.5t17 34t5.5 40.5q0 32 -13 52.5t-50 20.5q-23 0 -39.5 -9.5t-27.5 -25t-16.5 -36.5t-5.5 -43q0 -31 14.5 -48.5t47.5 -17.5zM141 53q40 0 65.5 36t44.5 124q-21 -23 -49 -32.5t-54 -9.5q-48 0 -77.5 29t-29.5 89q0 37 11.5 69t33.5 55.5
t54 37t72 13.5q65 0 96 -38t31 -110q0 -14 -1 -29.5t-3 -32.5q-17 -132 -65.5 -196t-136.5 -64q-64 0 -91.5 30t-27.5 76q0 6 0.5 12.5t1.5 13.5l73 5q-1 -6 -1 -11.5v-10.5q0 -29 12 -42.5t41 -13.5z" />
    <glyph glyph-name="onehalf" unicode="&#xbd;" horiz-adv-x="882" 
d="M742 63l-10 -62h-263q2 17 5.5 34.5t8.5 33.5q7 23 20.5 43.5t30.5 39t36.5 35t39.5 32.5q21 17 40.5 33t34.5 33t24 35t9 39q0 23 -13.5 34.5t-37.5 11.5q-42 0 -57.5 -26.5t-16.5 -71.5l-72 -4q-2 33 6.5 62.5t28 51t50 34.5t72.5 13q63 0 90.5 -27.5t27.5 -74.5
q0 -29 -10.5 -53.5t-27 -45.5t-38.5 -40t-44 -36q-20 -15 -39 -30t-35 -30t-27 -31t-14 -33h181zM636 751l57 -32l-533 -739l-56 35zM107 670q26 8 61.5 26.5t64.5 38.5h52l-72 -456h-76l58 366q-11 -6 -34.5 -17t-46.5 -19z" />
    <glyph glyph-name="onequarter" unicode="&#xbc;" horiz-adv-x="882" 
d="M624 152l33 213h-2l-149 -213h118zM698 152h54l-10 -61h-54l-14 -90h-75l15 90h-190l8 48l224 317h90zM638 751l57 -32l-533 -739l-56 35zM103 670q26 8 61.5 26.5t64.5 38.5h52l-72 -456h-76l58 366q-11 -6 -34.5 -17t-46.5 -19z" />
    <glyph glyph-name="threequarters" unicode="&#xbe;" horiz-adv-x="882" 
d="M683 152l33 213h-2l-149 -213h118zM757 152h54l-10 -61h-54l-14 -90h-75l15 90h-190l8 48l224 317h90zM188 541q54 1 87.5 22.5t33.5 72.5q0 26 -13.5 37t-38.5 11q-75 0 -76 -97l-72 -5q-2 32 6.5 61t27.5 51t49.5 35t73.5 13q61 0 91.5 -27t30.5 -75q0 -51 -30.5 -81.5
t-73.5 -41.5q40 -10 58.5 -36.5t18.5 -59.5q0 -35 -12.5 -62.5t-35 -47t-52.5 -29.5t-65 -10q-71 0 -99.5 31.5t-28.5 81.5q0 8 0.5 14.5t1.5 13.5l75 5q-1 -5 -1 -11v-11q0 -31 12.5 -47.5t47.5 -16.5q32 0 56 24t24 69q0 35 -24 48t-75 11zM711 751l57 -32l-533 -739
l-56 35z" />
    <glyph glyph-name="onethird" unicode="&#x2153;" horiz-adv-x="882" 
d="M600 263q54 1 87.5 22.5t33.5 72.5q0 26 -13.5 37t-38.5 11q-75 0 -76 -97l-72 -5q-2 32 6.5 61t27.5 51t49.5 35t73.5 13q61 0 91.5 -27t30.5 -75q0 -51 -30.5 -81.5t-73.5 -41.5q40 -10 58.5 -36.5t18.5 -59.5q0 -35 -12.5 -62.5t-35 -47t-52.5 -29.5t-65 -10
q-71 0 -99.5 31.5t-28.5 81.5q0 8 0.5 14.5t1.5 13.5l75 5q-1 -5 -1 -11v-11q0 -31 12.5 -47.5t47.5 -16.5q32 0 56 24t24 69q0 35 -24 48t-75 11zM622 751l57 -32l-533 -739l-56 35zM93 670q26 8 61.5 26.5t64.5 38.5h52l-72 -456h-76l58 366q-11 -6 -34.5 -17t-46.5 -19z
" />
    <glyph glyph-name="twothirds" unicode="&#x2154;" horiz-adv-x="882" 
d="M313 341l-10 -62h-263q2 17 5.5 34.5t8.5 33.5q7 23 20.5 43.5t30.5 39t36.5 35t39.5 32.5q21 17 40.5 33t34.5 33t24 35t9 39q0 23 -13.5 34.5t-37.5 11.5q-42 0 -57.5 -26.5t-16.5 -71.5l-72 -4q-2 33 6.5 62.5t28 51t50 34.5t72.5 13q63 0 90.5 -27.5t27.5 -74.5
q0 -29 -10.5 -53.5t-27 -45.5t-38.5 -40t-44 -36q-20 -15 -39 -30t-35 -30t-27 -31t-14 -33h181zM637 263q54 1 87.5 22.5t33.5 72.5q0 26 -13.5 37t-38.5 11q-75 0 -76 -97l-72 -5q-2 32 6.5 61t27.5 51t49.5 35t73.5 13q61 0 91.5 -27t30.5 -75q0 -51 -30.5 -81.5
t-73.5 -41.5q40 -10 58.5 -36.5t18.5 -59.5q0 -35 -12.5 -62.5t-35 -47t-52.5 -29.5t-65 -10q-71 0 -99.5 31.5t-28.5 81.5q0 8 0.5 14.5t1.5 13.5l75 5q-1 -5 -1 -11v-11q0 -31 12.5 -47.5t47.5 -16.5q32 0 56 24t24 69q0 35 -24 48t-75 11zM684 751l57 -32l-533 -739
l-56 35z" />
    <glyph glyph-name="minus" unicode="&#x2212;" horiz-adv-x="545" 
d="M86 295l10 65h364l-10 -65h-364z" />
    <glyph glyph-name="approxequal" unicode="&#x2248;" horiz-adv-x="545" 
d="M53 172q22 45 54 72t73 27q22 0 44.5 -7.5t42.5 -16.5q19 -9 38 -16.5t35 -7.5q23 0 41 16t31 38l44 -26q-21 -41 -53 -68.5t-69 -27.5q-14 0 -37.5 6t-55.5 20q-24 11 -40 16.5t-29 5.5q-23 0 -41.5 -16t-34.5 -43zM82 348q21 45 53.5 72t72.5 27q22 0 45 -7.5t43 -17.5
q19 -9 38.5 -16t34.5 -7q22 0 40.5 16t30.5 37l45 -25q-21 -42 -52.5 -69t-69.5 -27q-14 0 -37 5.5t-56 19.5q-24 11 -40 16.5t-29 5.5q-23 0 -41 -16t-34 -42z" />
    <glyph glyph-name="notequal" unicode="&#x2260;" horiz-adv-x="545" 
d="M229 203l-68 -103h-63l69 103h-96l10 65h130l55 82h-171l10 66h205l60 88h60l-59 -88h98l-10 -66h-132l-54 -82h173l-11 -65h-206z" />
    <glyph glyph-name="lessequal" unicode="&#x2264;" horiz-adv-x="545" 
d="M40 0l10 65h365l-10 -65h-365zM75 229l15 91l387 144l-12 -79l-314 -111l280 -102l-12 -74z" />
    <glyph glyph-name="greaterequal" unicode="&#x2265;" horiz-adv-x="545" 
d="M40 0l10 65h364l-10 -65h-364zM456 333l-14 -91l-387 -144l12 81l314 110l-280 103l12 72z" />
    <glyph glyph-name="less" unicode="&#x3c;" horiz-adv-x="545" 
d="M77 238l14 91l388 144l-13 -80l-313 -111l279 -102l-11 -73z" />
    <glyph glyph-name="equal" unicode="=" horiz-adv-x="545" 
d="M71 203l10 65h365l-11 -65h-364zM95 350l10 66h364l-10 -66h-364z" />
    <glyph glyph-name="greater" unicode="&#x3e;" horiz-adv-x="545" 
d="M458 342l-15 -91l-387 -144l12 81l314 111l-280 102l12 72z" />
    <glyph glyph-name="logicalnot" unicode="&#xac;" horiz-adv-x="545" 
d="M430 168h-71l20 127h-293l10 65h364z" />
    <glyph glyph-name="plus" unicode="+" horiz-adv-x="545" 
d="M300 295l-23 -150h-66l24 150h-149l10 65h149l24 149h65l-24 -149h150l-10 -65h-150z" />
    <glyph glyph-name="plusminus" unicode="&#xb1;" horiz-adv-x="545" 
d="M300 295l-23 -150h-66l24 150h-149l10 65h149l24 149h65l-24 -149h150l-10 -65h-150zM40 0l10 65h364l-10 -65h-364z" />
    <glyph glyph-name="divide" unicode="&#xf7;" horiz-adv-x="545" 
d="M197 140l18 112h89l-17 -112h-90zM96 360h364l-10 -65h-364zM256 512h90l-18 -112h-90z" />
    <glyph glyph-name="multiply" unicode="&#xd7;" 
d="M299 323l86 -102l-52 -46l-87 103l-123 -107l-42 51l123 106l-88 105l53 46l88 -105l123 106l42 -50z" />
    <glyph glyph-name="partialdiff" unicode="&#x2202;" horiz-adv-x="539" 
d="M410 392q7 38 11.5 74t4.5 68q0 28 -4.5 52t-15.5 41.5t-29.5 27t-45.5 9.5q-40 0 -77 -13.5t-69 -30.5l-20 62q38 23 87.5 37.5t94.5 14.5q48 0 79.5 -16t50 -43.5t26 -64.5t7.5 -78q0 -29 -3 -63t-8 -70q-6 -45 -17 -93t-28 -94t-40.5 -86.5t-55 -71t-72 -48.5
t-91.5 -18q-50 0 -82 15.5t-51.5 40.5t-27 57t-7.5 66q0 57 15.5 112.5t46.5 98.5t78 69.5t111 26.5q47 0 81.5 -22t50.5 -60zM204 59q42 0 74.5 23.5t54.5 59.5t33 78.5t11 80.5q0 46 -23.5 75t-76.5 29q-44 0 -74.5 -21t-50.5 -55t-29 -76.5t-9 -85.5q0 -22 4 -41.5
t14.5 -34.5t28 -23.5t43.5 -8.5z" />
    <glyph glyph-name="Omega" unicode="&#x2126;" horiz-adv-x="762" 
d="M471 76h154l-11 -76h-224l22 143q52 21 88.5 57t58.5 82.5t32 99.5t10 108q0 95 -41 136.5t-115 41.5q-69 0 -117.5 -30.5t-79.5 -79.5t-45.5 -109t-14.5 -119q0 -44 8 -75t22 -52.5t33 -35.5t42 -24l-22 -143h-228l11 76h158l7 39q-68 29 -98.5 90.5t-30.5 144.5
q0 77 23.5 149t69.5 127t114 88t158 33q65 0 112 -18.5t77 -52.5t44 -80.5t14 -101.5q0 -129 -53 -226t-171 -154z" />
    <glyph glyph-name="Delta" unicode="&#x2206;" horiz-adv-x="639" 
d="M374 649h-4l-264 -570h350zM-26 0l351 734h121l119 -734h-591z" />
    <glyph glyph-name="product" unicode="&#x220f;" horiz-adv-x="719" 
d="M532 -161h-95l130 817h-307l-130 -817h-95l142 895h497z" />
    <glyph glyph-name="summation" unicode="&#x2211;" horiz-adv-x="583" 
d="M64 -98h397l-12 -78h-501l12 76l300 384l-158 375l12 75h477l-13 -78h-374l159 -377z" />
    <glyph glyph-name="uni0394" unicode="&#x394;" horiz-adv-x="639" 
d="M374 649h-4l-264 -570h350zM-26 0l351 734h121l119 -734h-591z" />
    <glyph glyph-name="uni03A9" unicode="&#x3a9;" horiz-adv-x="762" 
d="M471 76h154l-11 -76h-224l22 143q52 21 88.5 57t58.5 82.5t32 99.5t10 108q0 95 -41 136.5t-115 41.5q-69 0 -117.5 -30.5t-79.5 -79.5t-45.5 -109t-14.5 -119q0 -44 8 -75t22 -52.5t33 -35.5t42 -24l-22 -143h-228l11 76h158l7 39q-68 29 -98.5 90.5t-30.5 144.5
q0 77 23.5 149t69.5 127t114 88t158 33q65 0 112 -18.5t77 -52.5t44 -80.5t14 -101.5q0 -129 -53 -226t-171 -154z" />
    <glyph glyph-name="uni03BC" unicode="&#x3bc;" horiz-adv-x="589" 
d="M224 -8q-27 0 -51 6.5t-39 19.5l-4 -3l-19 -191h-89l109 690h89l-52 -328q-5 -28 -5 -50q0 -32 14.5 -54t55.5 -22q35 0 61.5 14.5t45 38.5t29.5 54t16 60l45 287h89l-81 -514h-76l2 72h-2q-9 -14 -23 -28t-31 -25.5t-38.5 -19t-45.5 -7.5z" />
    <glyph glyph-name="pi" unicode="&#x3c0;" horiz-adv-x="621" 
d="M467 0h-89l70 444h-235l-70 -444h-89l81 514h413z" />
    <glyph glyph-name="mu" unicode="&#xb5;" horiz-adv-x="589" 
d="M224 -8q-27 0 -51 6.5t-39 19.5l-4 -3l-19 -191h-89l109 690h89l-52 -328q-5 -28 -5 -50q0 -32 14.5 -54t55.5 -22q35 0 61.5 14.5t45 38.5t29.5 54t16 60l45 287h89l-81 -514h-76l2 72h-2q-9 -14 -23 -28t-31 -25.5t-38.5 -19t-45.5 -7.5z" />
    <glyph glyph-name="radical" unicode="&#x221a;" horiz-adv-x="567" 
d="M216 0l-91 258l-80 -32l-15 62l151 61l83 -257l270 653l69 -14l-304 -731h-83z" />
    <glyph glyph-name="infinity" unicode="&#x221e;" horiz-adv-x="672" 
d="M484 188q-29 0 -51.5 8.5t-40.5 22t-32.5 29.5t-27.5 30q-12 -13 -27.5 -29t-35 -29.5t-43 -23t-51.5 -9.5q-24 0 -47 8t-41 23.5t-29 40t-11 57.5q0 29 10 54t28 43t43.5 28t57.5 10q26 0 47.5 -8t40 -21t34.5 -28.5t31 -31.5q13 14 28.5 30t34 29t40.5 21.5t49 8.5
q25 0 47.5 -8t40 -24.5t28 -42t10.5 -60.5q0 -27 -10.5 -50.5t-28.5 -40.5t-42 -27t-52 -10zM180 240q19 0 37 9t33 22t27.5 27t21.5 24q-24 29 -51.5 52t-64.5 23q-32 0 -50.5 -23t-18.5 -52q0 -14 3.5 -28.5t11.5 -26.5t20.5 -19.5t30.5 -7.5zM373 318q12 -14 24 -27.5
t24.5 -24t27.5 -17.5t33 -7q15 0 27.5 6.5t21.5 17.5t13.5 25t4.5 29q0 13 -3 27t-10.5 25t-19.5 18.5t-30 7.5q-17 0 -32 -7t-28.5 -18.5t-26.5 -25.5t-26 -29z" />
    <glyph glyph-name="integral" unicode="&#x222b;" horiz-adv-x="411" 
d="M403 666q-15 4 -31 7t-33 3q-42 0 -57.5 -26.5t-17.5 -79.5l-20 -579q-2 -37 -10.5 -68.5t-27 -55t-48 -37t-72.5 -13.5q-26 0 -48 4.5t-35 8.5l12 68q14 -5 29.5 -7.5t32.5 -2.5q41 0 57.5 25.5t18.5 76.5l21 579q1 36 9.5 68t27 56t47.5 38.5t72 14.5q26 0 49 -4.5
t36 -8.5z" />
    <glyph glyph-name="lozenge" unicode="&#x25ca;" horiz-adv-x="550" 
d="M190 46l-114 324l216 324h84l114 -324l-216 -324h-84zM410 370l-86 260l-167 -260l85 -259z" />
    <glyph glyph-name="commaaccent" 
d="M147 -46h90l-14 -85l-59 -110l-40 10l36 86h-29z" />
    <glyph glyph-name="revcommaaccent" 
d="M337 581h-90l13 85l59 110l40 -11l-36 -86h29z" />
    <glyph glyph-name="tilde.cap" 
d="M183 791q19 54 44.5 73.5t48.5 19.5q18 0 34.5 -4t31 -9t27 -9t23.5 -4t22 7.5t19 28.5l46 -8q-20 -56 -45.5 -75.5t-48.5 -19.5q-19 0 -35.5 4t-31.5 9l-27 9t-22 4q-12 0 -22 -7.5t-18 -26.5z" />
    <glyph glyph-name="ring.cap" 
d="M317 761q-45 0 -63 20t-18 48q0 27 10 47t26 33.5t36.5 20.5t41.5 7q45 0 63.5 -20t18.5 -48q0 -27 -10 -47.5t-26 -34t-37 -20t-42 -6.5zM325 803q20 0 33.5 16t13.5 44q0 15 -6.5 23.5t-23.5 8.5q-21 0 -34.5 -15.5t-13.5 -44.5q0 -15 7 -23.5t24 -8.5z" />
    <glyph glyph-name="circumflex.cap" 
d="M370 914l101 -114l-33 -37l-100 80l-133 -80l-24 37l139 114h50z" />
    <glyph glyph-name="acute.cap" 
d="M453 848l-191 -85l-20 46l179 109z" />
    <glyph glyph-name="grave.cap" 
d="M411 808l-30 -44l-165 86l46 68z" />
    <glyph glyph-name="dieresis.cap" 
d="M221 881h81l-16 -97h-80zM376 881h81l-15 -97h-81z" />
    <glyph glyph-name="caron.cap" horiz-adv-x="499" 
d="M296 766l-102 114l35 36l99 -78l130 79l26 -39l-138 -112h-50z" />
    <glyph glyph-name="macron.cap" 
d="M206 867h261l-10 -68h-262z" />
    <glyph glyph-name="dotaccent.cap" 
d="M296 897h91l-17 -107h-91z" />
    <glyph glyph-name="cedilla.cap" 
d="M187 0h51l-32 -50q13 5 28 5q32 0 48.5 -18.5t16.5 -48.5q0 -26 -10.5 -45.5t-27.5 -32.5t-38.5 -19.5t-43.5 -6.5q-26 0 -50.5 10.5t-40.5 41.5l42 31q17 -31 50 -31q21 0 34.5 11t13.5 34q0 32 -32 32q-16 0 -29 -10l-27 14z" />
    <glyph glyph-name="hungarumlaut.cap" 
d="M413 863l-164 -95l-24 39l151 118zM563 859l-167 -93l-23 40l154 114z" />
    <glyph glyph-name="apostrophe" unicode="&#x2bc;" 
d="M275 711h90l-6 -85l-49 -110l-43 10l30 86h-29z" />
    <glyph glyph-name="commaaccent.cap" 
d="M147 -46h90l-14 -85l-59 -110l-40 10l36 86h-29z" />
    <glyph glyph-name="breve.cap" 
d="M258 907q2 -35 20 -53.5t52 -18.5q65 0 102 73l52 -9q-21 -65 -62.5 -97.5t-101.5 -32.5q-57 0 -87.5 34.5t-27.5 95.5z" />
    <glyph glyph-name="caron.alt" 
d="M363 734l-58 -192l-49 3l29 189h78z" />
    <glyph glyph-name="comma.tf" horiz-adv-x="267" 
d="M54 118h102l-17 -102l-79 -145l-43 12l48 117h-29z" />
    <glyph glyph-name="period.tf" horiz-adv-x="272" 
d="M56 118h97l-18 -118h-97z" />
    <glyph glyph-name="at.case" horiz-adv-x="794" 
d="M592 72q-49 -44 -118 -63t-141 -19q-69 0 -124 18t-94 55t-60 93.5t-21 133.5q0 88 28.5 167t83.5 138t134 93.5t180 34.5q65 0 119 -16.5t93 -49.5t60.5 -82.5t21.5 -116.5q0 -50 -10.5 -104t-35 -98t-65 -72.5t-99.5 -28.5q-41 0 -63 17.5t-32 40.5
q-22 -29 -54.5 -46.5t-76.5 -17.5q-62 0 -88 36.5t-26 93.5q0 46 13 94.5t39.5 88.5t67 66t95.5 26q36 0 57.5 -14.5t32.5 -34.5l18 43h65l-68 -245q-4 -14 -6.5 -27t-2.5 -23q0 -20 11 -31.5t37 -11.5q36 0 59 27.5t36.5 66.5t19 81t5.5 70q0 110 -60 158.5t-172 48.5
q-79 0 -142.5 -29t-108.5 -79.5t-69.5 -118.5t-24.5 -146q0 -64 17 -108.5t48.5 -73t76.5 -41.5t100 -13q65 0 120 19t93 51zM485 422q10 40 -10.5 58t-51.5 18q-38 0 -65.5 -21.5t-45 -54t-25.5 -70.5t-8 -72q0 -35 13.5 -53.5t45.5 -18.5q34 0 67.5 23.5t47.5 73.5z" />
    <glyph glyph-name="thinspace" unicode="&#x2009;" horiz-adv-x="125" 
 />
    <glyph glyph-name="quotedbl" unicode="&#x22;" horiz-adv-x="336" 
d="M209 734l-42 -209h-61l26 209h77zM336 734l-42 -209h-61l26 209h77z" />
    <glyph glyph-name="quotesingle" unicode="'" horiz-adv-x="209" 
d="M209 734l-42 -209h-61l26 209h77z" />
    </font>
</defs>
</svg>
